<?xml version="1.0" standalone="no"?><!DOCTYPE svg PUBLIC "-//W3C//DTD SVG 1.1//EN" "http://www.w3.org/Graphics/SVG/1.1/DTD/svg11.dtd"><svg t="1583917601458" class="icon" viewBox="0 0 1024 1024" version="1.1" xmlns="http://www.w3.org/2000/svg" p-id="1967" xmlns:xlink="http://www.w3.org/1999/xlink" width="200" height="200"><defs><style type="text/css"></style></defs><path d="M162.28982256 667.39749483l-103.86781977-257.15292825c-9.1276416-23.74727845-8.82299174-49.73497804 0.91394957-73.61857843 9.24855322-22.79776665 25.92131673-40.98073997 47.09625985-51.15865306L657.47860426 20.23940754c44.66380263-21.57679643 95.95759219-0.88194356 114.15360499 46.20601843l104.9655076 271.19882765-55.85998118 26.86845773-104.96550761-271.19882765c-4.86847065-12.48471705-20.44473177-17.30102976-34.19664997-10.78958361L130.52800063 347.75459845c-7.18001626 3.45902054-12.77751284 9.43110604-15.75999937 16.82686656-1.46042265 3.66409613-3.52895962 10.85596646-0.60811431 18.31929524l103.62481113 256.7463333L162.28982256 667.39749483zM880.91497278 1005.36324267L250.88603109 1005.36324267c-50.32056961 0-91.27285978-45.66428698-91.27285978-101.77320384L159.61317131 429.78601745c0-56.11128768 40.95110477-101.77557465 91.27285978-101.77557464l630.02894169 0c50.32175501 0 91.27285978 45.66310158 91.27285978 101.77557464l0 473.80402138C972.18783256 959.69895569 931.23672778 1005.36324267 880.91497278 1005.36324267zM250.88603109 395.8608259c-16.79367514 0-30.42349632 15.19693056-30.42349633 33.92400615L220.46253476 903.59003883c0 18.65595111 13.63100661 33.92163532 30.42349633 33.92163534l630.02894169 0c16.73321933 0 30.42468173-15.26568421 30.42468172-33.92163534L911.3396545 429.78601745c0-18.728261-13.69146239-33.92400615-30.42468172-33.92400613L250.88603109 395.8608259 250.88603109 395.8608259zM396.92355505 712.04588715c-8.33697446 0-16.36811366-5.09132736-20.38427597-13.97833113-5.7184082-12.54872909-1.21741403-27.81915494 10.10086157-34.19783539l261.16316352-147.09964954c11.13453735-6.30992678 24.94809677-1.35847756 30.66887577 11.26256141 5.65558158 12.5510999 1.15695821 27.82034036-10.10086156 34.12789633L407.14769905 709.32893202C403.86056266 711.16275819 400.39205886 712.04588715 396.92355505 712.04588715zM492.88233265 846.31942212c-7.9706834 0-15.70072896-4.61360795-19.89825869-12.89131199-6.20561088-12.21325862-2.370816-27.68401843 8.5811685-34.66962778l267.00366875-168.74638502c10.71016128-6.92159732 24.82599974-2.7110281 31.09206644 9.63499622 6.26962293 12.21325862 2.37318683 27.68401843-8.64043892 34.67199859L504.07732579 843.06429177C500.5483662 845.30234206 496.71594211 846.31942212 492.88233265 846.31942212z" p-id="1968"></path></svg>