<?xml version="1.0" standalone="no"?><!DOCTYPE svg PUBLIC "-//W3C//DTD SVG 1.1//EN" "http://www.w3.org/Graphics/SVG/1.1/DTD/svg11.dtd"><svg t="1592818221662" class="icon" viewBox="0 0 1024 1024" version="1.1" xmlns="http://www.w3.org/2000/svg" p-id="2115" xmlns:xlink="http://www.w3.org/1999/xlink" width="200" height="200"><defs><style type="text/css"></style></defs><path d="M512 4.454C231.69 4.454 4.454 231.69 4.454 512S231.69 1019.547 512 1019.547 1019.547 792.31 1019.547 512 792.31 4.454 512 4.454z m0 952.065C266.499 956.519 67.481 757.501 67.481 512S266.499 67.481 512 67.481 956.519 266.499 956.519 512 757.501 956.519 512 956.519z" p-id="2116"></path><path d="M610.411 557.066c48.711-88.565 66.424-172.702 66.424-172.702H512.988v-61.996h194.844v-26.57H512.989v-92.994h-88.565v92.994H247.293v26.57h177.131v61.996H273.863v26.57h305.551c0 4.428 0 4.428-4.428 8.857 0 30.998-22.141 75.281-39.854 110.707-225.842-88.565-292.266-35.426-309.979-26.57-150.561 106.278-8.857 239.127 13.285 234.698 159.418 35.426 261.268-30.998 332.12-115.135 4.428 4.428 8.857 4.428 13.285 4.428 48.711 26.57 283.409 137.276 283.409 137.276V632.347c-35.427 0-163.847-44.283-256.841-75.281z m-115.135 39.855c-110.707 141.705-243.555 97.422-265.696 88.565-53.139-13.285-70.852-110.707-4.428-141.705 110.707-35.426 208.129 4.428 278.981 39.854-4.428 8.858-8.857 13.286-8.857 13.286z" p-id="2117"></path></svg>