<?xml version="1.0" standalone="no"?><!DOCTYPE svg PUBLIC "-//W3C//DTD SVG 1.1//EN" "http://www.w3.org/Graphics/SVG/1.1/DTD/svg11.dtd"><svg t="1691389943021" class="icon" viewBox="0 0 1024 1024" version="1.1" xmlns="http://www.w3.org/2000/svg" p-id="5803" xmlns:xlink="http://www.w3.org/1999/xlink" width="200" height="200"><path d="M736 88c70.692 0 128 57.308 128 128v592c0 69.986-56.167 126.853-125.883 127.983L736 936H288c-70.692 0-128-57.308-128-128V216c0-70.692 57.308-128 128-128h448z m0 656H288c-35.346 0-64 28.654-64 64 0 34.993 28.084 63.426 62.942 63.991L288 872h448a65.248 65.248 0 0 0 6.254-0.302l0.571-0.058a64.085 64.085 0 0 0 3.471-0.464l0.9-0.152 1.11-0.206 0.784-0.158 0.758-0.162 0.49-0.11c0.345-0.08 0.688-0.16 1.03-0.245l-0.716 0.172 0.42-0.1 0.419-0.102 0.784-0.2 0.61-0.164 0.834-0.234 0.904-0.267 0.556-0.171 0.455-0.145 0.504-0.165 0.562-0.189 0.857-0.3 0.472-0.17 0.403-0.15 0.542-0.205 0.47-0.183 0.933-0.376 0.436-0.182 0.44-0.187 0.454-0.197 0.444-0.197 0.478-0.217 0.37-0.17 0.54-0.256 0.338-0.162 0.527-0.258 0.458-0.23 0.84-0.433 0.445-0.236 0.532-0.288 0.718-0.399 0.431-0.245 0.528-0.307 0.867-0.518 0.804-0.498 0.846-0.541 0.761-0.503 0.404-0.273 0.422-0.291 0.79-0.557 0.736-0.536 0.441-0.329 0.45-0.342 0.688-0.534 0.452-0.359 0.73-0.593 0.733-0.616 0.376-0.323 0.72-0.633 0.691-0.625 0.445-0.412 0.672-0.637 0.334-0.325 0.422-0.415 0.673-0.68 0.628-0.653 0.33-0.352 0.347-0.373 0.349-0.382 0.628-0.705 0.32-0.366 0.65-0.763 0.267-0.322 0.624-0.766 0.333-0.419 0.56-0.72 0.331-0.437 0.323-0.433 0.524-0.72 0.346-0.485 0.48-0.693 0.287-0.422 0.314-0.472 0.248-0.378 0.27-0.418 0.276-0.437 0.45-0.727 0.337-0.56 0.516-0.884 0.439-0.777 0.478-0.877 0.225-0.425 0.23-0.442 0.458-0.906 0.401-0.824 0.277-0.587 0.372-0.815 0.196-0.442 0.392-0.912 0.192-0.46 0.177-0.435 0.234-0.59 0.313-0.817 0.325-0.885 0.192-0.543 0.314-0.925 0.155-0.473 0.158-0.497 0.287-0.94 0.166-0.569 0.246-0.883 0.139-0.522 0.101-0.39 0.137-0.549c0.322-1.311 0.604-2.639 0.844-3.98l0.144-0.84a63.887 63.887 0 0 0 0.557-4.264l0.088-0.985 0.031-0.406 0.048-0.676c0.088-1.378 0.133-2.767 0.133-4.167 0-34.993-28.084-63.426-62.942-63.991L736 744z m-323 48v32h-70v-32h70z m134 0v32h-70v-32h70z m134 0v32h-70v-32h70z m55-640H288c-34.993 0-63.426 28.084-63.991 62.942L224 216v481.124C242.828 686.234 264.686 680 288 680h448c23.315 0 45.173 6.233 64 17.124V216c0-34.993-28.084-63.426-62.942-63.991L736 152zM570.358 276L506.85 385.999h121.984l-100.46 174h-73.899l63.508-110H396l36.416-63.075 0.001-0.924 0.533-0.001L496.458 276h73.9z" fill="currentColor" p-id="5804"></path></svg>