<?xml version="1.0" standalone="no"?><!DOCTYPE svg PUBLIC "-//W3C//DTD SVG 1.1//EN" "http://www.w3.org/Graphics/SVG/1.1/DTD/svg11.dtd"><svg class="icon" width="200px" height="200.00px" viewBox="0 0 1024 1024" version="1.1" xmlns="http://www.w3.org/2000/svg"><path d="M512 512m-406.22899567 0a406.22899567 406.22899567 0 1 0 812.45799134 0 406.22899567 406.22899567 0 1 0-812.45799134 0Z" fill="#F4EDFF" /><path d="M899.9715126 388.76198984c11.41092668 38.79715126 18.25748304 79.87648767 18.25748307 123.23801016 0 223.65416604-182.57482961 406.22899567-406.22899567 406.22899567S105.77100433 737.93635212 105.77100433 512 286.06364788 105.77100433 512 105.77100433c22.82185335 0 45.64370764 2.28218514 68.465561 6.84655545l11.41092667-70.74774613C564.49026307 37.3054424 539.38622459 32.74107211 512 32.74107211 247.26649661 32.74107211 32.74107211 247.26649661 32.74107211 512s214.52542452 479.25892789 479.25892789 479.25892789 479.25892789-214.52542452 479.25892789-479.25892789c0-52.49026307-9.12874154-102.69834196-25.10403944-148.34204867L899.9715126 388.76198984zM372.78669193 249.54868271l-52.49026309 52.49026308 139.21330809 139.21330808h-114.10926864V512h118.67363893v70.74774613h-118.67363893v70.74774709h118.67363893v118.67363894h95.85178556v-118.67363894h118.67363893v-70.74774709h-118.67363893V512h118.67363893v-70.74774613h-114.10926862l139.21330807-139.21330807-52.49026308-52.49026309-139.21330808 139.21330713-139.21330807-139.21330713z" fill="#954EFF" /><path d="M957.02614693 199.34060382h-205.39668299c-18.25748304 0-34.23278097-15.9752979-34.23278096-34.23278002s15.9752979-34.23278097 34.23278096-34.23278097h205.39668299c18.25748304 0 34.23278097 15.9752979 34.23278096 34.23278097 0 20.53966821-15.9752979 34.23278097-34.23278096 34.23278002z" fill="#954EFF" /><path d="M813.24846855 272.37053606v-205.39668299c0-18.25748304 15.9752979-34.23278097 34.23278097-34.23278096s34.23278097 15.9752979 34.23278097 34.23278096v205.39668299c0 18.25748304-15.9752979 34.23278097-34.23278097 34.23278096s-34.23278097-15.9752979-34.23278097-34.23278096z" fill="#954EFF" /></svg>