<?xml version="1.0" standalone="no"?><!DOCTYPE svg PUBLIC "-//W3C//DTD SVG 1.1//EN" "http://www.w3.org/Graphics/SVG/1.1/DTD/svg11.dtd"><svg t="1582267597726" class="icon" viewBox="0 0 1024 1024" version="1.1" xmlns="http://www.w3.org/2000/svg" p-id="1008" xmlns:xlink="http://www.w3.org/1999/xlink" width="200" height="200"><defs><style type="text/css"></style></defs><path d="M512 19.94600339c-135.92651894 0-258.26038561 57.08913778-345.25335662 144.08210877L90.62779216 85.19073226l-27.18530328 258.26038435 244.66773333-40.77795555-84.27444104-84.27444106c76.11884995-73.40032001 176.70447449-116.8968055 288.16421883-116.8968055 225.63802117 0 407.77955555 182.14153439 407.77955555 407.77955555S737.63802117 919.77955555 512 919.77955555h-40.77795555v81.55591112h81.5559111v-2.71852995C800.16421883 974.15016339 1001.33546667 764.82332445 1001.33546667 506.56293884c0-269.13450667-220.20096-486.61693672-489.33546667-486.61693545zM63.44248888 468.50351449c-21.74824339 0-40.77795555 19.02971216-40.77795555 40.77795556s19.02971216 40.77795555 40.77795555 40.77795556S104.22044445 531.02971216 104.22044445 509.28147005c0-24.46677334-19.02971216-40.77795555-40.77795557-40.77795556z m32.62236446 168.54888213c-5.43706116 0-10.87412105 0-13.59265228 2.71853121-19.02971216 8.15559111-29.9038345 32.62236444-21.74824212 54.37060656 8.15559111 19.02971216 32.62236444 29.9038345 54.37060656 21.7482434 19.02971216-8.15559111 29.9038345-32.62236444 21.74824338-54.37060785-8.15559111-13.59265226-21.74824339-24.46677334-40.77795554-24.46677332z m97.86709333 146.80063999c-10.87412105 0-21.74824339 2.71852995-27.18530329 10.87412234-16.31118222 16.31118222-16.31118222 40.77795555 0 59.80766772 16.31118222 16.31118222 40.77795555 16.31118222 59.80766774 0 16.31118222-16.31118222 16.31118222-40.77795555 0-59.80766772-10.87412105-8.15559111-19.02971216-10.87412105-32.62236445-10.87412234z m146.80064 95.14856339c-16.31118222 0-29.9038345 10.87412105-35.3408944 24.46677333-8.15559111 19.02971216 0 46.21501673 21.74824213 54.37060784 21.74824339 8.15559111 46.21501673-2.71852995 54.37060781-21.74824338 8.15559111-19.02971216 0-46.21501673-21.74824338-54.37060785-8.15559111 0-13.59265226-2.71852995-19.02971216-2.71852994z" p-id="1009"></path><path d="M490.25175661 270.05079662v48.93354665c-48.93354667 16.31118222-81.55591112 62.52619894-81.55591112 111.45974561 0 32.62236444 19.02971216 62.52619894 38.05942563 78.83738117 19.02971216 16.31118222 46.21501673 27.18530327 65.24472888 35.34089439 19.02971216 8.15559111 38.05942561 19.02971216 48.93354667 27.18530329 8.15559111 8.15559111 10.87412105 10.87412105 10.87412106 16.31118222 0 21.74824339-19.02971216 38.05942561-38.05942434 38.05942561-21.74824339 0-38.05942561-16.31118222-38.05942561-38.05942561h-81.5559111c0 54.37060783 32.62236444 95.14856338 81.5559111 111.45974561v48.93354665h81.5559111v-40.77795554c48.93354667-16.31118222 81.55591112-62.52619894 81.55591112-111.45974561 0-32.62236444-19.02971216-62.52619894-38.05942561-78.8373799-19.02971216-16.31118222-40.77795555-27.18530327-62.52619766-35.34089566-19.02971216-10.87412105-35.34089439-19.02971216-48.93354668-27.18530328-10.87412105-8.15559111-10.87412105-10.87412105-10.87412231-16.31118223 0-21.74824339 16.31118222-38.05942561 38.0594256-38.05942561s38.05942561 16.31118222 38.0594256 38.05942561h78.83737989c0-54.37060783-32.62236444-95.14856338-81.5559111-111.45974559v-48.93354666h-81.55591112v-8.15559112z" p-id="1010"></path></svg>
