<?xml version="1.0" standalone="no"?><!DOCTYPE svg PUBLIC "-//W3C//DTD SVG 1.1//EN" "http://www.w3.org/Graphics/SVG/1.1/DTD/svg11.dtd"><svg class="icon" width="200px" height="200.00px" viewBox="0 0 1024 1024" version="1.1" xmlns="http://www.w3.org/2000/svg"><path d="M405.33333333 669.46031746h213.33333334v233.65079365H405.33333333z" fill="#B6BDC6" /><path d="M593.26984127 694.85714286v182.85714285H430.73015873V694.85714286h162.53968254m50.79365079-50.7936508H379.93650794v233.65079365H207.23809524c-14.01904762 0-25.3968254 11.37777778-25.3968254 25.3968254s11.37777778 25.3968254 25.3968254 25.3968254h609.52380952c14.01904762 0 25.3968254-11.37777778 25.3968254-25.3968254s-11.37777778-25.3968254-25.3968254-25.3968254H644.06349206V644.06349206z" fill="#45D890" /><path d="M430.52698413 785.67619048h162.53968254v36.57142857h-162.53968254z" fill="#8F969E" /><path d="M138.15873016 760.88888889c-30.78095238 0-55.87301587-25.09206349-55.87301587-55.87301587V176.76190476c0-30.78095238 25.09206349-55.87301587 55.87301587-55.87301587h747.68253968c30.78095238 0 55.87301587 25.09206349 55.87301587 55.87301587v528.25396826c0 30.78095238-25.09206349 55.87301587-55.87301587 55.87301587H138.15873016z" fill="#8BECEF" /><path d="M885.84126984 146.28571429c8.02539683 0 15.64444444 3.14920635 21.43492064 9.04126984 5.79047619 5.79047619 9.04126984 13.40952381 9.04126984 21.43492063v528.25396826c0 8.02539683-3.14920635 15.64444444-9.04126984 21.43492063-5.79047619 5.79047619-13.40952381 9.04126984-21.43492064 9.04126984H138.15873016c-8.02539683 0-15.64444444-3.14920635-21.43492064-9.04126984-5.79047619-5.79047619-9.04126984-13.40952381-9.04126984-21.43492063V176.76190476c0-8.02539683 3.14920635-15.64444444 9.04126984-21.43492063 5.79047619-5.79047619 13.40952381-9.04126984 21.43492064-9.04126984h747.68253968m0-50.7936508H138.15873016c-44.6984127 0-81.26984127 36.57142857-81.26984127 81.26984127v528.25396826c0 44.6984127 36.57142857 81.26984127 81.26984127 81.26984127h747.68253968c44.6984127 0 81.26984127-36.57142857 81.26984127-81.26984127V176.76190476c0-44.6984127-36.57142857-81.26984127-81.26984127-81.26984127z" fill="#45D890" /><path d="M138.15873016 760.88888889c-30.78095238 0-55.87301587-25.09206349-55.87301587-55.87301587V600.38095238h859.42857142v104.63492064c0 30.78095238-25.09206349 55.87301587-55.87301587 55.87301587H138.15873016z" fill="#E5E5E5" /><path d="M916.31746032 625.77777778v79.23809524c0 8.02539683-3.14920635 15.64444444-9.04126984 21.43492063-5.79047619 5.79047619-13.40952381 9.04126984-21.43492064 9.04126984H138.15873016c-8.02539683 0-15.64444444-3.14920635-21.43492064-9.04126984-5.79047619-5.79047619-9.04126984-13.40952381-9.04126984-21.43492063v-79.23809524h808.63492064m50.79365079-50.7936508H56.88888889v130.03174604c0 44.6984127 36.57142857 81.26984127 81.26984127 81.26984127h747.68253968c44.6984127 0 81.26984127-36.57142857 81.26984127-81.26984127V574.98412698z" fill="#45D890" /><path d="M486.6031746 682.66666667a25.3968254 25.3968254 0 1 0 50.7936508 0 25.3968254 25.3968254 0 1 0-50.7936508 0z" fill="#45D890" /><path d="M228.26666667 146.28571429h58.61587301l182.14603175 315.42857142c5.58730159 9.65079365 2.23492063 22.14603175-7.41587302 27.73333334l-8.83809524 5.07936508c-9.65079365 5.58730159-22.14603175 2.23492063-27.73333333-7.41587302L228.26666667 146.28571429z m55.97460317 300.08888888c5.58730159 9.65079365 18.08253968 13.0031746 27.73333333 7.41587302l8.83809524-5.07936508c9.65079365-5.58730159 13.0031746-18.08253968 7.41587302-27.73333333L169.65079365 146.28571429h-31.49206349c-9.85396825 0-17.37142857 4.67301587-21.84126984 9.24444444l167.92380952 290.84444444z" fill="#CBEFEE" /></svg>