<svg width="16" height="16" viewBox="0 0 16 16" fill="none" xmlns="http://www.w3.org/2000/svg">
<g id="16px/&#231;&#186;&#191;&#230;&#128;&#167;/Input/icon-question-circle">
<path id="Combined Shape" fill-rule="evenodd" clip-rule="evenodd" d="M8.1665 1.66602C11.7564 1.66602 14.6665 4.57616 14.6665 8.16602C14.6665 11.7559 11.7564 14.666 8.1665 14.666C4.57665 14.666 1.6665 11.7559 1.6665 8.16602C1.6665 4.57616 4.57665 1.66602 8.1665 1.66602ZM8.1665 2.84783C5.22935 2.84783 2.84832 5.22886 2.84832 8.16602C2.84832 11.1032 5.22935 13.4842 8.1665 13.4842C11.1037 13.4842 13.4847 11.1032 13.4847 8.16602C13.4847 5.22886 11.1037 2.84783 8.1665 2.84783ZM8.46196 10.5297C8.62513 10.5297 8.75741 10.6619 8.75741 10.8251V11.416C8.75741 11.5792 8.62513 11.7115 8.46196 11.7115H7.87105C7.70787 11.7115 7.57559 11.5792 7.57559 11.416V10.8251C7.57559 10.6619 7.70787 10.5297 7.87105 10.5297H8.46196ZM8.08259 4.62056C8.785 4.62056 9.36852 4.79066 9.83317 5.13087C10.2978 5.47107 10.5301 5.97507 10.5301 6.64288C10.5301 7.05239 10.4291 7.39731 10.2271 7.67767C10.109 7.84777 9.88212 8.06512 9.54646 8.32972L9.21545 8.5896C9.03519 8.73135 8.91553 8.89673 8.85648 9.08573C8.84041 9.13731 8.82629 9.2332 8.81411 9.37339C8.80086 9.52609 8.67304 9.64329 8.51976 9.64329H7.8583C7.69512 9.64329 7.56284 9.51101 7.56284 9.34783C7.56284 9.33875 7.56326 9.32966 7.5641 9.32061C7.60214 8.9094 7.64288 8.64919 7.68632 8.53999C7.76713 8.33681 7.97536 8.10292 8.31103 7.83832L8.65135 7.56899C8.76324 7.48394 9.33979 7.07794 9.33979 6.71848C9.33979 6.35902 9.27717 6.22681 9.09669 6.02953C8.91621 5.83225 8.50994 5.76875 8.14319 5.76875C7.78266 5.76875 7.47458 5.86449 7.32384 6.10705C7.25402 6.21938 7.19694 6.33923 7.15576 6.4615C7.13956 6.50961 7.12521 6.57013 7.1127 6.64306C7.08838 6.7849 6.96541 6.88858 6.8215 6.88858H6.1259C5.96272 6.88859 5.83044 6.75631 5.83044 6.59313C5.83044 6.58198 5.83107 6.57084 5.83233 6.55975C5.83984 6.49371 5.84753 6.43877 5.8554 6.39492C5.97059 5.75344 6.26233 5.28169 6.73061 4.97966C7.09735 4.74026 7.54801 4.62056 8.08259 4.62056Z" fill="#4E5969"/>
</g>
</svg>
