<?xml version="1.0" standalone="no"?><!DOCTYPE svg PUBLIC "-//W3C//DTD SVG 1.1//EN" "http://www.w3.org/Graphics/SVG/1.1/DTD/svg11.dtd"><svg class="icon" width="200px" height="200.00px" viewBox="0 0 1024 1024" version="1.1" xmlns="http://www.w3.org/2000/svg"><path d="M387.09082513 114.18079249c19.31871089 0 34.98135424-15.66378912 34.98135422-34.98135425L422.07217824 45.07193056c0-19.31871089-15.66378912-34.98135424-34.98135424-34.98135424s-34.98135424 15.66378912-34.98135425 34.98135424l0 34.12750768C352.10832512 98.51814912 367.77211312 114.18079249 387.09082513 114.18079249z"  /><path d="M636.79800368 114.18079249c19.31871089 0 34.98135424-15.66378912 34.98135425-34.98135425L671.7793568 45.07193056c0-19.31871089-15.66378912-34.98135424-34.98135425-34.98135424-19.31871089 0-34.9825 15.66378912-34.98249999 34.98135424l0 34.12750768C601.81550367 98.51814912 617.47929168 114.18079249 636.79800368 114.18079249z"  /><path d="M418.70607423 192.67394401c12.55441152 20.21267136 47.01314239 54.42040577 96.49613681 54.42040575 49.23314368 0 84.11249504-33.951008 96.96374688-54.0101016 10.41922224-16.27236912 5.67664832-37.90850112-10.58999088-48.32772224-16.29529216-10.42495216-37.90850112-5.67664832-48.32772223 10.58999088-0.13638576 0.22234352-14.98529648 21.78397872-38.04488689 21.78397872-22.40975072 0-36.33719376-20.30321328-37.27126816-21.69802096-10.26564448-16.15317536-31.67370079-21.060788-47.96899296-10.9315304C413.54746512 154.69782288 408.50919663 176.265188 418.70607423 192.67394401z"  /><path d="M792.30583504 95.74458c-16.01105856-10.81233552-37.76065328-6.60499168-48.56725777 9.40606688-10.81806545 16.00532752-6.60499168 37.75492336 9.4060669 48.56725776 119.12250112 80.47476416 190.24277328 214.22383135 190.24277328 357.77895552 0 226.10548015-174.87697136 412.0159848-396.46222225 429.89748256L546.9251952 664.19559375c55.70404112-15.38070127 96.78151728-66.37655136 96.78151728-126.90568687 0-72.65719552-59.10567487-131.7628704-131.76287039-131.7628704s-131.76860144 59.10567487-131.76860145 131.7628704c0 60.53028127 41.08091344 111.5249856 96.7872472 126.90568687l0 277.19875008C255.37723584 923.51284608 80.50026448 737.60234144 80.50026448 511.49686128c0-143.5539784 71.1191264-277.30419136 190.23704336-357.77895552 16.01105856-10.81233552 20.22413232-32.56193023 9.40606688-48.56725776-10.81233552-16.01105856-32.56193023-20.2184024-48.56725776-9.40606688C93.16928672 189.24709681 10.53641136 344.66667776 10.53641136 511.49686128c0 276.47326672 224.92843296 501.40169968 501.4074296 501.40169968s501.4074296-224.92843296 501.40742959-501.40169968C1013.35127055 344.66667776 930.71954096 189.24709681 792.30583504 95.74458zM450.13909376 537.28876112c0-34.07707856 27.72766865-61.79901728 61.8047472-61.79901727s61.79901728 27.72193759 61.79901728 61.79901727c0 34.07707856-27.72193759 61.8047472-61.79901728 61.8047472S450.13909376 571.36583967 450.13909376 537.28876112z"  /><path d="M374.52151424 768.09899504c4.44687936 1.87846288 9.06452849 2.77242336 13.60767968 2.77242336 13.63633265 0 26.58958848-8.02272017 32.23758384-21.36794352 7.52187408-17.79324847-0.80227168-38.31880529-18.59552016-45.84526352-67.65789521-28.61589809-111.3794304-94.57183008-111.37943041-168.03129839 0-70.47616241 41.26199839-135.34444224 105.12170817-165.24741409 17.49640704-8.19348991 25.03547312-29.02047232 16.84198321-46.51688049-8.18202895-17.49067711-29.0147424-25.03547312-46.51688049-16.84198319-88.33129985 41.36400128-145.41066511 131.10271553-145.41066512 228.60627777C220.42797296 637.25873696 280.9124104 728.51145265 374.52151424 768.09899504z"  /><path d="M622.11642432 703.65821024c-17.79324847 7.527604-26.11739424 28.05316193-18.59552015 45.84526352 5.64799536 13.34636912 18.60125119 21.36794352 32.23758384 21.36794351 4.54315232 0 9.16080032-0.89396048 13.60767967-2.77242336 93.60910384-39.58868815 154.09354016-130.84025808 154.09354016-232.47208207 0-97.50356224-57.07936528-187.23654544-145.41639504-228.60627776-17.51359903-8.21641183-38.33026625-0.65442496-46.51688048 16.8419832-8.19348991 17.49640704-0.65442496 38.32453632 16.8419832 46.51688048 63.86544079 29.90870287 105.12743808 94.7712528 105.12743808 165.24741408C733.49585472 609.08638016 689.77431951 675.04231216 622.11642432 703.65821024z"  /></svg>
