<?xml version="1.0" standalone="no"?><!DOCTYPE svg PUBLIC "-//W3C//DTD SVG 1.1//EN" "http://www.w3.org/Graphics/SVG/1.1/DTD/svg11.dtd"><svg class="icon" width="200px" height="200.00px" viewBox="0 0 1024 1024" version="1.1" xmlns="http://www.w3.org/2000/svg"><path d="M699.15429674 782.21093764c-7.75195313-2.21484347-13.28906278-9.9667966-11.07421835-17.71874973 1.10742174-7.75195313 8.85937486-12.18164104 16.611328-11.0742193 58.69335979 11.07421835 106.31250028 27.68554729 139.53515625 46.51171876 36.54492215 19.93359416 56.47851535 45.40429701 56.47851535 71.98242159 0 40.9746091-45.40429701 75.30468778-119.60156209 99.66796889-68.66015639 22.14843764-163.89843736 36.54492215-269.1035159 36.54492216s-200.44335951-14.39648451-269.1035159-36.54492216C168.69921903 947.21679674 123.29492201 912.88671903 123.29492201 871.91210896c0-26.57812459 21.0410159-52.0488284 57.58593709-73.08984333 33.22265597-18.82617146 81.94921916-34.33007771 141.75000069-45.40429702 7.75195313-2.21484347 15.50390625 3.32226521 16.61132799 11.0742193s-3.32226521 15.50390625-11.07421931 16.61132799c-56.47851535 9.9667966-101.88281236 25.47070285-132.89062486 43.18945257-27.68554729 15.50390625-43.18945354 32.11523423-43.18945257 47.61914049 0 26.57812459 37.65234389 52.0488284 99.66796792 71.98242257 66.44531291 22.14843764 158.36132771 35.43750041 260.24414104 35.43749944s193.79882813-13.28906278 260.24414104-35.43749944c62.015625-19.93359416 99.66796889-45.40429701 99.66796792-71.98242257 0-15.50390625-14.39648451-32.11523423-42.08203084-47.61914049-29.90039076-17.71874972-75.30468778-32.11523423-130.67578138-42.08203083z m49.83398492-193.79882813L534.14843764 803.25195354c-6.64453139 5.53710965-14.39648451 8.85937486-22.14843764 8.85937486s-15.50390625-3.32226521-22.14843764-8.85937486L275.01171834 588.41210951c-65.33789021-65.33789021-97.45312541-151.71679729-97.45312445-238.0957034 0-85.27148438 32.11523423-171.65039049 97.45312445-236.9882807S425.62109389 15.87499999 512 15.87499999s171.65039049 32.11523423 236.98828166 97.45312542 97.45312541 151.71679729 97.45312445 236.9882807c0 86.37890611-32.11523423 172.75781222-97.45312445 238.0957034zM512 226.28515611c33.22265597 0 63.12304674 13.28906278 85.27148438 35.43750042 21.0410159 22.14843764 34.33007771 52.0488284 34.33007771 85.27148437 0 32.11523423-13.28906278 63.12304674-34.33007772 84.16406264-22.14843764 22.14843764-52.0488284 35.43750041-85.27148437 35.43749945s-63.12304674-13.28906278-85.27148438-35.43749945c-21.0410159-21.0410159-34.33007771-52.0488284-34.33007771-84.16406264 0-33.22265597 13.28906278-63.12304674 34.33007772-85.27148437 22.14843764-22.14843764 52.0488284-35.43750041 85.27148437-35.43750042z m64.23046847 55.37109361c-16.61132799-15.50390625-38.75976563-26.57812459-64.23046847-26.57812458s-47.61914049 11.07421835-64.23046847 26.57812458c-16.61132799 16.61132799-26.57812459 39.86718736-26.57812556 65.33789118 0 24.36328111 9.9667966 47.61914049 26.57812556 64.23046848s38.75976563 26.57812459 64.23046847 26.57812459 47.61914049-9.9667966 64.23046847-26.57812459 26.57812459-39.86718736 26.57812556-64.23046848c0-25.47070285-9.9667966-48.72656222-26.57812556-65.33789118z m-63.12304673 501.66210965l215.94726576-215.94726576c59.80078153-59.80078153 88.59374959-138.42773451 88.59374959-217.0546875s-28.79296903-156.14648424-88.59374959-215.94726576-138.42773451-89.70117229-217.0546875-89.70117132-157.25390597 29.90039076-217.0546875 89.70117132-88.59374959 137.32031278-88.59374959 215.94726576 28.79296903 157.25390597 88.59374959 217.0546875l215.94726576 215.94726576h2.21484348z" fill="#2a2a2a" /><path d="M513.10742174 783.31835938l215.94726576-215.94726577c59.80078153-59.80078153 88.59374959-138.42773451 88.59374959-217.0546875s-28.79296903-156.14648424-88.59374959-215.94726576-138.42773451-89.70117229-217.0546875-89.70117132-157.25390597 29.90039076-217.0546875 89.70117132-88.59374959 137.32031278-88.59374959 215.94726576 28.79296903 157.25390597 88.59374959 217.0546875l215.94726576 215.94726576h2.21484348z m-1.10742174-557.03320327c33.22265597 0 63.12304674 13.28906278 85.27148438 35.43750042 21.0410159 22.14843764 34.33007771 52.0488284 34.33007771 85.27148437 0 32.11523423-13.28906278 63.12304674-34.33007772 84.16406264-22.14843764 22.14843764-52.0488284 35.43750041-85.27148437 35.43749945s-63.12304674-13.28906278-85.27148438-35.43749945c-21.0410159-21.0410159-34.33007771-52.0488284-34.33007771-84.16406264 0-33.22265597 13.28906278-63.12304674 34.33007772-85.27148437 22.14843764-22.14843764 52.0488284-35.43750041 85.27148437-35.43750042z" fill="#ffcf1c" /></svg>