<?xml version="1.0" standalone="no"?><!DOCTYPE svg PUBLIC "-//W3C//DTD SVG 1.1//EN" "http://www.w3.org/Graphics/SVG/1.1/DTD/svg11.dtd"><svg t="1638172522877" class="icon" viewBox="0 0 1024 1024" version="1.1" xmlns="http://www.w3.org/2000/svg" p-id="3310" xmlns:xlink="http://www.w3.org/1999/xlink" width="200" height="200"><defs><style type="text/css"></style></defs><path d="M507.67820038 241.67858629c1.8522 1.18540801 3.45744037 2.56838438 4.86511125 4.09953676a24.69599961 24.69599961 0 0 1 38.50106438 3.30926324l93.07922361 139.90284075 157.38760875-45.36655274a24.69599961 24.69599961 0 0 1 31.11696001 28.22752799l-76.23655201 410.966136a24.69599961 24.69599961 0 0 1-24.27616837 20.20132837H291.884552a24.69599961 24.69599961 0 0 1-24.27616837-20.20132837l-76.23655201-410.966136a24.69599961 24.69599961 0 0 1 30.99348076-28.27691924l160.77096 45.44063962 90.38736-139.97692762a24.69599961 24.69599961 0 0 1 34.154568-7.35940876zM303.26940839 704.23466705l9.13751961 49.39199924h399.16144838l65.19744001-351.473472-136.34661678 39.29133676a24.69599961 24.69599961 0 0 1-27.41255998-10.02657676l-100.68559201-151.361784-97.54919924 151.065432a24.69599961 24.69599961 0 0 1-27.48664799 10.37232l-140.10040801-39.58768762L294.107192 654.84266667H635.48000037a24.69599961 24.69599961 0 0 1 0 49.39200038H303.26940839zM701.07257601 50.2351943a24.69599961 24.69599961 0 0 1-18.91713563 45.61351237A443.09563237 443.09563237 0 0 0 512 62.13866667C266.49706363 62.13866667 67.472 261.1637303 67.472 506.66666667s199.02506363 444.528 444.528 444.528 444.528-199.02506363 444.528-444.528c0-59.17161638-11.557728-116.6886-33.71004-170.15544038a24.69599961 24.69599961 0 0 1 45.61351237-18.91713563A492.48763162 492.48763162 0 0 1 1005.92000039 506.66666667c0 272.792016-221.12798438 493.92000039-493.92000039 493.92000039S18.07999961 779.45868267 18.07999961 506.66666667 239.207984 12.74666628 512 12.74666628c65.69136038 0 129.654 12.84191962 189.07257601 37.48852802zM512 284.40266667a74.088 74.088 0 1 1 0-148.176 74.088 74.088 0 0 1 0 148.176z m0-49.39200038a24.69599961 24.69599961 0 1 0 0-49.39199925 24.69599961 24.69599961 0 0 0 0 49.39199925z" fill="#3D3D3D" p-id="3311"></path></svg>