<?xml version="1.0" standalone="no"?><!DOCTYPE svg PUBLIC "-//W3C//DTD SVG 1.1//EN" "http://www.w3.org/Graphics/SVG/1.1/DTD/svg11.dtd"><svg t="1594632246923" class="icon" viewBox="0 0 1024 1024" version="1.1" xmlns="http://www.w3.org/2000/svg" p-id="2133" xmlns:xlink="http://www.w3.org/1999/xlink" width="200" height="200"><defs><style type="text/css"></style></defs><path d="M859.136 288.256H712.192l-164.864-156.16c-19.968-18.944-50.688-18.944-70.656 0L312.32 288.256H165.376c-39.424 0-71.68 32.256-71.68 71.68v494.08c0 39.424 32.256 71.68 71.68 71.68h693.76c39.424 0 71.68-32.256 71.68-71.68v-494.08c0-39.424-32.256-71.68-71.68-71.68zM505.344 161.792c4.096-3.584 10.24-3.584 14.336 0L652.8 288.256H371.712l133.632-126.464z m384.512 692.224c0 16.896-13.824 30.72-30.72 30.72h-693.76c-16.896 0-30.72-13.824-30.72-30.72v-494.08c0-16.896 13.824-30.72 30.72-30.72h693.76c16.896 0 30.72 13.824 30.72 30.72v494.08z" fill="#231815" p-id="2134"></path><path d="M783.36 494.592H240.64c-11.264 0-20.48 9.216-20.48 20.48s9.216 20.48 20.48 20.48h542.72c11.264 0 20.48-9.216 20.48-20.48s-8.704-20.48-20.48-20.48z m0 182.784H240.64c-11.264 0-20.48 9.216-20.48 20.48s9.216 20.48 20.48 20.48h542.72c11.264 0 20.48-9.216 20.48-20.48s-8.704-20.48-20.48-20.48z" fill="#231815" p-id="2135"></path></svg>