<?xml version="1.0" standalone="no"?><!DOCTYPE svg PUBLIC "-//W3C//DTD SVG 1.1//EN" "http://www.w3.org/Graphics/SVG/1.1/DTD/svg11.dtd"><svg t="1583121316061" class="icon" viewBox="0 0 1028 1024" version="1.1" xmlns="http://www.w3.org/2000/svg" p-id="2814" xmlns:xlink="http://www.w3.org/1999/xlink" width="200.78125" height="200"><defs><style type="text/css"></style></defs><path d="M429.2 213.3l85.8-148.7 85.8 148.7z" fill="#38C9E5" p-id="2815"></path><path d="M0 959.4l85.7-148.7 85.9 148.7z" fill="#2ED7FF" p-id="2816"></path><path d="M856.8 959.4l85.8-148.7 85.8 148.7z" fill="#00EACA" p-id="2817"></path><path d="M460.7 512.2V666H307V512.2h153.7m30-30H277V696h213.8V482.2h-0.1zM460.9 772.6v153.8H307.1V772.6h153.8m30-30H277.1v213.8h213.8V742.6zM721.3 772.6v153.8H567.5V772.6h153.8m30-30H537.5v213.8h213.8V742.6z" fill="#545EFB" p-id="2818"></path><path d="M490.7 482l-12-29H292.4l-16.9 29zM657.9 410.9l-167.3 166v-39.3l146.8-147.2z" fill="#C7C9FD" p-id="2819"></path><path d="M784.4 577.4l-0.3-33.1v-6.7L637.4 390.4l-20.6 20.5 167 167zM491.5 742.6H276.1l10.9-29.2h193.6zM752.1 742.6H536.7l10.9-29.2H741.2z" fill="#C7C9FD" p-id="2820"></path><path d="M490.627 576.953L637.35 430.23l146.724 146.723L637.35 723.676z" fill="#545EFB" p-id="2821"></path></svg>