<?xml version="1.0" standalone="no"?><!DOCTYPE svg PUBLIC "-//W3C//DTD SVG 1.1//EN" "http://www.w3.org/Graphics/SVG/1.1/DTD/svg11.dtd"><svg class="icon" width="200px" height="200.00px" viewBox="0 0 1024 1024" version="1.1" xmlns="http://www.w3.org/2000/svg"><path d="M984.61088 697.56709334l-946.02816-4.2084h-0.08064a20.2104 20.2104 0 0 0-0.0756 40.41576l454.95072 2.016-0.97272 220.35384a20.19024 20.19024 0 0 0 20.12976 20.286h0.08064a20.21544 20.21544 0 0 0 20.20536-20.12976l0.96768-220.31856 450.69192 1.99584h0.08064a20.21544 20.21544 0 0 0 20.2104-20.12472 20.24064 20.24064 0 0 0-20.16-20.286z" fill="#D9FAF9" /><path d="M512.57192187 953.18833334h-0.07579687c-6.98807813-0.03346875-13.5174375-2.764125-18.41371875-7.70175s-7.57378125-11.48667188-7.54129687-18.43635938l0.88298437-199.49442187-419.42840625-1.86145313c-7.20070313-0.0118125-13.710375-2.961-18.396-7.7135625-4.64821875-4.66298437-7.53046875-11.11260937-7.53046875-18.23554687 0-0.06595313 0-0.13289063 0.00098438-0.19982813 0.070875-14.28721875 11.74654687-25.91564063 26.02982812-25.91564062l887.01440625 3.945375c14.34825 0.09154687 25.94517187 11.74457812 25.94517188 26.10464062 0 0.00689063 0 0.01378125 0 0.02067188-0.070875 14.30592187-11.74654687 25.93532813-26.03475 25.93532812l-415.540125-1.8388125-0.8780625 199.4619375c-0.08071875 14.30198437-11.75639062 25.93139062-26.03475 25.93139063zM68.1374375 687.80378646c-6.54314063 0.00295313-11.85089062 5.28117188-11.90207812 11.8125-0.01378125 3.17067188 1.19995313 6.15135937 3.43054687 8.39179688 2.23059375 2.25323438 5.21128125 3.4965 8.386875 3.51028125l433.59946875 1.92346875-0.945 213.66942187c0 0.02559375 0 0.05709375 0 0.08760938 0 3.24154688 1.31020312 6.17695313 3.43153125 8.30517187 2.1380625 2.16365625 5.10496875 3.504375 8.38589063 3.50634375l0.04331249 7.0875v-7.0875c6.52739063-0.02165625 11.81545312-5.29692188 11.85482813-11.81840625l0.94007812-213.63595312 429.61176563 1.89885937c6.54117187-0.00295313 11.84892188-5.27920313 11.90207812-11.80757812-0.00295313-6.55396875-5.29298437-11.86664063-11.8321875-11.90798438l-886.90514062-3.93553125z" fill="#00D9D2" /><path d="M764.73335937 114.11692709h-514.51312499c-32.74228125 0-59.40407812 26.641125-59.40407813 59.40407812v414.15215625h633.29273438v-414.15215625c0-32.76196875-26.641125-59.40407812-59.3775-59.40407812zM430.4425625 280.66628646l-104.48353125 162.30375c-2.82220313 4.33420312-7.64465625 7.15935937-13.12664063 7.15935938-0.00984375 0-0.02067188 0-0.03149999 0-0.00689063 0-0.01575 0-0.023625 0-3.1224375 0-6.0283125-0.92334375-8.46168751-2.512125-4.27415625-2.79267188-7.095375-7.6190625-7.09537499-13.104 0-3.13523438 0.921375-6.05390625 2.51015625-8.50007813l104.44710937-162.24173437c2.81728125-4.34010937 7.64170313-7.17215625 13.127625-7.17215625 3.14015625 0 6.06571875 0.92826562 8.51189062 2.52492187 4.27710937 2.78775 7.10620313 7.61217187 7.10620313 13.1000625 0 3.13621875-0.92334375 6.05685937-2.51507813 8.505zM575.49120312 286.72511459l-104.46482812 162.280125c-2.82121875 4.33420312-7.6426875 7.16034375-13.1236875 7.16034375-0.00885937 0-0.0196875 0-0.02953125 0-0.00689063 0-0.01279687 0-0.02165625 0-3.1224375 0-6.03126562-0.92334375-8.465625-2.512125-4.27317188-2.79464062-7.09439062-7.62201563-7.09439063-13.1079375 0-3.13523438 0.921375-6.05390625 2.5081875-8.5010625l104.42742188-162.22303125c2.82121875-4.339125 7.646625-7.16920313 13.13254687-7.16920313 3.14015625 0 6.06375 0.92728125 8.51189063 2.52295313 4.27514062 2.78971875 7.10029687 7.615125 7.10029687 13.10104687 0 3.1381875-0.9253125 6.06178125-2.51803125 8.51090625z" fill="#D9FAF9" /><path d="M873.75485938 607.62348959h-733.83581251v-477.85696875c0-40.9303125 33.30239063-74.23270313 74.23270313-74.23270313h585.40092187c40.91160937 0 74.2021875 33.30239063 74.2021875 74.23270313v477.85696875zM153.20810937 594.33442709h707.25768751v-464.56790625c0-33.60360937-27.32625-60.94364063-60.913125-60.94364063h-585.40092188c-33.60360937 0-60.94364063 27.34003125-60.94364062 60.94364063v464.56790625zM450.41946875 457.99848959c-0.00590625 0-0.01082812 0-0.01870313 0-4.89135938 0-9.44507813-1.44407813-13.25854687-3.92864063-11.17954687-7.2331875-14.466375-22.36204687-7.24204687-33.665625l118.86623437-184.65989062c4.40704688-6.78825 11.94932812-11.21498438 20.52520312-11.21498438 4.914 0 9.48839062 1.45392188 13.31859375 3.95325 11.21104687 7.21645313 14.49295313 22.35220312 7.22432813 33.67448438l-118.86623438 184.64709375c-4.39917188 6.77545313-11.92767188 11.19332813-20.48976562 11.19332812-0.02067188 0-0.04134375 0-0.06201563 0zM569.32015625 237.82038021c-3.80460938 0-7.31390625 1.913625-9.38601563 5.12564063l-118.84851562 184.63429687c-1.09364062 1.69804688-1.74332812 3.772125-1.74332812 5.99779688 0 3.91190625 2.008125 7.35623437 5.04984375 9.3555 5.02621875 3.22875 12.17475 1.67835938 15.40842187-3.32817188l118.84851563-184.63429687c1.10151562-1.69903125 1.75710937-3.7760625 1.75710937-6.00665625 0-6.13560937-4.95632812-11.11064063-11.08209375-11.14509375zM285.35946875 451.13247396c-0.00295313 0-0.00689063 0-0.007875 0-4.89529687 0-9.45492188-1.44604688-13.27134375-3.9335625-6.6661875-4.38046875-11.0683125-11.9266875-11.0683125-20.5025625 0-4.88348438 1.42832813-9.43425 3.89025-13.25559375l118.83375-184.5860625c4.40704688-6.7843125 11.94735938-11.20907813 20.52126563-11.20907812 4.90809375 0 9.4775625 1.44998438 13.30382812 3.94439062 6.68095313 4.36767188 11.09489063 11.91389063 11.09489063 20.49271875 0 4.89628125-1.43915625 9.457875-3.91584375 13.28217188l-118.82685938 184.57326562c-4.40409375 6.7764375-11.93751563 11.19332813-20.50157812 11.19332813-0.01870313 0-0.03642187 0-0.05414063 0zM404.27 230.93270834c-3.80067188 0-7.2961875 1.913625-9.35451562 5.11185937l-118.88789063 184.66579688c-1.09265625 1.69804688-1.74135937 3.772125-1.74135938 5.9968125 0 3.91190625 2.00714063 7.35721875 5.047875 9.35746875 5.00751562 3.22875 12.19246875 1.66064063 15.40842188-3.32817188l118.87509375-184.65496875c1.1025-1.70001563 1.75809375-3.77901562 1.75809375-6.01157812 0-3.90796875-2.01009375-7.34540625-5.0518125-9.33778125-1.74135937-1.13695313-3.82232812-1.79746875-6.05784375-1.79746875z" fill="#00D9D2" /></svg>