<svg width="13" height="12" viewBox="0 0 13 12" fill="none" xmlns="http://www.w3.org/2000/svg">
<path fill-rule="evenodd" clip-rule="evenodd" d="M1.41663 1.25H6.66663V6.5H1.41663V1.25ZM2.41663 2.25V5.5H5.66663V2.25H2.41663ZM7.66663 1.25H10.9166V4.5H7.66663V1.25ZM8.66663 2.25V3.5H9.91663V2.25H8.66663ZM3.16663 3H4.91663V4.75H3.16663V3ZM9.41663 5.5H10.9166V6.5H9.41663V5.5ZM1.41663 7.5H4.66663V10.75H1.41663V7.5ZM7.66663 5.5H8.66663V6.5H7.66663V5.5ZM2.41663 8.5V9.75H3.66663V8.5H2.41663ZM7.66663 7.5H10.9166V10.75H7.66663V7.5ZM8.66663 8.5V9.75H9.91663V8.5H8.66663ZM5.66663 8.5V7.5H6.66663V8.5H5.66663ZM5.66663 10.75V9.25H6.66663V10.75H5.66663Z" fill="#C9CDD4"/>
</svg>
