<?xml version="1.0" standalone="no"?><!DOCTYPE svg PUBLIC "-//W3C//DTD SVG 1.1//EN" "http://www.w3.org/Graphics/SVG/1.1/DTD/svg11.dtd"><svg t="1589943583598" class="icon" viewBox="0 0 1821 1024" version="1.1" xmlns="http://www.w3.org/2000/svg" p-id="2205" xmlns:xlink="http://www.w3.org/1999/xlink" width="355.6640625" height="200"><defs><style type="text/css"></style></defs><path d="M1541.34138454 1178.87580276c0 53.86487836-131.56377515 109.87482004-185.42865526 109.87481825H457.84695996c-53.86487836 0-185.42865346-63.16014507-185.42865346-117.26336478l-87.9475236-439.26093701c0-53.86487836 4.76680404-97.71947126 58.6316824-97.71947124h1327.55476044c53.86487836 0 58.6316824 43.61625155 58.63168238 97.71947124l-87.94752358 446.64948354zM534.35415527 65.11217689h745.28972005s17.87551293-229.52158597-74.8388147-328.67109823c-68.40363006-72.93209274-559.62272518-19.54389355-559.62272523-19.54389353s-149.91596898 133.47049709-110.82818012 348.21499176z m0 0" fill="#FFBC00" p-id="2206"></path><path d="M817.02560083 918.60833458l-333.67624184-286.00820678-69.59532972 81.27399757L829.89597013 1078.29624945l570.34803118-692.13986042-82.22735942-68.64196965-500.99104106 601.0939152z m0 0" fill="#FF7700" p-id="2207"></path><path d="M1302.28619049-174.41969629c-28.60082068-84.61076057-81.51233893-162.07131777-181.37686995-162.07131779H692.61203088c-99.62619146 0-152.77605104 77.22221583-181.37687173 162.07131779-197.34566268 13.34705026-346.30826978 180.42350985-346.30826978 394.21464441v746.24308016c0 222.37138077 161.83297641 395.64468547 370.61896737 395.64468547h742.66797754c208.54765138 0 370.61896737-173.03496511 370.61896738-395.64468547V219.79494812c0-213.79113456-149.20094847-380.86759598-346.54661117-394.21464441zM684.74680519-244.96838789h444.02774104c80.55897886 0 107.01473797 195.91562165 107.01473619 283.38646607H577.73206723c0.23833958-87.47084266 26.45575913-283.38646431 107.01473796-283.38646607z m872.56337029 1211.00641617c0 163.50135879-129.41871356 304.1220593-279.0963412 304.12205928H535.54585674c-149.67762763 0-279.09634118-140.85904185-279.0963412-304.12205928V219.79494812c0-144.91082538 111.30486107-265.51095137 237.38681162-291.01335039-6.91186561 49.81309661-7.38854473 97.95781083-7.38854652 109.63648045h-61.49176448v91.52262617h963.8476569v-91.52262617h-61.2534231c0-11.91700922-0.71502051-59.82338385-7.62688612-109.63648045 125.84361097 25.50239902 237.38681164 146.3408664 237.38681164 291.01335039v746.24308016z m0 0" fill="#FF7700" p-id="2208"></path></svg>