<?xml version="1.0" standalone="no"?><!DOCTYPE svg PUBLIC "-//W3C//DTD SVG 1.1//EN" "http://www.w3.org/Graphics/SVG/1.1/DTD/svg11.dtd"><svg class="icon" width="200px" height="200.00px" viewBox="0 0 1024 1024" version="1.1" xmlns="http://www.w3.org/2000/svg"><path d="M999.09269984 500.4828125l-441-472.5C546.18176234 15.284375 529.44738734 8 512.02394984 8s-34.1578125 7.284375-46.06875 19.9828125L267.30832484 240.8046875c-5.709375 5.709375-9.253125 13.584375-9.253125 22.3453125 0 17.4234375 14.0765625 31.5 31.5 31.5 9.45 0 17.915625-4.134375 23.625-10.7296875L512.02394984 71l441 472.5H827.02394984v328.78125c0 44.5921875-36.1265625 80.71875-80.71875 80.71875H638.02394984V703.6578125c0.0984375-0.8859375 0.0984375-1.771875 0.0984375-2.6578125 0-17.4234375-14.0765625-31.5-31.5-31.5h-189-0.0984375c-17.4234375 0-31.5 14.0765625-31.5 31.5v251.9015625H277.74269984c-44.5921875 0-80.71875-36.1265625-80.71875-80.71875V543.5H71.02394984l87.01875-93.2203125c5.90625-5.709375 9.5484375-13.6828125 9.5484375-22.5421875 0-17.4234375-14.0765625-31.5-31.5-31.5-8.465625 0-16.2421875 3.346875-21.853125 8.859375l-0.196875 0.2953125c-0.590625 0.590625-1.18125 1.18125-1.771875 1.8703125l-87.215625 93.4171875c-17.2265625 18.2109375-21.853125 44.8875-11.8125 67.921875S45.92238734 606.5 71.02394984 606.5h63v265.78125c0 19.3921875 3.8390625 38.19375 11.3203125 55.9125 7.284375 17.128125 17.6203125 32.484375 30.8109375 45.675 13.190625 13.190625 28.546875 23.5265625 45.675 30.8109375 17.71875 7.48125 36.61875 11.3203125 55.9125 11.3203125h108.28125c16.734375 0 32.7796875-6.5953125 44.5921875-18.4078125S449.02394984 969.734375 449.02394984 953V732.5h126v220.5c0 34.7484375 28.2515625 63 63 63h108.28125c19.3921875 0 38.19375-3.8390625 55.9125-11.3203125 17.128125-7.284375 32.484375-17.6203125 45.675-30.8109375 13.190625-13.190625 23.5265625-28.546875 30.8109375-45.675 7.48125-17.71875 11.3203125-36.61875 11.3203125-55.9125V606.5h63c25.1015625 0 47.7421875-14.8640625 57.7828125-37.8984375 10.040625-23.034375 5.4140625-49.7109375-11.7140625-68.11875z"  /><path fill="#515151" d="M198.89426234 393.0875c8.071875 0 16.14375-3.0515625 22.246875-9.253125l27.759375-27.759375c12.3046875-12.3046875 12.3046875-32.2875 0-44.5921875s-32.2875-12.3046875-44.5921875 0l-27.759375 27.759375c-12.3046875 12.3046875-12.3046875 32.2875 0 44.5921875 6.2015625 6.2015625 14.2734375 9.253125 22.3453125 9.253125z"  /></svg>