<?xml version="1.0" standalone="no"?><!DOCTYPE svg PUBLIC "-//W3C//DTD SVG 1.1//EN" "http://www.w3.org/Graphics/SVG/1.1/DTD/svg11.dtd"><svg t="1589943577176" class="icon" viewBox="0 0 1024 1024" version="1.1" xmlns="http://www.w3.org/2000/svg" p-id="2071" xmlns:xlink="http://www.w3.org/1999/xlink" width="200" height="200"><defs><style type="text/css"></style></defs><path d="M792.1324609 772.65505405H155.64918738c-30.30872757 0-54.55570919-22.2264-54.5557081-52.53512647L123.31987928 293.77716325h723.36829081v428.36334594c0 26.26756324-24.24698162 50.51454594-54.55570919 50.51454486z" fill="#A7C9FF" p-id="2072"></path><path d="M513.29217009 918.13694595c-4.04116324 0-8.08232758-4.04116324-8.08232757-8.08232758v-189.93469079c0-4.04116324 4.04116324-8.08232758 8.08232757-8.08232758s8.08232758 4.04116324 8.08232648 8.08232758v189.93469079c0 6.06174595-4.04116324 8.08232758-8.08232648 8.08232758zM723.43267928 869.64298163c-2.02058163 0-6.06174595-2.02058163-6.06174595-4.04116326l-111.13200001-143.46130918c-2.02058163-4.04116324-2.02058163-8.08232758 2.02058163-12.12349081 4.04116324-2.02058163 10.10290919-2.02058163 12.12349081 2.02058162l111.13200001 143.4613092c2.02058163 4.04116324 2.02058163 8.08232758-2.02058163 12.1234908-2.02058163 0-4.04116324 2.02058163-6.06174486 2.02058163zM422.36598738 720.11992758L339.52213333 825.19018163c-2.02058163-6.06174595-6.06174595-10.10290919-12.12349081-12.12349082l78.8026908-103.04967243c2.02058163-4.04116324 8.08232758-4.04116324 12.12349082-2.02058162 6.06174595 4.04116324 6.06174595 10.10290919 4.04116324 12.12349082z" fill="#464855" p-id="2073"></path><path d="M868.47004209 324.28794919v365.72530918c0 20.20581837-16.16465405 34.34989081-36.37047352 34.34989082h-636.48327243c-20.20581837 0-36.37047243-16.16465405-36.37047244-34.34989082v-365.72530918h709.22421839z" fill="#FFFFFF" p-id="2074"></path><path d="M141.06058695 308.12329405v383.91054595c0 28.28814595 24.24698162 50.51454594 54.55570919 50.51454594h636.48327243c30.30872757 0 54.55570919-22.2264 54.55570919-52.53512756v-383.91054594h-745.5946908z m727.40945514 383.91054595c0 20.20581837-16.16465405 34.34989081-36.37047352 34.34989081h-636.48327243c-20.20581837 0-36.37047243-16.16465405-36.37047244-34.34989081v-367.74589081h709.22421839v367.74589081z" fill="#464855" p-id="2075"></path><path d="M883.05864252 233.15970918c16.16465405 0 30.30872757 14.14407244 30.30872757 28.28814488v34.34989189c0 16.16465405-14.14407244 28.28814595-30.30872757 28.28814486H143.52569657c-16.16465405 0-30.30872757-14.14407244-30.30872648-28.28814486v-34.34989189c0-16.16465405 14.14407244-28.28814595 30.30872648-28.28814488" fill="#4184F1" p-id="2076"></path><path d="M883.05864252 334.1888H143.52569657c-22.2264 0-38.39105405-16.16465405-38.39105405-38.39105405v-34.34989189c0-20.20581837 18.18523675-38.39105405 38.39105405-38.39105405h94.96734594c4.04116324 0 8.08232758 4.04116324 8.08232758 8.08232756s-4.04116324 8.08232758-8.08232758 8.08232647H143.52569657c-12.12349081 0-22.2264 10.10290919-22.2264 20.20581839v34.34989082c0 12.12349081 10.10290919 20.20581837 22.2264 20.20581838h741.55352757c12.12349081 0 22.2264-10.10290919 22.2264-20.20581838V259.42727243c0-12.12349081-10.10290919-20.20581837-22.2264-20.20581839h-424.32218161c-4.04116324 0-8.08232758-4.04116324-8.08232758-8.08232647s4.04116324-8.08232758 8.08232758-8.08232756h424.32218161c22.2264 0 38.39105405 16.16465405 38.39105514 38.39105405v34.34989189c0 20.20581837-18.18523675 38.39105405-40.41163676 38.39105405z" fill="#464855" p-id="2077"></path><path d="M402.16017009 241.24203676h-111.132c-4.04116324 0-8.08232758-4.04116324-8.08232757-8.08232758s4.04116324-8.08232758 8.08232757-8.08232756h111.132c4.04116324 0 8.08232758 4.04116324 8.08232648 8.08232756 2.02058163 4.04116324-2.02058163 8.08232758-8.08232648 8.08232758z" fill="#464855" p-id="2078"></path><path d="M260.71944253 681.72887243h-42.43221839v-157.60538162l42.43221839-26.26756325zM351.64562414 681.72887243h-42.43221839v-183.87294487l42.43221839 14.14407244zM400.13958738 497.85592756h44.45279999v183.87294487h-44.45279999zM491.06577009 463.50603676h44.45279999V683.74945405h-44.45279999zM624.42417009 681.72887243h-42.43221838V477.65010919l42.43221838-14.14407243zM715.35035171 681.72887243h-42.43221838V429.15614595l42.43221837 12.12349081zM806.27653332 681.72887243h-42.43221836v-222.264l42.43221836-42.43221838z" fill="#4184F1" p-id="2079"></path><path d="M187.97849657 550.39105405c-4.04116324 0-6.06174595-2.02058163-8.08232648-4.04116324-2.02058163-4.04116324 0-10.10290919 4.04116324-12.12349081l96.98792757-50.51454595c2.02058163-2.02058163 4.04116324-2.02058163 6.06174486 0l90.92618162 24.24698271 129.31723676-52.53512756h4.04116324l82.84385514 14.14407242 90.92618162-46.47338161c2.02058163-2.02058163 6.06174595-2.02058163 8.08232757 0l62.63803567 30.30872756 70.72036433-72.74094595c4.04116324-4.04116324 8.08232758-4.04116324 12.1234908 1e-8 4.04116324 4.04116324 4.04116324 8.08232758 0 12.1234908l-74.76152755 76.7821092c-2.02058163 2.02058163-6.06174595 4.04116324-10.1029092 2.0205816L689.08278738 439.25905404l-90.92618162 46.47338272c-2.02058163 0-4.04116324 2.02058163-6.06174486 0l-82.84385515-14.14407353-129.31723566 52.53512758h-6.06174596L284.96642414 501.89709081l-92.94676324 48.49396324h-4.04116433zM351.64562414 378.6416h-137.39956324c-4.04116324 0-8.08232758-4.04116324-8.08232758-8.08232757s4.04116324-8.08232758 8.08232758-8.08232649h137.39956324c4.04116324 0 8.08232758 4.04116324 8.08232757 8.08232649s-4.04116324 8.08232758-8.08232757 8.08232757zM278.90467928 419.05323676h-66.6792c-4.04116324 0-8.08232758-4.04116324-8.08232758-8.08232757s4.04116324-8.08232758 8.08232758-8.08232757h66.6792c4.04116324 0 8.08232758 4.04116324 8.08232648 8.08232757s-4.04116324 8.08232758-8.08232648 8.08232757zM325.37806091 457.44429081h-111.13200001c-4.04116324 0-8.08232758-4.04116324-8.08232758-8.08232757s4.04116324-8.08232758 8.08232758-8.08232648H325.37806091c4.04116324 0 8.08232758 4.04116324 8.08232647 8.08232648s-4.04116324 8.08232758-8.08232647 8.08232757z" fill="#E25A5A" p-id="2080"></path><path d="M689.32525809 111.9248c0-4.04116324-4.04116324-8.08232758-10.1029092-8.08232758s-8.08232758 4.04116324-8.08232756 8.08232758c0 6.06174595 2.02058163 12.12349081 2.02058163 16.16465405 0 4.04116324 4.04116324 6.06174595 8.08232756 6.06174595h2.02058162c6.06174595 0 8.08232758-4.04116324 8.08232757-10.10290919-2.02058163-4.04116324-2.02058163-8.08232758-2.02058162-12.12349081zM976.24787538 120.00712758h-36.37047242c-4.04116324-18.18523675-22.2264-32.32930919-42.43221839-32.3293092-6.06174595 0-12.12349081 2.02058163-18.18523568 4.04116324-6.06174595-48.49396324-50.51454594-84.86443676-103.04967351-84.86443567-46.47338163 0-86.88501838 30.30872757-101.0290908 72.74094486 0 4.04116324 2.02058163 8.08232758 6.06174594 10.10290919 4.04116324 0 10.10290919-2.02058163 12.12349081-6.06174595 10.10290919-34.34989081 44.4528-60.61745405 84.86443676-60.61745404 48.49396324 0 86.88501838 38.39105405 86.88501729 82.84385404 0 4.04116324 4.04116324 8.08232758 8.08232757 8.08232757 2.02058163 0 4.04116324 0 6.06174594-2.02058162 4.04116324-6.06174595 12.12349081-8.08232758 18.18523568-8.08232758 14.14407244 0 24.24698162 10.10290919 24.24698271 24.24698163 0 4.04116324 4.04116324 8.08232758 8.08232648 8.08232757h44.4528c4.04116324 0 8.08232758-4.04116324 8.08232756-8.08232757s-2.02058163-8.08232758-6.06174594-8.08232647z" fill="#464855" p-id="2081"></path><path d="M810.31769657 160.41876324c-12.12349081 8.08232758-24.24698162 12.12349081-40.41163567 12.12349081-38.39105405 0-68.69978163-30.30872757-68.69978162-66.6792 0-16.16465405 6.06174595-30.30872757 16.16465405-42.43221729-2.02058163 6.06174595-4.04116324 14.14407244-4.04116324 22.2264 0 42.43221837 36.37047243 76.78210919 80.82327243 76.78210918 6.06174595 0 12.12349081-2.02058163 16.16465405-2.0205827zM198.08140576 994.91905405c16.16465405 10.10290919 34.34989081 16.16465405 56.57629081 16.16465514 54.55570919 0 96.98792757-42.43221837 96.98792757-92.94676324 0-22.2264-8.08232758-44.4528-22.2264-60.61745514 4.04116324 10.10290919 4.04116324 20.20581837 4.04116324 30.30872757 0 60.61745405-50.51454594 107.09083676-113.15258162 107.09083567-8.08232758 2.02058163-16.16465405 0-22.2264 0z" fill="#EBF3FF" p-id="2082"></path><path d="M144.21269528 906.17510119c0-4.04116324-4.04116324-8.08232758-10.10290919-8.08232756-4.04116324 0-8.08232758 4.04116324-8.08232757 8.08232756 0 6.06174595 2.02058163 12.12349081 2.02058163 18.18523676 0 4.04116324 4.04116324 6.06174595 8.08232755 6.06174486h2.02058162c4.04116324-2.02058163 8.08232758-6.06174595 6.06174596-10.10290919v-14.14407243zM489.7321861 916.27801037h-44.45280001c-4.04116324-22.2264-24.24698162-38.39105405-48.49396433-38.39105512-8.08232758 0-16.16465405 2.02058163-22.2264 6.06174594-8.08232758-58.59687243-60.61745405-103.04967243-123.2554908-103.04967243-40.41163677 0-76.78210919 18.18523675-99.0085092 46.47338162-12.12349081-8.08232758-26.26756324-12.12349081-40.41163567-12.12349081-32.32930919 0-60.61745405 24.24698162-60.61745513 56.57629081 0 4.04116324 4.04116324 8.08232758 8.08232756 8.08232757s10.10290919-4.04116324 10.10290919-8.08232757c0-22.2264 18.18523675-40.41163677 42.43221838-40.41163676 10.10290919 0 22.2264 4.04116324 30.30872648 10.10290919-6.06174595 8.08232758-8.08232758 16.16465405-12.12349081 24.24698162 0 4.04116324 2.02058163 8.08232758 6.06174595 10.10290919 4.04116324 2.02058163 10.10290919-2.02058163 10.10290919-6.06174486 14.14407244-42.43221837 54.55570919-72.74094596 103.04967243-72.74094595 58.59687243 0 107.09083676 46.47338163 107.09083676 103.04967243 0 4.04116324 4.04116324 8.08232758 8.08232648 8.08232757 2.02058163 0 4.04116324 0 6.06174594-2.02058162 6.06174595-6.06174595 14.14407244-10.10290919 24.24698163-10.10290919 18.18523675 0 32.32930919 14.14407244 32.32930919 30.30872757 0 4.04116324 4.04116324 8.08232758 8.08232756 8.08232648h52.53512649c4.04116324 0 8.08232758-4.04116324 8.08232758-8.08232648s-2.02058163-10.10290919-6.06174486-10.1029092z" fill="#464855" p-id="2083"></path><path d="M359.72795171 47.26618162a32.32930919 32.32930919 0 1 0 64.65861838 1e-8 32.32930919 32.32930919 0 1 0-64.65861839 0Z" fill="#EBF3FF" p-id="2084"></path><path d="M40.47602414 87.67781838a20.20581837 20.20581837 0 1 0 40.41163676 0 20.20581837 20.20581837 0 1 0-40.41163676 0Z" fill="#EBF3FF" p-id="2085"></path><path d="M212.22547928 152.33643677a20.20581837 20.20581837 0 1 0 40.41163567 0 20.20581837 20.20581837 0 1 0-40.41163567 0Z" fill="#EBF3FF" p-id="2086"></path><path d="M167.77267927 55.3485092a20.20581837 20.20581837 0 1 0 40.41163568 0 20.20581837 20.20581837 0 1 0-40.41163568 0Z" fill="#EBF3FF" p-id="2087"></path></svg>