<?xml version="1.0" standalone="no"?><!DOCTYPE svg PUBLIC "-//W3C//DTD SVG 1.1//EN" "http://www.w3.org/Graphics/SVG/1.1/DTD/svg11.dtd"><svg t="1589943587609" class="icon" viewBox="0 0 1024 1024" version="1.1" xmlns="http://www.w3.org/2000/svg" p-id="2326" xmlns:xlink="http://www.w3.org/1999/xlink" width="200" height="200"><defs><style type="text/css"></style></defs><path d="M512 803.31034437a56.27586187 56.27586187 0 1 0 56.27586187 56.27586282 56.34206906 56.34206906 0 0 0-56.27586187-56.27586281zM747.63034437 32H276.36965563A95.40413813 95.40413813 0 0 0 180.9655175 127.40413812v769.19172375A95.40413813 95.40413813 0 0 0 276.36965563 992h471.26068874A95.40413813 95.40413813 0 0 0 843.0344825 896.59586188V127.40413812A95.40413813 95.40413813 0 0 0 747.63034437 32zM512 952.27586188a92.68965563 92.68965563 0 1 1 92.68965563-92.68965469 92.68965563 92.68965563 0 0 1-92.68965563 92.68965469z m262.37793094-300.71172375A75.60827625 75.60827625 0 0 1 698.76965563 727.17241344H325.23034437a75.60827625 75.60827625 0 0 1-75.60827531-75.60827532V180.43586188A75.60827625 75.60827625 0 0 1 325.23034437 104.82758656h373.53931126a75.60827625 75.60827625 0 0 1 75.60827531 75.60827531z" fill="#786FDC" p-id="2327"></path><path d="M566.62068969 505.37931031h-0.46344844a16.55172375 16.55172375 0 0 1-14.03586188-8.60689687L485.51724125 374.5544825l-41.84275875 59.98344844a16.55172375 16.55172375 0 0 1-13.24137938 7.15034531H329.93103406a16.55172375 16.55172375 0 1 1 0-33.10344844h91.49793188l52.17103406-74.88a16.4855175 16.4855175 0 0 1 28.07172375 1.52275875l66.20689687 120.82758563L598.06896594 407.1944825a16.61793094 16.61793094 0 0 1 14.10206812-7.74620625H694.06896594a16.55172375 16.55172375 0 0 1 0 33.1034475h-72.82758657l-40.651035 65.08137937a16.55172375 16.55172375 0 0 1-13.96965468 7.74620719z" fill="#786FDC" p-id="2328"></path></svg>