<?xml version="1.0" standalone="no"?><!DOCTYPE svg PUBLIC "-//W3C//DTD SVG 1.1//EN" "http://www.w3.org/Graphics/SVG/1.1/DTD/svg11.dtd"><svg t="1589943593300" class="icon" viewBox="0 0 1024 1024" version="1.1" xmlns="http://www.w3.org/2000/svg" p-id="2446" xmlns:xlink="http://www.w3.org/1999/xlink" width="200" height="200"><defs><style type="text/css"></style></defs><path d="M187.328 565.76h586.176c28.608 0 51.456 21.312 51.456 47.616v289.536c0 26.304-23.04 47.616-51.456 47.616H187.328c-28.608 0-52.032-21.312-51.456-47.232v-289.92c0-26.304 23.04-47.616 51.456-47.616z" fill="#99CCFF" p-id="2447"></path><path d="M867.392 530.24v-40.128c0-64.32-52.224-116.736-116.736-116.736H210.752c-64.32 0-116.544 52.224-116.544 116.736v406.656c0 52.224 43.2 95.232 95.616 95.232h644.544c52.608 0 95.232-43.2 95.616-95.616V619.136c-0.192-39.744-24.96-75.264-62.592-88.896z m-731.52-31.488h522.432v-41.856H143.936c12.096-24.768 37.056-41.856 66.624-41.856h539.904c41.472 0 74.304 33.408 74.304 74.88v33.792H189.824c-19.968 0-38.4 6.336-53.76 16.704-0.192 0.192-0.192-41.664-0.192-41.664zM888.32 824.768H650.048c-18.432 0-33.408-14.976-33.408-33.408v-87.744c0-18.432 14.976-33.408 33.408-33.408H888.32v154.56z m0-196.416H650.048c-41.28 0-75.264 33.984-75.264 75.264v87.36c0 41.856 33.792 75.264 75.264 75.264H888.32v29.568c0 29.76-24.192 53.76-53.76 53.76H189.824c-29.76 0-53.76-24.192-53.76-53.76V619.52c0-29.76 24.192-53.76 53.76-53.76h644.544c29.76 0 53.76 24.192 53.76 53.76 0.192 0 0.192 8.832 0.192 8.832z" fill="#6699FF" p-id="2448"></path><path d="M700.16 457.088h83.52v41.856H700.16z" fill="#6699FF" p-id="2449"></path><path d="M752.576 747.584m-52.224 0a52.224 52.224 0 1 0 104.448 0 52.224 52.224 0 1 0-104.448 0Z" fill="#FFFFFF" p-id="2450"></path><path d="M502.592 59.648L357.248 204.8c-8.448 8.448-2.496 22.848 9.408 22.848h23.616c7.296 0 13.44 5.952 13.44 13.44v51.072c0 7.296 5.952 13.44 13.44 13.44h189.696c7.296 0 13.44-5.952 13.44-13.44v-51.072c0-7.296 5.952-13.44 13.44-13.44h23.616c11.904 0 17.856-14.4 9.408-22.848L521.6 59.648c-5.376-5.376-13.824-5.376-19.008 0z" fill="#FFFFFF" p-id="2451"></path><path d="M623.552 322.112H400.448c-7.296 0-13.44-5.952-13.44-13.44v-51.072c0-7.296-5.952-13.44-13.44-13.44h-47.232c-11.904 0-17.856-14.4-9.408-22.848L502.592 35.84c5.184-5.184 13.632-5.184 18.816 0l185.664 185.664c8.448 8.448 2.496 22.848-9.408 22.848H650.24c-7.296 0-13.44 5.952-13.44 13.44v51.072c0.192 7.296-5.76 13.248-13.248 13.248z m-189.696-33.408h156.288c7.296 0 13.44-5.952 13.44-13.44v-51.072c0-7.296 5.952-13.44 13.44-13.44 11.904 0 17.856-14.4 9.408-22.848L521.6 83.072c-5.184-5.184-13.632-5.184-18.816 0l-104.832 104.832c-8.448 8.448-2.496 22.848 9.408 22.848 7.296 0 13.44 5.952 13.44 13.44v51.072c-0.384 7.488 5.568 13.44 13.056 13.44z" fill="#6699FF" p-id="2452"></path></svg>