<?xml version="1.0" standalone="no"?><!DOCTYPE svg PUBLIC "-//W3C//DTD SVG 1.1//EN" "http://www.w3.org/Graphics/SVG/1.1/DTD/svg11.dtd"><svg t="1589943596982" class="icon" viewBox="0 0 1024 1024" version="1.1" xmlns="http://www.w3.org/2000/svg" p-id="2570" xmlns:xlink="http://www.w3.org/1999/xlink" width="200" height="200"><defs><style type="text/css"></style></defs><path d="M14.8973037 776.04939852a487.5757037 184.76297482 0 1 0 975.15140741 0 487.5757037 184.76297482 0 1 0-975.15140741 0Z" fill="#B3DEFF" p-id="2571"></path><path d="M319.6397037 246.40929185a169.37415111 167.60225185 90 1 0 335.20450371 0 169.37415111 167.60225185 90 1 0-335.20450371 0Z" fill="#77AFFF" p-id="2572"></path><path d="M290.94949925 477.36301037h423.0591526a93.21889185 93.21889185 0 0 1 93.20675556 93.20675555v72.17455408l-94.90583704 98.304-87.16288 44.26107259H197.7427437V570.56976592a93.20675555 93.20675555 0 0 1 93.20675555-93.20675555z" fill="#3B82FE" p-id="2573"></path><path d="M951.47956148 266.04581925c-14.70919111-23.37450667-31.02037333-21.26279111-53.02347851-6.48078222L685.60971852 389.83604148c-22.01524148 14.76987259-32.11264 28.61738667-17.36704 52.00402963 4.85451852 7.68227555 17.24567703 15.66795852 25.10999703 19.78216297l54.52837927 27.8528q-7.02691555 70.14779259-112.04228741 211.49923555C578.36126815 778.34315852 452.53214815 835.29879703 408.84148148 849.97157925c-29.36983703 9.86680889-14.0781037 34.63698963-0.80099556 34.20008297 95.06360889-3.16757333 253.85490963-25.42554075 329.16062816-94.77233777q84.65066667-77.93929482 152.43188147-234.72810667l51.71275853 26.69985185c23.98132148 12.4639763 45.12274963 7.80363852 52.47734517-7.36673185 3.9200237-8.08277333 3.64088889-21.42056297 2.82775705-30.47424l-37.29483852-254.37677037a52.63511703 52.63511703 0 0 0-7.8764563-23.10750816z" fill="#FC9C41" p-id="2574"></path></svg>