<?xml version="1.0" standalone="no"?><!DOCTYPE svg PUBLIC "-//W3C//DTD SVG 1.1//EN" "http://www.w3.org/Graphics/SVG/1.1/DTD/svg11.dtd"><svg class="icon" width="200px" height="191.58px" viewBox="0 0 1069 1024" version="1.1" xmlns="http://www.w3.org/2000/svg"><path d="M542.38765647 301.45695302H805.02382813v21.70546917H542.38765647z" fill="#46AAFF" /><path d="M996.03195323 605.33351573H73.54953147c-26.04656281 0-34.72875011-10.85273459-39.06984375-19.53492187-6.51164094-10.85273459-8.68218728-28.21710916 10.85273458-56.43421928l97.67460937-151.93828041c26.04656281-41.24039105 71.62804656-75.9691402 99.84515572-75.96914115h169.30265594v21.70546917h-169.30265594c-17.36437458 0-56.43421833 28.21710916-80.31023384 65.11640562l-97.67460938 151.93828135c-8.68218728 15.19382823-13.02328094 28.21710916-8.68218823 34.72875011 4.34109364 6.51164094 15.19382823 8.68218728 19.53492187 8.68218729h920.31187542c6.51164094 0 17.36437458 0 19.53492188-8.68218729 4.34109364-6.51164094 0-19.53492187-8.6821873-34.72875011l-97.67460937-151.93828135c-21.70546917-32.55820281-52.09312468-58.60476562-71.62804751-65.11640562l6.51164094-19.53492187c26.04656281 8.68218728 60.77531292 39.06984375 82.48078115 73.79859385l97.67460937 151.93828041c19.53492187 28.21710916 15.19382823 47.75203103 10.85273459 56.43421928-4.34109364 8.68218728-15.19382823 19.53492187-39.06984375 19.53492187z" fill="#46AAFF" /><path d="M475.10070355 379.59664052l-75.96914116-43.41093739v-88.9924221l75.96914116-43.41093739 75.9691402 43.41093739v88.9924221l-75.9691402 43.41093739z m-54.26367198-56.43421833l54.26367198 32.55820281 54.26367103-32.55820281v-62.94585927l-54.26367103-32.55820376-54.26367198 32.55820376v62.94585927zM822.3882027 594.48078114h-21.70546822v-54.26367198l-56.43421928-30.38765646-54.26367103 30.38765646v54.26367198h-21.70546917v-65.11640656l75.9691402-45.58148374 78.1396875 45.58148374zM396.96101605 594.48078114h-21.70546917v-86.82187478l-73.79859386-41.24039105-73.79859386 41.24039105v86.82187478h-21.70546822v-97.67460937l95.50406208-56.43421833 95.50406303 56.43421833zM171.22414084 249.36382834L75.72007781 192.92960906v-108.52734301L171.22414084 30.13859407l95.50406207 54.26367198v110.69789031l-95.50406207 54.26367198zM97.42554698 182.07687542l73.79859386 43.41093739 73.79859385-43.41093739v-86.82187574l-73.79859385-43.4109374-73.79859386 43.4109374v86.82187574z" fill="#46AAFF" /><path d="M948.27992219 996.03195323h-824.80781239c-47.75203103 0-86.82187478-39.06984375-86.82187574-86.82187479v-325.58203188h998.45156292v325.58203188c0 47.75203103-39.06984375 86.82187478-86.82187479 86.82187479z m-892.09476625-390.6984375v303.87656271c0 36.89929645 28.21710916 65.11640657 65.11640656 65.11640562h824.80781239c36.89929645 0 65.11640657-28.21710916 65.11640658-65.11640562v-303.87656271h-955.04062554zM824.55875 336.18570313l-104.18625031-60.77531293V153.85976531l104.18625031-60.77531197L930.91554666 153.85976531v121.55062489l-106.35679666 60.77531293zM742.07796886 262.38710927l82.48078114 47.75203104 82.48078114-47.75203104V166.88304719l-82.48078114-47.75203199-82.48078114 47.75203199V262.38710927z" fill="#46AAFF" /><path d="M388.27882781 703.00812511h314.7292973v43.41093739H388.27882781z" fill="#46AAFF" /><path d="M475.10070355 225.48781282v62.94585927" fill="#FFFFFF" /><path d="M464.24796897 214.63507823h21.70546821v84.65132844h-21.70546821z" fill="#46AAFF" /><path d="M824.55875 110.44882791v99.84515668" fill="#FFFFFF" /><path d="M813.70601541 99.59609333h21.70546918v121.55062584h-21.70546918z" fill="#46AAFF" /><path d="M744.2485152 503.31781272v67.2869529" fill="#FFFFFF" /><path d="M732.74461719 582.17378036l0.86821853-88.99242208 21.70546918 0.21705511-0.86821854 88.99242208z" fill="#46AAFF" /><path d="M301.45695302 459.90687532v78.1396875" fill="#FFFFFF" /><path d="M290.60421844 449.05414073h21.70546917v99.84515572h-21.70546918z" fill="#46AAFF" /><path d="M171.22414084 51.84406228v73.79859386" fill="#FFFFFF" /><path d="M160.37140625 40.9913277h21.70546917v95.50406303h-21.70546917z" fill="#46AAFF" /><path d="M475.10070355 288.43367209l-58.60476563 36.89929644" fill="#FFFFFF" /><path d="M401.7579239 319.88489631l77.96604418-47.252806 11.24343302 18.57988167-77.96604418 47.23110011z" fill="#46AAFF" /><path d="M824.55875 225.48781282l-86.82187478 39.06984375" fill="#FFFFFF" /><path d="M723.30273797 259.95609698l106.53044094-48.88071551 9.05118078 19.75197603-106.55214683 48.83730469z" fill="#46AAFF" /><path d="M744.2485152 572.77531292l-28.21710917 15.19382728" fill="#FFFFFF" /><path d="M701.48874219 585.73347713l46.92722333-27.21865718 10.89614542 18.77522994-46.94892922 27.21865814z" fill="#46AAFF" /><path d="M301.45695302 551.06984375l-65.11640657 36.89929645" fill="#FFFFFF" /><path d="M222.53586864 585.51642297l84.56450678-48.85901058 10.85273364 18.77523089-84.54280089 48.88071553z" fill="#46AAFF" /><path d="M171.22414084 138.66593708L90.91390603 179.90632813" fill="#FFFFFF" /><path d="M76.47976975 173.72026985l98.99864306-49.48846907 9.70234422 19.40468938-98.99864308 49.48846812z" fill="#46AAFF" /><path d="M475.10070355 288.43367209l45.58148373 30.38765646" fill="#FFFFFF" /><path d="M460.38439542 291.2770887l11.93800728-18.12406651 63.44508527 41.78302692-11.93800728 18.12406651z" fill="#46AAFF" /><path d="M824.55875 225.48781282l82.48078114 36.89929645" fill="#FFFFFF" /><path d="M811.05794801 231.82580948l9.07288668-19.70856615 102.53663395 47.1225735-9.05118078 19.73027109z" fill="#46AAFF" /><path d="M744.2485152 572.77531292l30.38765646 17.36437458" fill="#FFFFFF" /><path d="M729.22833125 576.46524219l10.91785036-18.77523089 48.77218892 28.41245933-10.91785131 18.753525z" fill="#46AAFF" /><path d="M301.45695302 551.06984375l62.94585926 36.89929645" fill="#FFFFFF" /><path d="M288.02126775 555.80163583l10.98296709-18.71011417 82.39395947 48.25125703-10.96126118 18.73182006z" fill="#46AAFF" /><path d="M171.22414084 138.66593708l71.62804655 39.06984375" fill="#FFFFFF" /><path d="M158.37450323 142.78997656l10.72250114-18.88375749 88.71025121 50.37839254-10.7225021 18.8837575z" fill="#46AAFF" /></svg>