<?xml version="1.0" standalone="no"?><!DOCTYPE svg PUBLIC "-//W3C//DTD SVG 1.1//EN" "http://www.w3.org/Graphics/SVG/1.1/DTD/svg11.dtd"><svg class="icon" width="200px" height="200.00px" viewBox="0 0 1024 1024" version="1.1" xmlns="http://www.w3.org/2000/svg"><path fill="#515151" d="M516.266667 1006.933333L87.466667 759.466667V264.533333L516.266667 17.066667l428.8 247.466666v494.933334L516.266667 1006.933333zM130.133333 733.866667l386.133334 221.866666 386.133333-221.866666V290.133333L516.266667 68.266667 130.133333 290.133333v443.733334z"  /><path fill="#515151" d="M490.666667 38.4h42.666666v313.6h-42.666666zM91.946667 725.333333l255.658666-123.093333 18.517334 38.421333-255.658667 123.114667zM670.101333 653.098667l19.562667-37.909334 238.890667 123.242667-19.562667 37.930667z"  /><path fill="#515151" d="M516.266667 736c-110.933333 0-202.666667-91.733333-202.666667-202.666667s91.733333-202.666667 202.666667-202.666666 202.666667 91.733333 202.666666 202.666666-91.733333 202.666667-202.666666 202.666667z m0-384c-100.266667 0-181.333333 81.066667-181.333334 181.333333s81.066667 181.333333 181.333334 181.333334 181.333333-81.066667 181.333333-181.333334-81.066667-181.333333-181.333333-181.333333z"  /><path fill="#515151" d="M445.866667 465.066667h25.6l44.8 123.733333 44.8-123.733333h25.6L526.933333 618.666667h-23.466666l-57.6-153.6z"  /></svg>