<?xml version="1.0" standalone="no"?><!DOCTYPE svg PUBLIC "-//W3C//DTD SVG 1.1//EN" "http://www.w3.org/Graphics/SVG/1.1/DTD/svg11.dtd"><svg class="icon" width="200px" height="200.00px" viewBox="0 0 1024 1024" version="1.1" xmlns="http://www.w3.org/2000/svg"><path d="M854.40433721 724.26061616H174.2352875c-51.96380141 0-93.72042789-42.68455196-93.72042789-93.72042924V360.51400229C80.51485961 309.47812636 122.2714861 266.7935744 174.2352875 266.7935744h680.16904971c51.96380141 0 93.72042789 42.68455196 93.72042789 93.72042789v270.02618463c0 51.03587727-42.68455196 93.72042789-93.72042789 93.72042925z" fill="#FFE55C" /><path d="M684.59405615 1004.49397569H344.04556857c-86.29702807 0-156.81933104-70.52230298-156.8193297-156.81933105V178.64069671c0-86.29702807 70.52230298-156.81933104 156.8193297-156.81933104h340.54848758c86.29702807 0 156.81933104 70.52230298 156.81933104 156.81933104v669.03394793c0 86.29702807-70.52230298 156.81933104-156.81933104 156.81933105z m-340.54848758-927.92503354c-55.67550199 0-101.14382907 45.46832708-101.14382772 101.14382906v669.03394931c0 55.67550199 45.46832708 101.14382907 101.14382772 101.14382771h340.54848758c55.67550199 0 101.14382907-45.46832708 101.14382906-101.14382771v-668.10602381c0-55.67550199-45.46832708-101.14382907-101.14382906-101.14382908H344.04556857z" fill="#4D4D4D" /><path d="M576.95475278 201.83882162H447.04524722c-15.77472511 0-27.837751-12.0630259-27.83775097-27.83775097s12.0630259-27.837751 27.83775097-27.83775102h129.90950556c15.77472511 0 27.837751 12.0630259 27.83775097 27.83775102s-12.0630259 27.837751-27.83775097 27.83775097zM512 873.65654603c-22.27020079 0-40.828701-18.5585002-40.828701-40.82870099s18.5585002-40.828701 40.828701-40.82870236 40.828701 18.5585002 40.828701 40.82870236-18.5585002 40.828701-40.828701 40.82870099z m0-46.3962512c-2.7837751 0-5.56755021 2.7837751-5.56755021 5.56755021s2.7837751 5.56755021 5.56755021 5.5675502 5.56755021-2.7837751 5.56755021-5.5675502-1.85584962-5.56755021-5.56755021-5.56755021z" fill="#4D4D4D" /></svg>