<?xml version="1.0" standalone="no"?><!DOCTYPE svg PUBLIC "-//W3C//DTD SVG 1.1//EN" "http://www.w3.org/Graphics/SVG/1.1/DTD/svg11.dtd"><svg class="icon" width="200px" height="200.00px" viewBox="0 0 1024 1024" version="1.1" xmlns="http://www.w3.org/2000/svg"><path d="M632.83400001 480.248c0-21.71925-28.224-98.45324999-118.07775-98.45324999s-118.07775 76.734-118.07775 98.45324999v7.82775c-0.33075 26.57025001-0.55125 45.86399999 30.42899999 78.057 36.27225 37.7055 40.90274999 59.86575 39.46949999 71.001v21.609h96.46875001v-21.609c-1.43325-11.13524999 3.19724999-33.2955 39.46949999-71.001 30.98024999-32.193 30.75975-51.37650001 30.42900001-78.057l-0.11024999-7.82775z" fill="#A0D3F8" /><path d="M949.58225 657.53c7.056-31.86225 10.91475-64.49625 10.91475-97.35075 0-34.398-4.18949999-68.46525-11.907-101.6505 33.7365-19.1835 56.55825-55.34550001 56.55825-96.7995 0-61.40925-49.94325-111.35249999-111.35249999-111.3525-17.4195 0-33.84675 4.07925-48.51000001 11.2455-58.4325-64.6065-135.27675-111.132-219.177-132.85124999C625.778 67.69249999 575.945 18.07999999 514.75625001 18.07999999s-110.91150001 49.6125-111.35250001 110.69100002c-84.672 21.8295-162.288 69.23700001-220.941 134.72549999-15.65550001-8.379-33.51600001-13.11974999-52.36875-13.11975-61.40925 0-111.35249999 49.94325-111.3525 111.3525 0 43.43850001 25.137 81.14400001 61.5195 99.44550001-7.38675 32.4135-11.2455 65.59875-11.2455 99.11474999 0 31.97249999 3.63825 63.72449999 10.25325 94.5945-35.83125 18.522-60.52725 55.89675-60.52725 98.89425 0 61.40925 49.94325 111.35249999 111.3525 111.3525 17.64000001 0 34.398-4.29975 49.1715-11.57625001 84.78225 97.02000001 206.16750001 152.47575 335.3805 152.47575001 128.331 0 249.05475-54.79424999 333.72675-150.49125001 13.8915 6.17399999 29.106 9.70200001 45.31275 9.70200001 61.40925 0 111.35249999-49.94325 111.3525-111.35249999 0.11025-41.12325-22.2705-77.06475-55.45575-96.35850001z m-55.78649999-371.87325c41.89499999 0 76.0725 34.06725 76.07249999 76.0725s-34.06725 76.0725-76.07249999 76.07249999-76.0725-34.06725-76.07250001-76.07249999 34.1775-76.0725 76.07250001-76.0725zM514.75625001 53.36000001c41.89499999 0 76.0725 34.06725 76.07249999 76.07249999s-34.1775 76.0725-76.07249999 76.0725-76.0725-34.06725-76.07250001-76.0725 34.1775-76.0725 76.07250001-76.07249999zM54.13175 361.72925c0-41.89499999 34.06725-76.0725 76.07249999-76.0725s76.0725 34.06725 76.07250001 76.0725-34.1775 76.0725-76.07250001 76.07249999-76.0725-34.1775-76.07249999-76.07249999z m76.07249999 468.1215c-41.89499999 0-76.0725-34.1775-76.07249999-76.0725s34.06725-76.0725 76.07249999-76.0725 76.0725 34.06725 76.07250001 76.0725-34.1775 76.0725-76.07250001 76.0725zM514.75625001 970.63999999c-117.85725001 0-228.54825-50.0535-306.49500001-137.59199999 20.5065-20.17575 33.18525-48.2895 33.18525-79.26975 0-61.40925-49.94325-111.35249999-111.3525-111.3525-5.84325 0-11.466 0.55125-17.08875 1.43325-5.73300001-27.45225-8.70975001-55.45575-8.70975-83.67975 0-29.87775 3.41775-59.535 9.702-88.4205 5.292 0.77175001 10.584 1.323 16.0965 1.32300001 61.40925 0 111.35249999-49.94325 111.3525-111.35250001 0-29.7675-11.79675-56.6685-30.87000001-76.62375 53.03025-58.4325 122.48775-100.87875 198.22950001-121.16475001 14.553 44.541 56.448 76.9545 105.84 76.95450002s91.287-32.30325 105.84-76.84425001C695.015 184.00625 763.37 225.23975 816.0695 282.239c-20.727 20.286-33.7365 48.39975001-33.7365 79.6005 0 61.40925 49.94325 111.35249999 111.3525 111.3525 7.38675 0 14.553-0.77175001 21.49875-2.09474999 6.50475 29.21625 9.9225 59.094 9.9225 89.3025 0 28.55475001-3.087 56.889-8.93025 84.56174999-7.2765-1.5435-14.7735-2.31525-22.491-2.31525-61.40925 0-111.35249999 49.94325-111.3525 111.3525 0 32.52375001 14.11199999 61.62975 36.27225 82.026C740.98925001 921.689 631.29049999 970.63999999 514.75625001 970.63999999z m379.0395-140.78924999c-13.34025 0-25.57800001-3.74850001-36.49275001-9.702-0.33075-0.33075-0.55125-0.882-0.99225-1.21275-1.9845-1.65375-4.18949999-2.646-6.615-3.3075-19.29375-13.78125-31.97249999-36.27225-31.9725-61.73999999 0-41.89499999 34.1775-76.0725 76.07250001-76.07250001s76.0725 34.06725 76.07249999 76.07250001-34.06725 75.96225-76.07249999 75.96224999z" fill="#108EE9" /><path d="M580.68574999 713.096H448.937c-4.851 0-8.82 3.969-8.82 8.82s3.969 8.82 8.82 8.82h131.74874999c4.851 0 8.82-3.969 8.82000001-8.82s-3.969-8.82-8.82000001-8.82zM580.68574999 747.60425H448.937c-4.851 0-8.82 3.969-8.82 8.82s3.969 8.82 8.82 8.81999999h131.74874999c4.851 0 8.82-3.969 8.82000001-8.81999999s-3.969-8.82-8.82000001-8.82zM544.96474999 782.11249999h-60.41699999c-4.851 0-8.82 3.969-8.82 8.82000001s3.969 8.82 8.82 8.82h60.41699999c4.851 0 8.82-3.969 8.82000001-8.82s-3.85875-8.82-8.82000001-8.82000001zM668.114 480.248c0-45.2025-46.305-133.73325001-153.35774999-133.73325001s-153.35775 88.53074999-153.35775002 133.73325001v7.38675c-0.33075 28.224-0.6615 60.30675001 40.24125002 102.86325 26.12925 27.23175 29.3265 40.572 29.7675 42.88725-0.11025 0.6615-0.11025 1.43325-0.11025001 2.205v40.7925c0 9.70200001 7.938 17.64000001 17.64 17.64h131.74874999c9.70200001 0 17.64000001-7.938 17.64000001-17.64v-40.7925c0-0.77175001 0-1.43325-0.11025-2.205 0.33075-2.31525 3.528-15.65550001 29.7675-42.88725 40.90274999-42.5565 40.572-74.63924999 40.24125-102.86325l-0.11025-7.38675zM602.51524999 566.0225c-36.27225 37.7055-40.90274999 59.86575-39.46949999 71.001V658.63250001h-96.46875001v-21.60900001c1.43325-11.13524999-3.19724999-33.2955-39.46949999-71.001-30.98024999-32.193-30.75975-51.37650001-30.42899999-78.05699999v-7.82775001c0-21.71925 28.224-98.45324999 118.07775-98.45325s118.07775 76.734 118.07775 98.45325v7.82775001c0.33075 26.6805 0.55125 45.97425-30.31875002 78.05699999z" fill="#108EE9" /></svg>