<svg width="36" height="36" viewBox="0 0 36 36" fill="none" xmlns="http://www.w3.org/2000/svg">
<path d="M0.818359 18.0002C0.818359 22.5571 2.62858 26.9273 5.8508 30.1496C9.07301 33.3718 13.4433 35.182 18.0002 35.182C22.5571 35.182 26.9273 33.3718 30.1496 30.1496C33.3718 26.9273 35.182 22.5571 35.182 18.0002C35.182 13.4433 33.3718 9.07301 30.1496 5.8508C26.9273 2.62858 22.5571 0.818359 18.0002 0.818359C13.4433 0.818359 9.07301 2.62858 5.8508 5.8508C2.62858 9.07301 0.818359 13.4433 0.818359 18.0002Z" fill="#E5E6EB"/>
<path d="M18 36C8.1 36 0 27.9 0 18C0 8.1 8.1 0 18 0C27.9 0 36 8.1 36 18C36 27.9 27.9 36 18 36ZM18 1.63636C9 1.63636 1.63636 9 1.63636 18C1.63636 27 9 34.3636 18 34.3636C27 34.3636 34.3636 27 34.3636 18C34.3636 9 27 1.63636 18 1.63636Z" fill="#4E5969"/>
<path d="M18 29.456C11.7 29.456 6.54541 24.3014 6.54541 18.0014C6.54541 11.7014 11.7 6.54688 18 6.54688C24.3 6.54688 29.4545 11.7014 29.4545 18.0014C29.4545 24.3014 24.3 29.456 18 29.456Z" fill="#FFD167"/>
<path d="M18 6.5467C24.3 6.5467 29.4546 11.7012 29.4546 18.0012C29.4546 24.3012 24.3 29.4558 18 29.4558C11.7 29.4558 6.54548 24.3012 6.54548 18.0012C6.54548 11.7012 11.7 6.5467 18 6.5467ZM18 5.72852C11.2091 5.72852 5.72729 11.2103 5.72729 18.0012C5.72729 24.7922 11.2091 30.274 18 30.274C24.7909 30.274 30.2728 24.7922 30.2728 18.0012C30.2728 11.2103 24.7909 5.72852 18 5.72852Z" fill="#4E5969"/>
<path d="M17.7833 4.57546C17.8895 4.60391 18.0003 4.61117 18.1093 4.59682C18.2183 4.58247 18.3234 4.54679 18.4186 4.49182C18.5138 4.43685 18.5972 4.36367 18.6642 4.27645C18.7311 4.18923 18.7802 4.08968 18.8086 3.98349C18.8371 3.8773 18.8443 3.76655 18.83 3.65755C18.8156 3.54856 18.7799 3.44346 18.725 3.34825C18.67 3.25304 18.5968 3.1696 18.5096 3.10267C18.4224 3.03575 18.3228 2.98666 18.2166 2.95821C18.1105 2.92976 17.9997 2.9225 17.8907 2.93685C17.7817 2.9512 17.6766 2.98688 17.5814 3.04185C17.4862 3.09682 17.4028 3.17 17.3358 3.25722C17.2689 3.34444 17.2198 3.44399 17.1914 3.55018C17.1629 3.65637 17.1557 3.76712 17.17 3.87612C17.1844 3.98512 17.22 4.09022 17.275 4.18542C17.33 4.28063 17.4032 4.36408 17.4904 4.431C17.5776 4.49792 17.6771 4.54701 17.7833 4.57546Z" fill="#86909C"/>
<path d="M17.7824 33.0403C17.8885 33.0688 17.9993 33.076 18.1083 33.0617C18.2173 33.0473 18.3224 33.0116 18.4176 32.9567C18.5128 32.9017 18.5963 32.8285 18.6632 32.7413C18.7301 32.6541 18.7792 32.5545 18.8076 32.4483C18.8361 32.3421 18.8433 32.2314 18.829 32.1224C18.8146 32.0134 18.779 31.9083 18.724 31.8131C18.669 31.7179 18.5958 31.6344 18.5086 31.5675C18.4214 31.5006 18.3219 31.4515 18.2157 31.4231C18.1095 31.3946 17.9987 31.3873 17.8897 31.4017C17.7807 31.416 17.6756 31.4517 17.5804 31.5067C17.4852 31.5617 17.4018 31.6348 17.3348 31.7221C17.2679 31.8093 17.2188 31.9088 17.1904 32.015C17.1619 32.1212 17.1547 32.232 17.169 32.341C17.1834 32.45 17.2191 32.5551 17.274 32.6503C17.329 32.7455 17.4022 32.8289 17.4894 32.8958C17.5766 32.9628 17.6762 33.0119 17.7824 33.0403Z" fill="#86909C"/>
<path d="M10.0803 5.91123C10.1087 6.01742 10.1578 6.11696 10.2247 6.20418C10.2917 6.2914 10.3751 6.36458 10.4703 6.41955C10.5655 6.47452 10.6706 6.5102 10.7796 6.52455C10.8886 6.53891 10.9994 6.53165 11.1056 6.5032C11.2118 6.47475 11.3113 6.42566 11.3985 6.35873C11.4857 6.29181 11.5589 6.20836 11.6139 6.11316C11.6689 6.01795 11.7045 5.91285 11.7189 5.80385C11.7332 5.69486 11.726 5.5841 11.6975 5.47791C11.6691 5.37172 11.62 5.27218 11.5531 5.18496C11.4861 5.09774 11.4027 5.02456 11.3075 4.96959C11.2123 4.91462 11.1072 4.87894 10.9982 4.86459C10.8892 4.85023 10.7784 4.85749 10.6722 4.88594C10.5661 4.91439 10.4665 4.96348 10.3793 5.03041C10.2921 5.09733 10.2189 5.18078 10.1639 5.27598C10.109 5.37119 10.0733 5.47629 10.0589 5.58529C10.0446 5.69428 10.0518 5.80504 10.0803 5.91123Z" fill="#86909C"/>
<path d="M24.3017 30.5245C24.3592 30.739 24.4995 30.9218 24.6918 31.0328C24.884 31.1439 25.1125 31.1739 25.327 31.1165C25.5415 31.059 25.7243 30.9187 25.8353 30.7264C25.9463 30.5342 25.9764 30.3057 25.919 30.0912C25.8905 29.985 25.8414 29.8855 25.7745 29.7982C25.7076 29.711 25.6241 29.6378 25.5289 29.5829C25.4337 29.5279 25.3286 29.4922 25.2196 29.4779C25.1106 29.4635 24.9999 29.4708 24.8937 29.4992C24.7875 29.5277 24.6879 29.5768 24.6007 29.6437C24.5135 29.7106 24.4403 29.7941 24.3854 29.8893C24.3304 29.9845 24.2947 30.0896 24.2804 30.1986C24.266 30.3076 24.2733 30.4183 24.3017 30.5245Z" fill="#86909C"/>
<path d="M5.09652 11.4643C5.17426 11.542 5.26655 11.6037 5.36812 11.6457C5.46969 11.6878 5.57855 11.7095 5.68848 11.7095C5.79842 11.7095 5.90728 11.6878 6.00884 11.6457C6.11041 11.6037 6.2027 11.542 6.28043 11.4642C6.35817 11.3865 6.41983 11.2942 6.4619 11.1927C6.50397 11.0911 6.52562 10.9822 6.52561 10.8723C6.52561 10.7624 6.50396 10.6535 6.46189 10.5519C6.41981 10.4504 6.35815 10.3581 6.28041 10.2803C6.12341 10.1233 5.91048 10.0352 5.68845 10.0352C5.46643 10.0352 5.2535 10.1234 5.0965 10.2804C4.93951 10.4374 4.85131 10.6503 4.85132 10.8723C4.85132 11.0943 4.93953 11.3073 5.09652 11.4643Z" fill="#86909C"/>
<path d="M29.7196 25.7201C29.7973 25.7979 29.8896 25.8595 29.9912 25.9016C30.0927 25.9437 30.2016 25.9653 30.3115 25.9653C30.4215 25.9653 30.5303 25.9437 30.6319 25.9016C30.7335 25.8595 30.8257 25.7978 30.9035 25.7201C30.9812 25.6424 31.0429 25.5501 31.0849 25.4485C31.127 25.3469 31.1487 25.2381 31.1487 25.1281C31.1487 25.0182 31.127 24.9094 31.0849 24.8078C31.0429 24.7062 30.9812 24.6139 30.9035 24.5362C30.8257 24.4585 30.7334 24.3968 30.6319 24.3547C30.5303 24.3127 30.4214 24.291 30.3115 24.291C30.2016 24.291 30.0927 24.3127 29.9911 24.3547C29.8896 24.3968 29.7973 24.4585 29.7196 24.5362C29.6418 24.614 29.5802 24.7062 29.5381 24.8078C29.496 24.9094 29.4744 25.0182 29.4744 25.1282C29.4744 25.2381 29.496 25.347 29.5381 25.4485C29.5802 25.5501 29.6418 25.6424 29.7196 25.7201Z" fill="#86909C"/>
<path d="M3.55175 18.8099C3.65795 18.8383 3.76871 18.8456 3.87772 18.8313C3.98672 18.8169 4.09184 18.7812 4.18706 18.7263C4.28227 18.6713 4.36573 18.5981 4.43266 18.5109C4.4996 18.4237 4.54869 18.3241 4.57714 18.2179C4.6056 18.1117 4.61286 18.001 4.5985 17.892C4.58414 17.783 4.54845 17.6778 4.49347 17.5826C4.43849 17.4874 4.3653 17.404 4.27806 17.3371C4.19083 17.2701 4.09127 17.2211 3.98507 17.1926C3.87887 17.1641 3.76811 17.1569 3.6591 17.1712C3.55009 17.1856 3.44498 17.2212 3.34976 17.2762C3.25454 17.3312 3.17109 17.4044 3.10415 17.4916C3.03722 17.5788 2.98813 17.6784 2.95967 17.7846C2.93122 17.8908 2.92396 18.0015 2.93832 18.1105C2.95268 18.2195 2.98836 18.3246 3.04334 18.4198C3.09833 18.5151 3.17152 18.5985 3.25876 18.6654C3.34599 18.7323 3.44555 18.7814 3.55175 18.8099Z" fill="#86909C"/>
<path d="M32.0149 18.8099C32.1211 18.8383 32.2318 18.8456 32.3409 18.8313C32.4499 18.8169 32.555 18.7812 32.6502 18.7263C32.7454 18.6713 32.8289 18.5981 32.8958 18.5109C32.9627 18.4237 33.0118 18.3241 33.0403 18.2179C33.0687 18.1117 33.076 18.001 33.0616 17.892C33.0473 17.783 33.0116 17.6778 32.9566 17.5826C32.9016 17.4874 32.8284 17.404 32.7412 17.3371C32.654 17.2701 32.5544 17.2211 32.4482 17.1926C32.342 17.1641 32.2312 17.1569 32.1222 17.1712C32.0132 17.1856 31.9081 17.2212 31.8129 17.2762C31.7177 17.3312 31.6342 17.4044 31.5673 17.4916C31.5004 17.5788 31.4513 17.6784 31.4228 17.7846C31.3944 17.8908 31.3871 18.0015 31.4015 18.1105C31.4158 18.2195 31.4515 18.3246 31.5065 18.4198C31.5615 18.5151 31.6347 18.5985 31.7219 18.6654C31.8091 18.7323 31.9087 18.7814 32.0149 18.8099Z" fill="#86909C"/>
<path d="M4.88423 25.3272C4.91269 25.4334 4.96177 25.533 5.0287 25.6202C5.09562 25.7074 5.17907 25.7806 5.27427 25.8356C5.36948 25.8905 5.47458 25.9262 5.58358 25.9406C5.69257 25.9549 5.80333 25.9477 5.90952 25.9192C6.01571 25.8908 6.11525 25.8417 6.20247 25.7747C6.28969 25.7078 6.36288 25.6244 6.41785 25.5292C6.47281 25.434 6.50849 25.3289 6.52285 25.2199C6.5372 25.1109 6.52994 25.0001 6.50149 24.8939C6.47304 24.7877 6.42395 24.6882 6.35702 24.601C6.2901 24.5138 6.20665 24.4406 6.11145 24.3856C6.01624 24.3306 5.91114 24.295 5.80215 24.2806C5.69315 24.2663 5.5824 24.2735 5.47621 24.302C5.37001 24.3304 5.27047 24.3795 5.18325 24.4464C5.09603 24.5133 5.02285 24.5968 4.96788 24.692C4.91291 24.7872 4.87723 24.8923 4.86288 25.0013C4.84853 25.1103 4.85578 25.221 4.88423 25.3272Z" fill="#86909C"/>
<path d="M29.4982 11.1065C29.5557 11.321 29.696 11.5039 29.8883 11.6149C30.0806 11.7259 30.3091 11.756 30.5235 11.6985C30.738 11.641 30.9208 11.5007 31.0319 11.3085C31.1429 11.1162 31.173 10.8877 31.1155 10.6732C31.087 10.567 31.038 10.4675 30.971 10.3803C30.9041 10.2931 30.8207 10.2199 30.7255 10.1649C30.6303 10.1099 30.5252 10.0742 30.4162 10.0599C30.3072 10.0455 30.1964 10.0528 30.0902 10.0813C29.984 10.1097 29.8845 10.1588 29.7973 10.2257C29.71 10.2926 29.6369 10.3761 29.5819 10.4713C29.5269 10.5665 29.4912 10.6716 29.4769 10.7806C29.4625 10.8896 29.4698 11.0003 29.4982 11.1065Z" fill="#86909C"/>
<path d="M10.2787 30.9018C10.4357 31.0588 10.6486 31.147 10.8706 31.147C11.0926 31.1469 11.3056 31.0587 11.4626 30.9017C11.6196 30.7447 11.7077 30.5318 11.7077 30.3098C11.7077 30.0878 11.6195 29.8748 11.4625 29.7178C11.3848 29.6401 11.2925 29.5784 11.1909 29.5364C11.0894 29.4943 10.9805 29.4727 10.8706 29.4727C10.7606 29.4727 10.6518 29.4943 10.5502 29.5364C10.4487 29.5785 10.3564 29.6401 10.2786 29.7179C10.2009 29.7956 10.1392 29.8879 10.0972 29.9895C10.0551 30.091 10.0334 30.1999 10.0334 30.3098C10.0334 30.4198 10.0551 30.5286 10.0972 30.6302C10.1392 30.7317 10.2009 30.824 10.2787 30.9018Z" fill="#86909C"/>
<path d="M24.537 6.28067C24.6147 6.35841 24.707 6.42007 24.8085 6.46214C24.9101 6.50421 25.019 6.52586 25.1289 6.52586C25.2388 6.52586 25.3477 6.5042 25.4493 6.46213C25.5508 6.42006 25.6431 6.35839 25.7209 6.28065C25.7986 6.20292 25.8603 6.11063 25.9023 6.00906C25.9444 5.90749 25.966 5.79863 25.966 5.6887C25.966 5.57876 25.9444 5.4699 25.9023 5.36833C25.8602 5.26677 25.7986 5.17448 25.7208 5.09675C25.6431 5.01901 25.5508 4.95735 25.4492 4.91528C25.3477 4.87321 25.2388 4.85156 25.1289 4.85156C25.0189 4.85156 24.9101 4.87322 24.8085 4.91529C24.707 4.95736 24.6147 5.01903 24.5369 5.09677C24.4592 5.17451 24.3975 5.26679 24.3555 5.36836C24.3134 5.46993 24.2917 5.57879 24.2917 5.68873C24.2917 5.79866 24.3134 5.90752 24.3555 6.00909C24.3976 6.11065 24.4592 6.20294 24.537 6.28067Z" fill="#86909C"/>
<path d="M13.4792 4.27074C13.4792 4.49277 13.5674 4.7057 13.7244 4.86269C13.8814 5.01969 14.0944 5.10789 14.3164 5.10789C14.5384 5.10789 14.7514 5.01969 14.9083 4.86269C15.0653 4.7057 15.1535 4.49277 15.1535 4.27074C15.1535 4.04872 15.0653 3.83578 14.9083 3.67879C14.7514 3.52179 14.5384 3.43359 14.3164 3.43359C14.0944 3.43359 13.8814 3.52179 13.7244 3.67879C13.5674 3.83578 13.4792 4.04872 13.4792 4.27074Z" fill="#86909C"/>
<path d="M20.8464 31.7297C20.8464 31.9518 20.9346 32.1647 21.0916 32.3217C21.2486 32.4787 21.4616 32.5669 21.6836 32.5669C21.9056 32.5669 22.1185 32.4787 22.2755 32.3217C22.4325 32.1647 22.5207 31.9518 22.5207 31.7297C22.5207 31.5077 22.4325 31.2948 22.2755 31.1378C22.1185 30.9808 21.9056 30.8926 21.6836 30.8926C21.4616 30.8926 21.2486 30.9808 21.0916 31.1378C20.9346 31.2948 20.8464 31.5077 20.8464 31.7297Z" fill="#86909C"/>
<path d="M7.23496 8.36314C7.28993 8.45835 7.36311 8.5418 7.45033 8.60872C7.53755 8.67565 7.63709 8.72474 7.74328 8.75319C7.84947 8.78165 7.96023 8.78891 8.06922 8.77456C8.17822 8.76021 8.28332 8.72453 8.37853 8.66956C8.47373 8.61459 8.55718 8.54141 8.62411 8.45419C8.69103 8.36698 8.74012 8.26743 8.76857 8.16124C8.79703 8.05505 8.80429 7.9443 8.78994 7.8353C8.77559 7.72631 8.73991 7.6212 8.68494 7.526C8.62997 7.43079 8.55679 7.34734 8.46957 7.28042C8.38236 7.21349 8.28281 7.1644 8.17662 7.13595C8.07043 7.10749 7.95968 7.10023 7.85068 7.11458C7.74169 7.12893 7.63658 7.16461 7.54138 7.21958C7.44617 7.27455 7.36272 7.34773 7.2958 7.43495C7.22887 7.52216 7.17978 7.62171 7.15133 7.7279C7.12287 7.83409 7.11562 7.94484 7.12996 8.05384C7.14431 8.16284 7.17999 8.26794 7.23496 8.36314Z" fill="#86909C"/>
<path d="M27.3136 28.4745C27.3685 28.5697 27.4417 28.6531 27.5289 28.7201C27.6162 28.787 27.7157 28.8361 27.8219 28.8645C27.9281 28.893 28.0388 28.9002 28.1478 28.8859C28.2568 28.8715 28.3619 28.8359 28.4571 28.7809C28.5523 28.7259 28.6358 28.6527 28.7027 28.5655C28.7696 28.4783 28.8187 28.3788 28.8472 28.2726C28.8756 28.1664 28.8829 28.0556 28.8686 27.9466C28.8542 27.8376 28.8185 27.7325 28.7636 27.6373C28.7086 27.5421 28.6354 27.4587 28.5482 27.3917C28.461 27.3248 28.3614 27.2757 28.2552 27.2473C28.149 27.2188 28.0383 27.2116 27.9293 27.2259C27.8203 27.2403 27.7152 27.2759 27.62 27.3309C27.5248 27.3859 27.4413 27.4591 27.3744 27.5463C27.3075 27.6335 27.2584 27.733 27.2299 27.8392C27.2015 27.9454 27.1942 28.0562 27.2086 28.1652C27.2229 28.2742 27.2586 28.3793 27.3136 28.4745Z" fill="#86909C"/>
<path d="M3.84338 15.027C3.93859 15.082 4.04369 15.1176 4.15269 15.132C4.26168 15.1463 4.37244 15.1391 4.47863 15.1106C4.58482 15.0822 4.68436 15.0331 4.77158 14.9661C4.8588 14.8992 4.93198 14.8158 4.98695 14.7206C5.04191 14.6254 5.07759 14.5203 5.09194 14.4113C5.10629 14.3023 5.09903 14.1915 5.07058 14.0853C5.04212 13.9791 4.99303 13.8796 4.92611 13.7924C4.85918 13.7052 4.77574 13.632 4.68053 13.577C4.48825 13.466 4.25975 13.4359 4.04529 13.4934C3.83083 13.5508 3.64798 13.6911 3.53696 13.8834C3.42595 14.0757 3.39587 14.3042 3.45333 14.5187C3.5108 14.7331 3.6511 14.916 3.84338 15.027Z" fill="#86909C"/>
<path d="M31.3187 22.4254C31.4139 22.4804 31.519 22.5161 31.628 22.5304C31.737 22.5448 31.8478 22.5375 31.954 22.5091C32.0602 22.4806 32.1597 22.4315 32.2469 22.3646C32.3341 22.2977 32.4073 22.2142 32.4623 22.119C32.5173 22.0238 32.5529 21.9187 32.5673 21.8097C32.5816 21.7007 32.5744 21.59 32.5459 21.4838C32.5175 21.3776 32.4684 21.278 32.4014 21.1908C32.3345 21.1036 32.2511 21.0304 32.1559 20.9754C31.9636 20.8644 31.7351 20.8343 31.5206 20.8918C31.3062 20.9493 31.1233 21.0896 31.0123 21.2819C30.9013 21.4741 30.8712 21.7026 30.9287 21.9171C30.9861 22.1316 31.1264 22.3144 31.3187 22.4254Z" fill="#86909C"/>
<path d="M3.43359 21.6829C3.43359 21.9049 3.52179 22.1178 3.67879 22.2748C3.83578 22.4318 4.04872 22.52 4.27074 22.52C4.49277 22.52 4.7057 22.4318 4.86269 22.2748C5.01969 22.1178 5.10789 21.9049 5.10789 21.6829C5.10789 21.4608 5.01969 21.2479 4.86269 21.0909C4.7057 20.9339 4.49277 20.8457 4.27074 20.8457C4.04872 20.8457 3.83578 20.9339 3.67879 21.0909C3.52179 21.2479 3.43359 21.4608 3.43359 21.6829Z" fill="#86909C"/>
<path d="M30.8921 14.3176C30.8921 14.5396 30.9803 14.7526 31.1373 14.9096C31.2943 15.0666 31.5072 15.1548 31.7292 15.1548C31.9513 15.1548 32.1642 15.0666 32.3212 14.9096C32.4782 14.7526 32.5664 14.5396 32.5664 14.3176C32.5664 14.0956 32.4782 13.8827 32.3212 13.7257C32.1642 13.5687 31.9513 13.4805 31.7292 13.4805C31.5072 13.4805 31.2943 13.5687 31.1373 13.7257C30.9803 13.8827 30.8921 14.0956 30.8921 14.3176Z" fill="#86909C"/>
<path d="M7.21787 28.4569C7.27284 28.5521 7.34602 28.6356 7.43324 28.7025C7.52046 28.7694 7.62 28.8185 7.72619 28.8469C7.83238 28.8754 7.94314 28.8827 8.05213 28.8683C8.16113 28.854 8.26623 28.8183 8.36144 28.7633C8.45664 28.7083 8.54009 28.6352 8.60702 28.5479C8.67394 28.4607 8.72303 28.3612 8.75149 28.255C8.77994 28.1488 8.7872 28.038 8.77285 27.9291C8.7585 27.8201 8.72282 27.715 8.66785 27.6197C8.55684 27.4275 8.37399 27.2872 8.15953 27.2297C7.94507 27.1722 7.71657 27.2023 7.52429 27.3133C7.33201 27.4243 7.1917 27.6072 7.13424 27.8217C7.07678 28.0361 7.10686 28.2646 7.21787 28.4569Z" fill="#86909C"/>
<path d="M27.3312 8.38072C27.4422 8.573 27.625 8.71331 27.8395 8.77077C28.0539 8.82824 28.2824 8.79815 28.4747 8.68714C28.667 8.57613 28.8073 8.39328 28.8648 8.17882C28.9222 7.96436 28.8921 7.73586 28.7811 7.54358C28.6701 7.3513 28.4873 7.21099 28.2728 7.15353C28.0584 7.09606 27.8299 7.12615 27.6376 7.23716C27.4453 7.34817 27.305 7.53102 27.2475 7.74548C27.1901 7.95994 27.2201 8.18844 27.3312 8.38072Z" fill="#86909C"/>
<path d="M13.8822 32.4645C14.0745 32.5755 14.303 32.6056 14.5174 32.5481C14.7319 32.4907 14.9147 32.3503 15.0258 32.1581C15.1368 31.9658 15.1669 31.7373 15.1094 31.5228C15.0519 31.3084 14.9116 31.1255 14.7193 31.0145C14.6241 30.9595 14.519 30.9239 14.41 30.9095C14.301 30.8952 14.1903 30.9024 14.0841 30.9309C13.9779 30.9593 13.8784 31.0084 13.7911 31.0753C13.7039 31.1423 13.6307 31.2257 13.5758 31.3209C13.5208 31.4161 13.4851 31.5212 13.4708 31.6302C13.4564 31.7392 13.4637 31.85 13.4921 31.9562C13.5206 32.0624 13.5697 32.1619 13.6366 32.2491C13.7035 32.3363 13.787 32.4095 13.8822 32.4645Z" fill="#86909C"/>
<path d="M21.2794 4.98792C21.4717 5.09893 21.7002 5.12902 21.9147 5.07155C22.1291 5.01409 22.312 4.87378 22.423 4.6815C22.534 4.48922 22.5641 4.26072 22.5066 4.04626C22.4491 3.8318 22.3088 3.64895 22.1166 3.53794C22.0214 3.48297 21.9163 3.44729 21.8073 3.43294C21.6983 3.41859 21.5875 3.42585 21.4813 3.45431C21.2669 3.51177 21.084 3.65208 20.973 3.84436C20.862 4.03664 20.8319 4.26514 20.8894 4.4796C20.9468 4.69406 21.0871 4.87691 21.2794 4.98792Z" fill="#86909C"/>
<path d="M9 22.32C9 22.4194 9.08059 22.5 9.18 22.5H10.9955C11.0949 22.5 11.1755 22.4194 11.1755 22.32V19.7333C11.1755 19.6859 11.1567 19.6403 11.1233 19.6066L9.30785 17.7748C9.19469 17.6606 9 17.7407 9 17.9015V22.32ZM14.2988 18.7171C14.2189 18.6366 14.2323 18.5032 14.3268 18.4403L17.7147 16.1858C17.7627 16.1535 17.7915 16.0995 17.7915 16.0416V13.8364C17.7915 13.6926 17.6312 13.6069 17.5116 13.6866L12.7034 16.8932C12.6332 16.9401 12.5398 16.9318 12.4788 16.8733L9.12356 13.6495C9.10997 13.6364 9.09185 13.6291 9.07299 13.6291C9.03268 13.6291 9 13.6618 9 13.7021V16.3829C9 16.4303 9.01874 16.4759 9.05215 16.5096L14.9361 22.4467C14.9699 22.4808 15.0159 22.5 15.064 22.5H17.6274C17.7875 22.5 17.8679 22.3066 17.755 22.1931L14.2988 18.7171Z" fill="#4E5969"/>
<path d="M19.3475 22.32C19.3475 22.4194 19.4281 22.5 19.5275 22.5H21.3429C21.4424 22.5 21.5229 22.4194 21.5229 22.32V19.488C21.5229 19.4405 21.5042 19.395 21.4708 19.3613L19.6553 17.5294C19.5422 17.4152 19.3475 17.4954 19.3475 17.6561V22.32ZM25.0045 13.6291C24.9051 13.6291 24.8245 13.7097 24.8245 13.8091V16.7935C24.8245 16.8929 24.7439 16.9735 24.6445 16.9735H23.2484C23.2006 16.9735 23.1548 16.9545 23.121 16.9207L21.5756 15.3734C21.5419 15.3396 21.5229 15.2939 21.5229 15.2462V13.8091C21.5229 13.7097 21.4424 13.6291 21.3429 13.6291H19.5275C19.4281 13.6291 19.3475 13.7097 19.3475 13.8091V16.1507C19.3475 16.198 19.3661 16.2434 19.3993 16.2771L22.2123 19.1279C22.2461 19.1622 22.2923 19.1815 22.3404 19.1815H24.6445C24.7439 19.1815 24.8245 19.2621 24.8245 19.3615V22.32C24.8245 22.4194 24.9051 22.5 25.0045 22.5H26.82C26.9194 22.5 27 22.4194 27 22.32V13.8091C27 13.7097 26.9194 13.6291 26.82 13.6291H25.0045Z" fill="#4E5969"/>
</svg>
