<?xml version="1.0" standalone="no"?><!DOCTYPE svg PUBLIC "-//W3C//DTD SVG 1.1//EN" "http://www.w3.org/Graphics/SVG/1.1/DTD/svg11.dtd"><svg t="1584503112886" class="icon" viewBox="0 0 1024 1024" version="1.1" xmlns="http://www.w3.org/2000/svg" p-id="1864" xmlns:xlink="http://www.w3.org/1999/xlink" width="200" height="200"><defs><style type="text/css"></style></defs><path d="M399.47377778 231.87911111c0-30.03733333 35.38488889-30.03733333 35.38488889-30.03733333h153.6s36.29511111 0 36.29511111 30.03733333-34.816 30.03733333-34.816 30.03733334H434.97244445s-35.49866667 0-35.49866667-30.03733334zM136.87466667 452.94933333l0.34133333-120.03555555s8.87466667-70.54222222 72.59022222-70.54222223h34.92977778s29.696-2.38933333 29.696-26.28266666c0-34.36088889-29.01333333-34.36088889-29.01333333-34.36088889h-35.38488889s-117.30488889-3.072-134.37155556 128.91022222v122.31111111s0.79644445 27.30666667 30.15111111 27.30666667c30.83377778 0 31.06133333-27.30666667 31.06133334-27.30666667z m782.56355555 27.30666667c29.35466667 0 30.15111111-27.30666667 30.15111111-27.30666667V330.63822222c-17.06666667-131.98222222-134.37155555-128.91022222-134.37155555-128.91022222h-35.38488889s-29.01333333 0-29.01333334 34.36088889c0 23.89333333 29.696 26.28266667 29.696 26.28266666h34.92977778c63.71555555 0 72.59022222 70.54222222 72.59022222 70.54222223l0.34133334 120.03555555s0.34133333 27.30666667 31.06133333 27.30666667z m28.10311111 57.45777778v354.19022222c0 115.14311111-122.19733333 113.89155555-122.19733333 113.89155555H189.78133333c-116.28088889 0-112.98133333-111.72977778-112.98133333-111.72977777V537.6c0-21.84533333 17.18044445-21.95911111 26.85155555-20.82133333 268.288 31.97155555 410.16888889 250.53866667 410.1688889 250.53866666 137.44355555-211.968 379.904-251.33511111 407.21066666-251.33511111 27.76177778 0 26.51022222 21.73155555 26.51022222 21.73155556zM473.65688889 822.38577778C354.75911111 618.83733333 135.168 582.08711111 135.168 582.08711111V884.05333333c0 61.09866667 70.31466667 64.05688889 70.31466667 64.05688889h213.78844444c13.88088889-48.128 54.38577778-125.72444445 54.38577778-125.72444444z m68.72177778 125.72444444l-28.55822222-75.88977777-32.08533334 75.88977777h60.64355556z m346.68088888-366.02311111s-219.59111111 36.75022222-338.48888888 240.29866667c0 0 40.50488889 77.59644445 54.49955555 125.72444444h213.78844445s70.31466667-2.84444445 70.31466666-64.05688889V582.08711111zM359.424 265.67111111s-26.16888889-189.55377778 150.98311111-189.55377778 154.73777778 189.55377778 154.73777778 189.55377778 2.95822222 28.21688889 29.58222222 28.21688889c26.51022222 0 28.55822222-26.05511111 28.55822222-26.05511111S751.16088889 17.97688889 510.40711111 17.97688889C271.92888889 17.97688889 301.16977778 266.24 301.16977778 266.24s-0.45511111 27.76177778 30.26488889 27.76177778c28.78577778-0.11377778 27.98933333-28.33066667 27.98933333-28.33066667z" p-id="1865"></path></svg>