<svg width="24" height="24" viewBox="0 0 24 24" fill="none" xmlns="http://www.w3.org/2000/svg">
<path d="M20.2244 3.37846C19.5621 3.31361 18.8763 3.40812 18.2117 3.37846C17.547 3.3488 16.8864 3.39152 16.2209 3.37846C15.5553 3.3654 14.8732 3.38422 14.2082 3.37846C13.5431 3.37271 12.8806 3.38068 12.2173 3.37846C11.554 3.37625 10.8638 3.37868 10.2046 3.37846C9.54548 3.37824 8.86291 3.37691 8.21382 3.37846C7.56472 3.38001 6.82856 3.37404 6.20112 3.37846C5.57368 3.38289 4.86071 3.34637 4.30262 3.47187C3.74476 3.59758 3.36956 3.80121 2.93486 4.12436C2.50016 4.44729 2.26827 4.714 1.99568 5.18832C1.72309 5.66264 1.55639 6.14781 1.51941 6.74276C1.48244 7.33771 1.50016 8.0949 1.49754 8.73478C1.49491 9.37466 1.49863 10.1166 1.49754 10.7711C1.49644 11.4256 1.49797 12.1298 1.49754 12.7852C1.4971 13.4406 1.49732 14.1537 1.49754 14.7994C1.49775 15.445 1.49688 16.2186 1.49754 16.8357C1.49819 17.4527 1.60167 18.0023 1.83072 18.5127C2.05978 19.0233 2.28205 19.3106 2.68437 19.6854C3.08669 20.0603 3.40107 20.2464 3.93268 20.4366C4.46408 20.6269 5.11908 20.6535 5.7417 20.6426C6.36432 20.6318 7.08583 20.6475 7.73252 20.6426C8.37921 20.6378 9.08868 20.6451 9.74522 20.6426C10.4018 20.6402 11.0764 20.644 11.736 20.6426C12.3956 20.6413 13.0915 20.644 13.7487 20.6426C14.4059 20.6413 15.0916 20.6451 15.7396 20.6426C16.3876 20.6404 17.1259 20.6473 17.7523 20.6426C18.3786 20.638 19.0994 20.6763 19.6551 20.5537C20.2106 20.4308 20.5976 20.2487 21.0284 19.9288C21.4593 19.609 21.7181 19.333 21.9899 18.8653C22.2613 18.3974 22.4276 17.9308 22.4777 17.3447C22.5278 16.7586 22.4904 15.959 22.4996 15.3306C22.5088 14.7022 22.4948 13.9506 22.4996 13.3164C22.5044 12.6823 22.4961 11.8928 22.4996 11.2801C22.5031 10.6675 22.4248 10.0781 22.2001 9.56922C21.9752 9.06014 21.7715 8.74983 21.3784 8.36404C20.9853 7.97848 20.6619 7.80982 20.1417 7.6011C19.6214 7.39238 18.9839 7.35099 18.3648 7.3625C17.7457 7.37401 17.0185 7.35741 16.374 7.3625C15.7295 7.36759 15.0152 7.36007 14.3613 7.3625C13.7074 7.36494 13.025 7.36139 12.3705 7.3625C11.7159 7.36361 11.029 7.36184 10.3797 7.3625C9.73034 7.36317 8.99964 7.36162 8.36696 7.3625C7.73427 7.36339 6.97798 7.35431 6.3908 7.37733C5.80361 7.40035 5.41332 7.87467 5.4573 8.42491C5.50149 8.97515 5.93247 9.37577 6.52928 9.35452C7.12609 9.33327 7.90732 9.36448 8.54197 9.35452C9.17663 9.34456 9.88151 9.35961 10.5328 9.35452C11.1841 9.34943 11.8887 9.35806 12.5455 9.35452C13.2022 9.35098 13.8809 9.35917 14.5363 9.35452C15.1917 9.34987 15.9025 9.36315 16.549 9.35452C17.1955 9.34589 17.9168 9.37333 18.5398 9.35452C19.1629 9.33571 19.6359 9.40587 20.0658 9.84699C20.4959 10.2879 20.5532 10.7662 20.5306 11.3908C20.5081 12.0154 20.5521 12.7905 20.5306 13.4271C20.5092 14.0637 20.5657 14.8186 20.5306 15.4412C20.4956 16.0639 20.623 16.8461 20.4854 17.4096C20.3478 17.9729 20.0723 18.2595 19.5613 18.5109C19.0504 18.7626 18.3246 18.6258 17.7085 18.6506C17.0924 18.6754 16.339 18.6391 15.6958 18.6506C15.0526 18.6621 14.3602 18.6449 13.705 18.6506C13.0498 18.6564 12.351 18.6468 11.6923 18.6506C11.0336 18.6544 10.358 18.6466 9.70146 18.6506C9.04493 18.6546 8.33633 18.6435 7.68877 18.6506C7.0412 18.6577 6.32276 18.6356 5.69795 18.6506C5.07314 18.6657 4.51811 18.6783 4.06219 18.2693C3.60627 17.8602 3.45751 17.4884 3.46648 16.8578C3.47545 16.2272 3.46079 15.4733 3.46648 14.8215C3.47217 14.1697 3.46013 13.4652 3.46648 12.8074C3.47282 12.1495 3.45554 11.4479 3.46648 10.7932C3.47742 10.1387 3.44394 9.39503 3.46648 8.75692C3.48901 8.11881 3.40675 7.35453 3.48836 6.7649C3.57018 6.17548 3.82483 5.8738 4.31794 5.56791C4.81127 5.26225 5.49755 5.3873 6.11361 5.37048C6.72967 5.35366 7.48268 5.37801 8.12631 5.37048C8.76993 5.36296 9.46125 5.3738 10.1171 5.37048C10.773 5.36716 11.4696 5.37159 12.1298 5.37048C12.7901 5.36938 13.4608 5.37026 14.1206 5.37048C14.7805 5.3707 15.4788 5.36871 16.1333 5.37048C16.7879 5.37225 17.4838 5.36583 18.1242 5.37048C18.7645 5.37513 19.5278 5.3603 20.1369 5.37048C20.7459 5.38066 21.1154 4.94994 21.1697 4.4017C21.2242 3.85345 20.719 3.42693 20.2244 3.37846Z" fill="black"/>
<path d="M17.3147 12.6746C16.2926 12.6303 15.6273 13.7837 16.106 14.65C16.5844 15.5165 17.8015 15.5477 18.3447 14.7347C18.8881 13.9218 18.2998 12.7173 17.3147 12.6746Z" fill="black"/>
</svg>
