<?xml version="1.0" standalone="no"?><!DOCTYPE svg PUBLIC "-//W3C//DTD SVG 1.1//EN" "http://www.w3.org/Graphics/SVG/1.1/DTD/svg11.dtd"><svg class="icon" width="200px" height="200.00px" viewBox="0 0 1024 1024" version="1.1" xmlns="http://www.w3.org/2000/svg"><path d="M829.59338886 15.65742398H197.16829235c-69.04204071 0-124.27567408 55.23363335-124.27567408 124.27567406v748.41572566c0 69.04204071 55.23363335 124.27567408 124.27567408 124.27567408h383.87374836c207.12612347 0 372.82702222-165.70089876 372.82702223-372.82702222V139.93309804c0-69.04204071-55.23363335-124.27567408-124.27567408-124.27567406zM871.01861357 639.79747556c0 160.17753504-129.7990378 289.97657283-289.97657286 289.97657284H197.16829235c-22.0934536 0-41.42522469-19.33177108-41.4252247-41.4252247V139.93309804c0-22.0934536 19.33177108-41.42522469 41.4252247-41.42522468h632.42509651c22.0934536 0 41.42522469 19.33177108 41.42522471 41.42522468v499.86437752z"  /><path d="M735.69621333 280.77886199H318.68228521c-22.0934536 0-41.42522469 19.33177108-41.4252247 41.4252247s19.33177108 41.42522469 41.4252247 41.42522468h417.01392812c22.0934536 0 41.42522469-19.33177108 41.4252247-41.42522468s-16.57008987-41.42522469-41.4252247-41.4252247zM556.18690591 567.99375233H318.68228521c-22.0934536 0-41.42522469 19.33177108-41.4252247 41.42522469s19.33177108 41.42522469 41.4252247 41.42522469h237.5046207c22.0934536 0 41.42522469-19.33177108 41.42522469-41.42522469s-19.33177108-41.42522469-41.42522469-41.42522469z"  /></svg>