<?xml version="1.0" standalone="no"?><!DOCTYPE svg PUBLIC "-//W3C//DTD SVG 1.1//EN" "http://www.w3.org/Graphics/SVG/1.1/DTD/svg11.dtd"><svg t="1582356125336" class="icon" viewBox="0 0 1024 1024" version="1.1" xmlns="http://www.w3.org/2000/svg" p-id="1039" xmlns:xlink="http://www.w3.org/1999/xlink" width="200" height="200"><defs><style type="text/css"></style></defs><path d="M816.18987455 848.17689167c-18.34879985 0-33.08799985 14.28800015-33.08799985 31.88479955v63.76960016c0 17.67199956 14.7392 31.95999971 33.08799985 31.96000073 18.27359971 0 33.08799985-14.28800015 33.08800088-31.96000073v-63.76960016a32.48639971 32.48639971 0 0 0-33.08800088-31.88479955z m141.00000088-31.95999971c-18.34879985 0-33.08799985 14.28800015-33.08800088 31.88479956v95.72959986c0 17.67199956 14.7392 31.88479956 33.08800088 31.88480058 18.27359971 0 33.08799985-14.28800015 33.08799985-31.88480058v-95.72959986a32.48639971 32.48639971 0 0 0-33.08799985-31.88479956z m0-266.80959985c-18.34879985 0-33.08799985 14.28800015-33.08800088 31.95999971v63.76960013c0 17.59680044 14.7392 31.88479956 33.08800088 31.88479957 18.27359971 0 33.08799985-14.28800015 33.08799985-31.88479957v-63.76960013a32.48639971 32.48639971 0 0 0-33.08799985-31.95999971z m-141.0752 0c-18.27359971 0-33.08799985 14.28800015-33.08800088 31.95999971v127.61439941c0 17.59680044 14.81440015 31.88479956 33.08800088 31.88480059 18.34879985 0 33.08799985-14.28800015 33.08799985-31.88480059V581.36729182a32.48639971 32.48639971 0 0 0-33.08799985-31.95999971z m-142.88000044 234.99999941a32.48639971 32.48639971 0 0 0-33.01279971 31.80960044v127.61439942c0 17.67199956 14.81440015 31.88479956 33.08799986 31.88480058 18.34879985 0 33.08799985-14.28800015 33.08799985-31.88480058v-127.61439942a32.48639971 32.48639971 0 0 0-33.08799985-31.80960044z m0-234.99999941c-18.19839956 0-33.01279971 14.28800015-33.01279971 31.95999971v31.88479955c0 17.59680044 14.81440015 31.88479956 33.08799986 31.88480058 18.34879985 0 33.08799985-14.28800015 33.08799985-31.88480058v-31.88479955a32.48639971 32.48639971 0 0 0-33.08799985-31.95999971z" p-id="1040"></path><path d="M918.46187484 98.20729196H640.22187528v292.07679986h278.23999956V98.20729196z m75.19999986 297.9424c0 38.27679971-31.13280015 69.33439971-69.56000015 69.33439971H634.6570747a69.4848 69.4848 0 0 1-69.63519927-69.33439971v-303.80800015c0-38.35199985 31.20800029-69.33439971 69.63519927-69.33439971h289.44479985c38.4272 0 69.56000015 31.0576 69.56000015 69.33439971v303.80800015zM392.06187484 98.20729196H113.82187528v292.07679986h278.23999956V98.20729196z m75.19999986 297.9424c0 38.27679971-31.13280015 69.33439971-69.56000015 69.33439971H108.2570747A69.4848 69.4848 0 0 1 38.62187543 396.14969196v-303.80800015C38.62187543 53.98969196 69.8298747 23.0072921 108.2570747 23.0072921h289.44479985c38.4272 0 69.56000015 31.0576 69.56000015 69.33439971v303.80800015zM392.06187484 916.68409181V624.60729195H113.82187528v292.07679986h278.23999956z m75.19999986 5.86560015c0 38.27679971-31.13280015 69.33439971-69.56000015 69.33439971H108.2570747a69.4848 69.4848 0 0 1-69.63519927-69.33439971v-303.80800014c0-38.35199985 31.20800029-69.33439971 69.63519927-69.33439971h289.44479985c38.4272 0 69.56000015 31.0576 69.56000015 69.33439971v303.80800014z" p-id="1041"></path></svg>