<?xml version="1.0" standalone="no"?><!DOCTYPE svg PUBLIC "-//W3C//DTD SVG 1.1//EN" "http://www.w3.org/Graphics/SVG/1.1/DTD/svg11.dtd"><svg class="icon" width="200px" height="200.00px" viewBox="0 0 1024 1024" version="1.1" xmlns="http://www.w3.org/2000/svg"><path d="M515.83253814 509.35103971m-490.81141677 0a490.81141677 490.81141677 0 1 0 981.62283251 0 490.81141677 490.81141677 0 1 0-981.62283251 0Z" fill="#0ABB87" /><path d="M715.77265323 811.9383534H315.89594525c-29.86068314 0-54.03948776-24.18232683-54.03948775-54.04300996V260.79969156c0-29.8571599 24.17880461-54.03948776 54.03948775-54.03948673h54.04300998v189.13996723c0 5.9812952 2.40590412 11.34966615 6.35116327 15.29844751l58.4849491-58.48142689 58.48142691 58.48142689a21.63552091 21.63552091 0 0 0 6.35820872-15.29844751V206.76372705h216.16147221c29.8571599 0 54.03596452 24.18232683 54.03596452 54.03948775v497.09565085c-0.0035222 29.8571599-24.18585007 54.03948776-54.03948673 54.03948775z m-64.83963562-286.36243333H391.5286833c-14.92505723 0-27.01798277 12.09292452-27.01798277 27.02150499s12.09292452 27.01798277 27.01798277 27.01798173h259.40785651c14.92858047 0 27.01798277-12.08940231 27.01798278-27.01798173s-12.08940231-27.02150499-27.02150498-27.02150499z m0 129.67222476H391.5286833a27.01445953 27.01445953 0 0 0-27.01798277 27.02150499 27.01445953 27.01445953 0 0 0 27.01798277 27.01798277h259.40785651a27.01093733 27.01093733 0 0 0 27.01798278-27.01798277 27.01798277 27.01798277 0 0 0-27.02150498-27.02150499z m0 0" fill="#FFFFFF" /></svg>