<?xml version="1.0" standalone="no"?><!DOCTYPE svg PUBLIC "-//W3C//DTD SVG 1.1//EN" "http://www.w3.org/Graphics/SVG/1.1/DTD/svg11.dtd"><svg t="1609316280442" class="icon" viewBox="0 0 1024 1024" version="1.1" xmlns="http://www.w3.org/2000/svg" p-id="3807" xmlns:xlink="http://www.w3.org/1999/xlink" width="200" height="200"><defs><style type="text/css"></style></defs><path d="M809.624 72H214.376C135.744 72 72 135.738 72 214.364v437.177c0 78.625 63.744 142.364 142.376 142.364h595.248c78.632 0 142.376-63.739 142.376-142.364V214.364C952 135.738 888.256 72 809.624 72zM880 650.541c0 39.799-31.571 71.365-70.376 71.365H214.376c-38.806 0-70.376-31.565-70.376-70.364V214.364C144 175.565 175.571 144 214.376 144h595.248C848.429 144 880 175.565 880 213.364v437.177zM638.467 866.948H385.533c-19.33 0-35 15.67-35 35s15.67 35 35 35h252.934c19.33 0 35-15.67 35-35s-15.67-35-35-35z" p-id="3808"></path><path d="M759.647 323.193c-14.433-13.673-37.22-13.059-50.894 1.376l-135.78 143.326L468.81 356.533a36 36 0 0 0-51.747-0.864L263.655 509.076c-14.059 14.059-14.059 36.854 0 50.912 7.029 7.029 16.243 10.544 25.456 10.544s18.427-3.515 25.456-10.544l127.087-127.087 104.859 112.107a36.001 36.001 0 0 0 26.178 11.408h0.114a36.005 36.005 0 0 0 26.135-11.241l162.083-171.089c13.674-14.433 13.058-37.219-1.376-50.893z" p-id="3809"></path></svg>