<?xml version="1.0" standalone="no"?><!DOCTYPE svg PUBLIC "-//W3C//DTD SVG 1.1//EN" "http://www.w3.org/Graphics/SVG/1.1/DTD/svg11.dtd"><svg class="icon" width="200px" height="200.00px" viewBox="0 0 1024 1024" version="1.1" xmlns="http://www.w3.org/2000/svg"><path fill="#15E49E" d="M484.22400002 459.19573333c12.78293333 3.46453333 31.8976 8.72106667 57.46346666 15.53066666 9.07946666 1.79200001 15.53066666 3.46453333 19.11466666 5.25653334 63.7952 17.32266667 94.02026666 58.89706668 90.3168 124.72319999-1.79200001 77.4144-46.95040001 117.67466667-134.63893332 121.37813335v28.19413333c0 14.81386667-12.06613332 26.88-26.88 26.87999999s-26.88-12.06613332-26.88000001-26.87999999v-27.71626667c-78.4896-5.7344-123.52853333-47.06986667-134.51946667-124.48426666l101.30773334-15.53066667c5.49546667 36.31786668 28.3136 54.59626667 68.4544 54.59626667 34.64533332 0 51.968-14.69440001 51.96800001-44.20266667 1.79200001-18.9952-20.0704-33.80906667-65.70666667-44.20266667-9.19893334-1.67253333-23.77386667-6.0928-43.84426668-13.02186666-12.78293333-5.13706667-21.8624-8.6016-27.35786665-10.3936-47.42826667-17.32266667-72.15786667-52.80426667-73.94986667-106.56426667 1.67253333-76.6976 43.24693333-117.91360001 123.52853333-124.7232v-28.3136c0-14.81386667 12.06613332-26.88 26.87999999-26.87999999s26.88 12.06613332 26.88 26.87999999v29.14986667c66.54293333 8.36266667 107.1616 45.1584 121.01973334 110.98453333l-101.30773333 10.39360001c-5.49546667-25.92426667-22.81813333-38.94613333-51.96800001-38.94613334-25.56586667 0-39.30453334 12.1856-41.09653332 36.31786665-1.67253333 19.11466667 12.06613332 32.85333334 41.216 41.57440001z m409.05386666 25.92426667c-0.47786666 0-0.95573333 0.11946667-1.31413334 0.11946667C878.10560001 274.73919999 703.56480002 108.32213334 489.60000002 108.32213334c-222.9248 0-403.67786666 180.75306667-403.67786667 403.67786666S266.67520001 915.67786666 489.60000002 915.67786666c59.136 0 115.16586667-13.02186667 165.81973333-35.83999999 8.48213333 16.128 18.51733332 31.30026667 29.98613334 45.27786666C625.91146669 953.30986666 559.72693334 969.55733334 489.60000002 969.55733334c-252.672 0-457.55733334-204.88533333-457.55733334-457.55733334s204.88533333-457.55733334 457.55733334-457.55733334c245.38453333 0 445.01333333 193.29706667 456.48213333 435.93386667-17.08373333-3.46453333-34.64533332-5.25653333-52.80426667-5.25653333z"  /><path fill="#15E49E" d="M989.20960001 768.73386667c-9.91573333-15.4112-24.13226667-26.64106668-42.88853333-33.45066667 12.9024-5.7344 23.41546668-14.21653333 31.30026667-25.32693333 9.6768-13.6192 14.57493333-29.50826666 14.57493333-47.42826667 0-37.03466667-13.49973334-65.10933334-40.49919999-84.10453333-21.26506667-15.0528-47.3088-22.69866667-78.13120001-22.69866666-42.05226667 0-74.06933333 11.46880001-95.93173333 34.52586667-20.54826667 21.62346667-30.70293333 51.01226666-30.70293334 88.40533332H816.93866668c0-15.0528 2.1504-27.35786667 6.4512-36.67626667 7.88479999-17.2032 23.05706666-25.92426667 45.27786667-25.92426665 18.2784 0 31.65866666 6.4512 39.90186666 19.3536 5.376 8.24320001 8.12373333 18.15893333 8.12373334 29.62773331 0 21.98186666-7.88479999 36.79573333-23.77386667 44.80000001-8.96 4.65919999-22.45973333 7.04853334-40.4992 7.04853333h-11.8272v53.87946667c25.20746666 0 43.84426667 2.5088 56.02986666 7.52640001 19.712 8.24320001 29.62773334 23.89333333 29.62773334 46.95039999 0 20.54826667-5.7344 36.43733333-17.2032 48.0256-10.0352 10.0352-23.17653334 15.0528-39.30453333 15.0528-22.34026667 0-38.10986666-8.6016-47.42826667-25.92426667-5.7344-10.752-8.48213333-24.61013333-8.12373333-41.57440001h-73.83040001c0 51.72906667 17.80053333 88.04693333 53.40160001 108.95360001 21.14560001 12.544 47.78666666 18.87573334 79.80373333 18.87573334 38.82666667 0 70.2464-11.46880001 94.37866667-34.52586667 24.13226667-23.05706666 36.07893334-52.6848 36.07893333-89.00266667 0-22.10133334-4.89813333-40.97706667-14.81386667-56.38826666z"  /></svg>