<?xml version="1.0" standalone="no"?><!DOCTYPE svg PUBLIC "-//W3C//DTD SVG 1.1//EN" "http://www.w3.org/Graphics/SVG/1.1/DTD/svg11.dtd"><svg t="1582984413379" class="icon" viewBox="0 0 1024 1024" version="1.1" xmlns="http://www.w3.org/2000/svg" p-id="2939" xmlns:xlink="http://www.w3.org/1999/xlink" width="200" height="200"><defs><style type="text/css"></style></defs><path d="M188.652 496.246c12.529 13.742 12.529 34.766 0 48.508l-58.972 64.683a389.889 389.889 0 0 0 25.608 69.993l82.57 16.992c18.224 3.75 30.588 20.769 28.521 39.26l-8.473 75.824a393.685 393.685 0 0 0 71.623 47.706l65.676-29.795c16.956-7.692 36.98-1.185 46.176 15.005l32.333 56.927A398.412 398.412 0 0 0 510 903c20.22 0 40.233-1.524 59.924-4.534l30.695-54.044c9.195-16.19 29.22-22.697 46.176-15.005l53.755 24.387a394.423 394.423 0 0 0 81.54-60.226l-6.47-57.897c-2.066-18.49 10.298-35.509 28.522-39.26l58.118-11.959a389.868 389.868 0 0 0 32.55-94.23l-41.462-45.478c-12.529-13.742-12.529-34.766 0-48.508l44.674-49a389.868 389.868 0 0 0-25.186-88.532l-68.694-14.136c-18.224-3.75-30.588-20.769-28.521-39.26l8.587-76.848a394.894 394.894 0 0 0-63.633-50.359l-73.78 33.472c-16.956 7.692-36.98 1.185-46.176-15.005l-43.62-76.8A397.422 397.422 0 0 0 510 117c-7.975 0-15.919 0.237-23.824 0.71l-44.795 78.868c-9.195 16.19-29.22 22.697-46.176 15.005l-86.454-39.221a394.262 394.262 0 0 0-52.99 37.94l10.618 95.017c2.067 18.49-10.297 35.509-28.52 39.26l-92.719 19.08a389.694 389.694 0 0 0-19.415 63.566l62.927 69.02z m-75.32 24.254l-52.948-58.076a36 36 0 0 1-8.896-30.239 461.85 461.85 0 0 1 35.228-114.936 36 36 0 0 1 25.498-20.324l78.963-16.25-9.039-80.889a36 36 0 0 1 11.261-30.36 466.216 466.216 0 0 1 96.474-69.117 36 36 0 0 1 31.938-1.086l73.2 33.209 37.94-66.8a36 36 0 0 1 27.51-18.021A469.881 469.881 0 0 1 510 45c25.42 0 50.595 2.043 75.357 6.08a36 36 0 0 1 25.51 17.752l36.122 63.6 61.09-27.715a36 36 0 0 1 32.77 1.548c39.674 22.73 75.809 51.215 107.208 84.449a36 36 0 0 1 9.61 28.721l-6.844 61.24 54.64 11.245a36 36 0 0 1 25.303 19.901c21.194 44.926 35.08 93.087 40.987 142.967a36 36 0 0 1-9.147 28.487L928.667 520.5l31.387 34.426a36 36 0 0 1 8.933 30.016 462.039 462.039 0 0 1-51.194 148.675 36 36 0 0 1-24.295 17.925l-42.675 8.782 4.743 42.448a36 36 0 0 1-9.784 28.905c-36.917 38.526-80.202 70.502-127.935 94.39a36 36 0 0 1-30.984 0.59l-39.874-18.089-22.843 40.219a36 36 0 0 1-24.391 17.551C570.388 972.084 540.37 975 510 975c-21.343 0-42.517-1.44-63.422-4.293a36 36 0 0 1-26.436-17.89l-25.13-44.249-51.222 23.238a36 36 0 0 1-30.087-0.157c-43.148-20.12-82.942-46.779-118-78.946a36 36 0 0 1-11.438-30.524l6.912-61.855-67.43-13.876a36 36 0 0 1-24.526-18.354 462.005 462.005 0 0 1-44.154-121.435 36 36 0 0 1 8.618-31.703l49.648-54.456zM512 689c-97.754 0-177-79.246-177-177s79.246-177 177-177 177 79.246 177 177-79.246 177-177 177z m0-72c57.99 0 105-47.01 105-105s-47.01-105-105-105-105 47.01-105 105 47.01 105 105 105z" p-id="2940"></path></svg>