<?xml version="1.0" standalone="no"?><!DOCTYPE svg PUBLIC "-//W3C//DTD SVG 1.1//EN" "http://www.w3.org/Graphics/SVG/1.1/DTD/svg11.dtd"><svg class="icon" width="200px" height="195.61px" viewBox="0 0 1047 1024" version="1.1" xmlns="http://www.w3.org/2000/svg"><path d="M236.099858 19.328598m-19.328598 0a19.328598 19.328598 0 1 0 38.657195 0 19.328598 19.328598 0 1 0-38.657195 0Z" fill="#FFAF00" /><path d="M1010.490765 403.61437m-36.578851 0a36.578851 36.578851 0 1 0 73.157702 0 36.578851 36.578851 0 1 0-73.157702 0Z" fill="#FFAF00" /><path d="M355.188959 166.683174m-19.328598 0a19.328598 19.328598 0 1 0 38.657195 0 19.328598 19.328598 0 1 0-38.657195 0Z" fill="#8BC17D" /><path d="M255.428455 768.571545m-255.428455 0a255.428455 255.428455 0 1 0 510.856911 0 255.428455 255.428455 0 1 0-510.856911 0Z" fill="#FFAF00" /><path d="M831.753197 978.068602H220.096611a120.751776 120.751776 0 0 1-120.751776-120.751776V648.027603a24.108788 24.108788 0 0 1 48.217576 0v209.289223a72.326365 72.326365 0 0 0 72.5342 72.326365h611.656586a72.534199 72.534199 0 0 0 72.534199-72.326365V648.027603a24.108788 24.108788 0 0 1 48.217577 0v209.289223a120.95961 120.95961 0 0 1-120.751776 120.751776zM236.099858 591.704485c-75.443881 0-136.755023-62.973818-136.755023-140.496042V149.017252A24.316623 24.316623 0 0 1 123.453623 124.700629h225.29247a24.316623 24.316623 0 0 1 24.108788 24.316623v302.191191c0 77.522224-61.311143 140.496042-136.755023 140.496042zM147.562411 173.12604v278.082403c0 50.919424 39.696367 92.070631 88.537447 92.070631s88.537447-41.151208 88.537447-92.070631V173.12604zM525.820986 591.704485c-75.443881 0-136.755023-62.973818-136.755023-140.496042V149.017252A24.316623 24.316623 0 0 1 413.174751 124.700629h225.500305a24.316623 24.316623 0 0 1 24.108788 24.316623v302.191191c0 77.522224-61.518977 140.496042-136.962858 140.496042zM437.28354 173.12604v278.082403c0 50.919424 39.696367 92.070631 88.537446 92.070631s88.537447-41.151208 88.537447-92.070631V173.12604zM815.749949 591.704485c-75.651715 0-136.962858-62.973818-136.962857-140.496042V149.017252A24.316623 24.316623 0 0 1 702.89588 124.700629h225.500304a24.316623 24.316623 0 0 1 24.108789 24.316623v302.191191c0 77.522224-61.311143 140.496042-136.755024 140.496042zM727.212503 173.12604v278.082403c0 50.919424 39.696367 92.070631 88.537446 92.070631s88.537447-41.151208 88.537447-92.070631V173.12604z" fill="#2c2c2c" /><path d="M928.396184 816.996956H123.453623a24.108788 24.108788 0 0 1 0-48.217577h804.942561a24.108788 24.108788 0 0 1 0 48.217577z" fill="#2c2c2c" /></svg>