<?xml version="1.0" standalone="no"?><!DOCTYPE svg PUBLIC "-//W3C//DTD SVG 1.1//EN" "http://www.w3.org/Graphics/SVG/1.1/DTD/svg11.dtd"><svg class="icon" width="200px" height="200.00px" viewBox="0 0 1024 1024" version="1.1" xmlns="http://www.w3.org/2000/svg"><path d="M75.01491799 417.25157962h848.75948619v302.52813369H75.01491799V417.25157962z" fill="#BAD4FF" /><path d="M772.51033735 341.6195462l-201.68542248 168.07118538-210.08898171-151.26406685c-16.80711854-8.40355926-25.21067781-8.40355926-42.01779634 0l-168.07118541 159.66762611c-8.40355926 8.40355926-8.40355926 25.21067781 0 42.01779635 16.80711854 8.40355926 33.61423707 8.40355926 42.01779636 0L343.92881463 417.25157962 554.01779636 568.51564646h42.01779633l218.492541-176.47474464c8.40355926-8.40355926 8.40355926-25.21067781 8.40355927-42.01779637-25.21067781-16.80711854-33.61423707-16.80711854-50.42135561-8.40355925z" fill="#4E8CEE" /><path d="M906.96728565 106.31988667h-378.16016711v-42.01779636c0-16.80711854-16.80711854-25.21067781-25.2106778-25.21067781-25.21067781 0-33.61423707 8.40355926-33.6142371 25.21067781v42.01779636H91.82203654c-33.61423707 0-67.22847415 25.21067781-67.22847415 67.22847413V694.5690355c0 33.61423707 25.21067781 67.22847415 67.22847415 67.22847415h386.56372639v25.21067781l-168.07118539 134.45694831c-8.40355926 8.40355926-16.80711854 25.21067781-8.40355927 42.01779633 8.40355926 8.40355926 25.21067781 16.80711854 33.61423708 8.40355927L469.98220364 862.64022087s8.40355926-8.40355926 16.80711855-8.40355926c8.40355926-8.40355926 16.80711854-8.40355926 25.21067781 0l16.80711854 8.40355926 134.4569483 109.2462705c8.40355926 8.40355926 8.40355926 8.40355926 16.80711853 8.40355928 16.80711854 0 25.21067781-8.40355926 25.21067781-25.21067781 0-8.40355926-8.40355926-16.80711854-8.40355927-25.2106778l-168.07118537-134.45694831v-25.21067781h386.56372637c33.61423707 0 67.22847415-25.21067781 67.22847416-67.22847417V173.5483608c-8.40355926-33.61423707-42.01779636-67.22847415-75.63203342-67.22847413z m8.40355926 588.24914883c0 8.40355926-8.40355926 8.40355926 0 0L91.82203654 702.97259475V165.14480154h815.14524911c8.40355926 0 8.40355926 8.40355926 8.40355926 8.40355926V694.5690355z" fill="#4E8CEE" /></svg>