<svg width="14" height="14" viewBox="0 0 14 14" fill="none" xmlns="http://www.w3.org/2000/svg">
<g clip-path="url(#clip0_3128_28233)">
<path fill-rule="evenodd" clip-rule="evenodd" d="M4.66699 2.91634C4.66699 1.62768 5.71166 0.583008 7.00033 0.583008C8.28899 0.583008 9.33366 1.62768 9.33366 2.91634L10.5003 2.91634C11.3057 2.91634 11.9587 3.56926 11.9587 4.37467V11.3747C11.9587 12.1801 11.3057 12.833 10.5003 12.833H3.50033C2.69491 12.833 2.04199 12.1801 2.04199 11.3747V4.37467C2.04199 3.56926 2.69491 2.91634 3.50033 2.91634L4.66699 2.91634ZM7.00033 1.74967C7.64466 1.74967 8.16699 2.27201 8.16699 2.91634H5.83366C5.83366 2.27201 6.356 1.74967 7.00033 1.74967ZM8.16699 4.08301V5.83301H9.33366V4.08301H10.792L10.792 11.6663H3.20866V4.08301H4.66699V5.83301H5.83366V4.08301H8.16699Z" fill="white"/>
</g>
<defs>
<clipPath id="clip0_3128_28233">
<rect width="14" height="14" fill="white"/>
</clipPath>
</defs>
</svg>
