<?xml version="1.0" standalone="no"?><!DOCTYPE svg PUBLIC "-//W3C//DTD SVG 1.1//EN" "http://www.w3.org/Graphics/SVG/1.1/DTD/svg11.dtd"><svg class="icon" width="200px" height="200.00px" viewBox="0 0 1024 1024" version="1.1" xmlns="http://www.w3.org/2000/svg"><path d="M346.625 412.775C344.17745 420.1838 313.55 512 189.51875 512 93.60125 512 15.875 445.85 15.875 331.9397 15.875 275.5799 59.99705 181.25 148.175 48.95h727.65c88.17795 132.3 132.3 226.6299 132.3 282.9897C1008.125 445.85 930.39875 512 834.48125 512 710.45 512 679.82255 420.1838 677.375 412.775 674.92745 420.1838 644.3 512 512 512S349.07255 420.1838 346.625 412.775zM840.104 115.1H183.896C115.7615 221.2046 82.025 296.2187 82.025 331.9397 82.025 404.0432 124.7579 445.85 189.51875 445.85c55.6983 0 81.8937-16.5375 94.3299-53.9784 20.1096-60.3288 105.4431-60.3288 125.5527 0C421.6391 428.651 450.3482 445.85 512 445.85c61.6518 0 90.3609-17.199 102.59865-53.9784 20.1096-60.3288 105.4431-60.3288 125.5527 0 12.4362 37.4409 38.6316 53.9784 94.3299 53.9784 64.827 0 107.49375-41.87295 107.49375-113.9103 0-35.721-33.7365-110.7351-101.871-216.8397zM842.75 578.15a33.075 33.075 0 1 1 66.15 0v231.525a165.375 165.375 0 0 1-165.375 165.375h-463.05A165.375 165.375 0 0 1 115.1 809.675V578.15a33.075 33.075 0 0 1 66.15 0v231.525A99.225 99.225 0 0 0 280.475 908.9h463.05a99.225 99.225 0 0 0 99.225-99.225V578.15z m-496.125 132.3h330.75a33.075 33.075 0 1 1 0 66.15h-330.75a33.075 33.075 0 1 1 0-66.15z" /></svg>