<?xml version="1.0" standalone="no"?><!DOCTYPE svg PUBLIC "-//W3C//DTD SVG 1.1//EN" "http://www.w3.org/Graphics/SVG/1.1/DTD/svg11.dtd"><svg class="icon" width="200px" height="188.93px" viewBox="0 0 1084 1024" version="1.1" xmlns="http://www.w3.org/2000/svg"><path fill="#15E49E" d="M888.51137283 13.33333333c97.89458864 0 176.10352987 84.19764741 176.10352889 186.77647013v448.26352987c0 102.5788237-78.20894123 186.77647013-176.10352889 186.77647013h-138.74823604V760.4392158h138.74823604c55.38070617 0 101.39294123-49.56988247 101.39294124-112.06588247V200.10980346c0-62.496-46.01223506-112.06588247-101.39294124-112.06588149H194.77019653c-55.38070617 0-101.39294123 49.56988247-101.39294123 112.06588148v448.26352988c0 62.496 46.01223506 112.06588247 101.39294124 112.06588247h141.71294025v74.71058765H194.77019653C96.87560789 835.14980346 18.66666666 750.95215703 18.66666666 648.37333333V200.10980346C18.66666666 97.53098074 96.87560789 13.33333333 194.77019653 13.33333333z m-274.11670617 87.39952987a37.35529383 37.35529383 0 0 1 31.78164741 42.15811754l-4.56564741 32.256 12.92611753 1.008a37.35529383 37.35529383 0 0 1 34.15341235 34.80564642l-0.05929482 5.5736474a37.35529383 37.35529383 0 0 1-40.37929383 34.09411754 542.24470617 542.24470617 0 0 0-43.46258864-2.13458865 35.69505877 35.69505877 0 0 1-11.26588246 0.17788247c-55.61788247 1.54164741-78.8611763 16.42447012-80.22494025 40.32-2.19388247 39.78635259 12.3331763 57.98964741 54.49129382 65.87576494 93.38823506 22.47247013 141.71294123 76.66729383 130.20988247 156.24-8.12329383 56.27011753-44.47058864 86.688-102.51952987 93.80329383l-6.75952889 48.32470617a37.35529383 37.35529383 0 1 1-73.99905877-10.43576494l5.63294124-39.72705876a483.84 483.84 0 0 1-32.37458865-5.63294124 37.35529383 37.35529383 0 0 1 15.29788247-73.10964642c83.72329383 17.43247012 116.39435259 6.52235259 120.78211753-23.89552987 5.2771763-36.5251763-14.40847013-58.7011763-71.80517629-72.51670617C475.23137283 413.6872158 434.43701925 362.39780346 438.70619653 284.9003921c3.55764741-65.04564741 49.09552987-99.96988247 127.36376396-108.68611754l6.10729481-43.69976493a37.35529383 37.35529383 0 0 1 42.21741136-31.78164642z"  /><path fill="#15E49E" d="M581.18996049 948.04580345l141.06070617-174.20611753a37.35529383 37.35529383 0 1 1 58.10823506 47.02023605l-141.12 174.20611753a37.35529383 37.35529383 0 1 1-58.04894123-47.02023604z m58.10823604 47.02023605a37.35529383 37.35529383 0 1 0-58.10823604-47.02023604l141.06070617-174.20611754a37.35529383 37.35529383 0 0 0 58.10823506 47.02023605l-141.12 174.20611753z"  /></svg>