<?xml version="1.0" standalone="no"?><!DOCTYPE svg PUBLIC "-//W3C//DTD SVG 1.1//EN" "http://www.w3.org/Graphics/SVG/1.1/DTD/svg11.dtd"><svg class="icon" width="200px" height="200.00px" viewBox="0 0 1024 1024" version="1.1" xmlns="http://www.w3.org/2000/svg"><path fill="#15E49E" d="M165.78669894 991.23359016h762.32355485l-53.37557351-597.88198291-256.02777269 283.58714618-161.31313898-136.86231435-290.99729037 279.74288534-18.09453814 24.94792731z"  /><path fill="#15E49E" d="M869.59132438 391.84704308h62.70784814v599.30038262h-62.70784814V391.84704308zM618.70690759 674.6852212h62.70784813v316.4622045h-62.70784813v-316.4622045zM361.20108287 635.74550999h62.70122009v355.40191571h-62.70122009v-355.40191571zM103.69525815 819.81932442h62.70122009v171.32810128h-62.70122009v-171.32810128zM934.00257775 16.67369613l-253.19760134 59.10219657 82.02857292 80.27877145-226.93732292 247.31190541-113.91605388-112.27230096-322.47383309 322.47383311 44.33493247 44.34156051 278.46367439-278.4636744 115.8580684 114.18780336 269.52245391-293.70152906 83.20173528 81.41216559z"  /></svg>