<?xml version="1.0" standalone="no"?><!DOCTYPE svg PUBLIC "-//W3C//DTD SVG 1.1//EN" "http://www.w3.org/Graphics/SVG/1.1/DTD/svg11.dtd"><svg t="1600759629626" class="icon" viewBox="0 0 1024 1024" version="1.1" xmlns="http://www.w3.org/2000/svg" p-id="2551" xmlns:xlink="http://www.w3.org/1999/xlink" width="200" height="200"><defs><style type="text/css"></style></defs><path d="M566.05263827 144.38147176l-81.76080629-40.07882622-81.76080627-40.07882738a51.5012918 51.5012918 0 0 0-32.70432252 0l-2.04402016 0.76149849c-17.5946045 6.93363739-26.5321836 23.32587709-30.33967135 30.66030235-4.40867131 8.57686851-17.19381661 34.26739675-36.99275736 74.42638102l-23.04532568 46.61167456c-57.59327384 117.07025292-151.45788615 308.84743825-264.27978267 540.78360784l51.42113493 203.44012388 192.37836773-84.16553589c112.54134512-228.12868068 205.60438051-417.70153093 263.03733943-535.37296625l25.32981763-51.70168633c19.59854621-40.07882622 32.06306168-66.13006391 36.07094396-74.86724732 3.48685791-7.49474019 10.94151967-24.56832031 5.69119416-42.76410838a51.14058237 51.14058237 0 0 0-21.00130554-27.65439037z m-372.3322996 666.35057121l-70.73912857 30.90077532-18.91720576-74.78709045c93.2233503-191.49663394 172.69966347-354.05635466 228.08860223-466.79809312L422.81091237 344.37481616c-55.14846581 112.942133-134.90533038 275.38161725-229.0905737 466.35722681zM377.56191633 207.7060182c9.7792333-19.79894074 17.83507746-36.07094395 24.04729597-48.33506489l45.00852307 22.08343267 44.96844345 22.04335542c-5.93166595 12.34427899-13.82719517 28.65636063-23.48619317 48.49537981z" p-id="2552"></path><path d="M970.12736854 356.39846415h-287.9663692a45.00852189 45.00852189 0 0 1 0-90.01704378h287.9663692a45.00852189 45.00852189 0 0 1 0 90.01704378zM970.12736854 608.89507178H538.15777495a45.00852189 45.00852189 0 0 1 0-90.01704378h431.96959359a45.00852189 45.00852189 0 0 1 0 90.01704378zM970.12736854 864.87853734h-575.93273838a45.00852189 45.00852189 0 1 1 0-89.97696534h575.93273838a45.00852189 45.00852189 0 0 1 0 89.97696534z" p-id="2553"></path></svg>