<?xml version="1.0" standalone="no"?><!DOCTYPE svg PUBLIC "-//W3C//DTD SVG 1.1//EN" "http://www.w3.org/Graphics/SVG/1.1/DTD/svg11.dtd"><svg class="icon" width="200px" height="200.00px" viewBox="0 0 1024 1024" version="1.1" xmlns="http://www.w3.org/2000/svg"><path d="M866.89340752 796.83788627l-183.16841877-0.00187789a6.91066939 6.91066939 0 0 1-6.91066938-6.91066939V633.46252602c0-1.11171638 0.2685396-2.20653167 0.78120611-3.19242879l89.50443591-171.89351143c9.05710827-17.40061481 26.85583773-28.20980312 46.44608312-28.20980312 18.06163537 0 34.60780601 9.12659054 44.26584205 24.41456865 0.07511597 0.11642975 0.14835404 0.23473742 0.21971422 0.35116717 2.25723494-27.67460183-1.63752818-61.30026649-19.98084845-97.88174464L736.33433734 115.42147233c-11.35941279-26.98541278 0.62158467-57.55010161 27.27460928-69.58180237 26.52720536-11.96973006 57.26841671-0.83003149 69.99118441 25.37980889l136.47820873 281.08020981a225.29721142 225.29721142 0 0 1 4.19522701 187.8143416l-100.47136777 232.86138975v16.95179688a6.91066939 6.91066939 0 0 1-6.90879148 6.91066938z m-176.25774938-13.82509455l169.34520209 0.00187789v-11.47020887c0-0.94270544 0.19342362-1.87414349 0.5652477-2.73797715l101.03473754-234.17028556a211.48714005 211.48714005 0 0 0-3.93419901-176.29906316L821.16843773 77.25692507c-9.43268813-19.42499024-32.2078507-27.69338082-51.87133418-18.82030668-19.76676792 8.92189952-28.64923155 31.59753344-20.22309744 51.61969567l101.52486928 241.21240789c29.23325823 58.26558124 23.98640762 109.98104977 13.83636196 143.89966672a52.97178316 52.97178316 0 0 1-3.59805504 10.04676119l-69.93672533 147.04139225a6.90503569 6.90503569 0 0 1-9.20921811 3.27317846 6.90691359 6.90691359 0 0 1-3.27317846-9.20921812l62.17536756-130.72808111a544.77295009 544.77295009 0 0 0 9.87211656-22.01836917c0.20281311-0.64599735 0.40562625-1.29950631 0.60280568-1.96240476 2.41685639-10.0430054 0.72299123-20.68506067-4.94263094-29.65202977-7.11160461-11.25612834-19.28978149-17.975252-32.58155266-17.975252-14.41663285 0-27.51685829 7.96041508-34.18527866 20.76956614l-88.72510771 170.3968257v147.86203424z" fill="#4A555F" /><path d="M959.51891205 450.77484948c0 26.31312484-5.29755389 51.93142695-15.74430764 76.14318247L843.91730969 762.79345007l-133.881074 0.0018779-0.0018779-122.8728284 86.52420974-166.16779649a19.09823577 19.09823577 0 0 1 16.98747697-10.3246903c6.71348997 0 12.61948322 3.26378897 16.20063717 8.95382382 1.97742795 3.13421391 3.02153995 6.65903089 3.02153996 10.19887103 0 2.84126163-0.64787526 5.64308736-1.92484678 8.32660545l-71.91227537 151.19906127 47.50709622 22.68877921 54.77832226-115.75371218c13.49458429-20.0672318 31.29331375-52.19621075 31.29331375-99.98499185 0-32.01254918-8.08623434-67.45602037-24.03711091-105.34827222L766.94785155 102.50152521a20.45783486 20.45783486 0 0 1-1.62626079-7.97356038c0-7.87778751 4.68723663-15.08704289 11.94343947-18.36397715 10.02422641-4.52198149 21.64654511-0.30609759 26.45772309 9.60545487l136.48008664 281.0783319c12.63638431 26.02580624 19.31607209 55.04686187 19.3160721 83.92707503z" fill="#DFDFDF" /><path d="M946.05437415 982.96399642h-340.08756126a6.91066939 6.91066939 0 0 1-6.9106694-6.91066939v-186.12798804a6.91066939 6.91066939 0 0 1 6.91066939-6.91066938l340.08756126 0.0018779a6.91066939 6.91066939 0 0 1 6.91066939 6.91066938v186.12611014a6.91066939 6.91066939 0 0 1-6.91066938 6.91066939z m-333.17689188-13.82133877h326.26434459V796.83976417l-326.2643446-0.0018779v172.30477138z" fill="#4A555F" /><path d="M631.48746421 815.44599033h289.0443807v135.08480747H631.48746421z" fill="#FFD452" /><path d="M673.94488925 945.2200986c-19.0306314 0-34.51391103-15.50957023-34.51391103-34.5721259s15.48327964-34.57024801 34.51391103-34.57024801c19.0325093 0 34.51578893 15.50957023 34.51578894 34.5721259s-15.48327964 34.57024801-34.51578894 34.57024801z m0-55.31915725c-11.40823818 0-20.69069436 9.30686887-20.69069436 20.74703135 0 11.44204037 9.28245619 20.74890924 20.69069436 20.74890925 11.41011609 0 20.69445016-9.30686887 20.69445017-20.74703136 0-11.44204037-9.28245619-20.74890924-20.69445017-20.74890924zM157.10756899 796.83788627a6.91066939 6.91066939 0 0 1-6.91066938-6.91066938v-16.95367479l-100.47136776-232.85951184a225.29721142 225.29721142 0 0 1 4.19522701-187.8143416L190.4008455 71.21947885C203.12549108 45.00963847 233.86482454 33.8605504 260.39202989 45.83966996c26.65302462 12.03170074 38.63402207 42.59451167 27.27460928 69.58180235L186.13989202 356.63388022c-18.46913951 36.85565145-22.40521641 70.57521108-20.16300469 98.28361508 0.06948228-0.11267396 0.13896454-0.22534791 0.21220262-0.33802187 9.65803604-15.28797811 26.20608457-24.41456865 44.26584204-24.41456865 19.59024538 0 37.38897485 10.81106621 46.44608313 28.21168102l89.50443591 171.89163353c0.51266651 0.98589713 0.7812061 2.08071242 0.78120611 3.19242878v156.46281298a6.91066939 6.91066939 0 0 1-6.91066939 6.9106694l-183.16841876 0.00375578zM238.32107956 54.88175504c-14.66639345 0-28.61730727 8.22707679-35.48854077 22.37704793L66.35433005 358.33901277a211.47211685 211.47211685 0 0 0-3.93419901 176.29906316l101.03473755 234.17028556c0.37182406 0.86383367 0.56524769 1.79527172 0.56524769 2.73797716v11.47020886l169.34520211-0.0018779V635.15263537l-88.72510774-170.39306988c-6.66842038-12.81290685-19.76864582-20.77144404-34.18527866-20.77144404-13.29177117 0-25.46994806 6.72100156-32.58155266 17.975252-5.66562215 8.96696911-7.35948731 19.60714647-4.94263093 29.65202977 0.19717943 0.65914266 0.39999254 1.3164074 0.60280567 1.96240476 0.70609013 1.68823146 4.64967864 11.04016993 9.87211657 22.01836916l62.17536756 130.72808112a6.91066939 6.91066939 0 1 1-12.48239657 5.93603964L163.1619163 505.21514986a53.05441072 53.05441072 0 0 1-3.59805503-10.04676119c-10.15192356-33.92049486-15.39314047-85.64535287 14.02790769-144.31468247l101.33520144-240.79551424c8.42801201-20.02028433-0.45632952-42.69591823-20.22309743-51.61969567a39.73634895 39.73634895 0 0 0-16.38279341-3.55674125z" fill="#4A555F" /><path d="M64.48206446 450.77484948c0 26.31312484 5.29755389 51.93142695 15.74430763 76.14318247L180.0836668 762.79345007l133.88107402 0.0018779 0.0018779-122.8728284-86.52420975-166.16779649a19.09823577 19.09823577 0 0 0-16.98747697-10.3246903c-6.71348997 0-12.61948322 3.26378897-16.20063716 8.95382382-1.97742795 3.13421391-3.02153995 6.65903089-3.02153997 10.19887103 0 2.84126163 0.64787526 5.64308736 1.92484678 8.32660545l71.91227539 151.19906127-47.50709622 22.68877921-54.77832227-115.75371218c-13.49458429-20.0672318-31.29331375-52.19621075-31.29331375-99.98499185 0-32.01254918 8.08623434-67.45602037 24.0371109-105.34827222l101.52486926-241.21052999c1.07979209-2.56521042 1.62626079-5.24872852 1.62626079-7.97356039 0-7.87778751-4.68723663-15.08704289-11.94343947-18.36397715-10.02422641-4.52198149-21.64654511-0.30609759-26.4577231 9.60545487L83.79813655 366.84777445c-12.63638431 26.02580624-19.31607209 55.04686187-19.3160721 83.92707503z" fill="#DFDFDF" /><path d="M418.03416362 982.96399642h-340.08756125a6.91066939 6.91066939 0 0 1-6.91066939-6.91066939v-186.12611014a6.91066939 6.91066939 0 0 1 6.91066938-6.91066938l340.08756125-0.0018779a6.91066939 6.91066939 0 0 1 6.91066941 6.91066938v186.12798804a6.90691359 6.90691359 0 0 1-6.9106694 6.91066939z m-333.17501398-13.82133877h326.2643446v-172.30664927l-326.2643446 0.00187789v172.30477138z" fill="#4A555F" /><path d="M103.4691316 815.44599033h289.04438069v135.08480747H103.4691316z" fill="#FFD452" /><path d="M350.05420935 945.2200986c-19.0325093 0-34.51578893-15.50769233-34.51578894-34.57024801s15.48327964-34.57212592 34.51578894-34.5721259 34.51578893 15.50769233 34.51578893 34.57024801-15.48327964 34.57212592-34.51578893 34.5721259z m0-55.31915725c-11.41011609 0-20.69257226 9.30686887-20.69257227 20.74890924 0 11.44016247 9.28245619 20.74703134 20.69257227 20.74703136 11.41011609 0 20.69257226-9.30686887 20.69257227-20.74890925 0-11.44016247-9.28245619-20.74703134-20.69257227-20.74703135z" fill="#4A555F" /><path d="M344.09187911 426.89923792c-18.73204542 0-33.91673906-15.18469365-33.91673905-33.91673907V326.42599225c0-18.73204542 15.18469365-33.91673906 33.91673906-33.91673906s33.91673906 15.18469365 33.91673906 33.91673906v66.5546287c0 18.73204542-15.18657155 33.91861696-33.91673906 33.91861697zM707.12549179 433.10757297c-18.73204542 0-33.91673906-15.18469365-33.91673905-33.91673907V326.42599225c0-18.73204542 15.18469365-33.91673906 33.91673905-33.91673906s33.91673906 15.18469365 33.91673906 33.91673906v72.76296375c0 18.73392331-15.18657155 33.91861696-33.91673906 33.91861697z" fill="#F58E6F" /><path d="M344.09187911 433.80990729c-22.51413457 0-40.82928634-18.31515177-40.82928633-40.82928634v-66.5527508c0-22.51413457 18.31515177-40.82928634 40.82928634-40.82928635 22.51037878 0 40.82740844 18.31515177 40.82740845 40.82928635v66.5527508c-0.0018779 22.51413457-18.31702967 40.82928634-40.82740845 40.82928634z m1e-8-134.38810682c-14.89174136 0-27.00606968 12.11432831-27.00606968 27.00606968v66.5527508c0 14.89174136 12.11432831 27.00606968 27.00606968 27.00606969 14.88986346 0 27.00419178-12.11432831 27.00419177-27.00606969v-66.5527508c0-14.89174136-12.11620622-27.00606968-27.00419177-27.00606968zM707.12549179 440.01824235c-22.51413457 0-40.82928634-18.31515177-40.82928634-40.82928635V326.42599225c0-22.51413457 18.31515177-40.82928634 40.82928634-40.82928634s40.82928634 18.31515177 40.82928634 40.82928634v72.76296375c0 22.51413457-18.31702967 40.82928634-40.82928634 40.82928635z m0-140.59644188c-14.89174136 0-27.00606968 12.11432831-27.00606968 27.00606968v72.76296375c0 14.89174136 12.11432831 27.00606968 27.00606968 27.00606968s27.00606968-12.11432831 27.00606969-27.00606968v-72.76296375c0-14.89174136-12.11620622-27.00606968-27.00606969-27.00606968z" fill="#4A555F" /><path d="M714.03616117 292.50925319h-13.82321666v-29.3233974c0-96.27614075-78.32905725-174.605198-174.605198-174.605198s-174.605198 78.32905725-174.60519801 174.605198v29.3233974h-13.82321667v-29.3233974c0-103.89853397 84.52800281-188.42841467 188.42841468-188.42841467s188.42841467 84.52800281 188.42841466 188.42841467v29.3233974zM647.91157141 525.40632302h-152.47039909a6.91066939 6.91066939 0 0 1-6.91066938-6.91066938v-46.92306954a6.91066939 6.91066939 0 0 1 6.91066938-6.91066938h60.33314837a6.91066939 6.91066939 0 0 1 6.91066938 6.91066938v40.01240016h85.22658134c28.84077727 0 52.303251-23.46247372 52.30325101-52.30325101v-26.17416028h13.82321666v26.17416028c-0.0018779 36.4612926-29.66517508 66.12458977-66.12646767 66.12458977z m-145.5597297-13.82133876h46.50993169v-33.10173077h-46.50993169v33.10173077z" fill="#4A555F" /><path d="M607.22688331 275.08234778c0-13.31618385 9.90591874-24.28123781 22.80708687-25.8474058a102.86568936 102.86568936 0 0 0-11.38006969-27.46052131c-10.22891743 7.97168248-25.06432181 7.23366806-34.41813817-2.16521788-9.39888594-9.39888594-10.18196995-24.18922075-2.21028747-34.41813818a100.53897214 100.53897214 0 0 0-27.41545172-11.38006968c-1.56616801 12.85609853-12.53122195 22.80708687-25.84740582 22.80708685-13.31618385 0-24.2831157-9.95098833-25.84928371-22.80708685a100.59718702 100.59718702 0 0 0-27.41545172 11.38006968c7.96980459 10.22891743 7.18859848 25.01925223-2.21216536 34.41813818-9.35381636 9.44583342-24.18922075 10.13690036-34.41813817 2.12014829a104.66659478 104.66659478 0 0 0-11.3800697 27.50746878 26.01078305 26.01078305 0 0 1 22.85215645 25.84740583c0 13.31618385-9.95098833 24.23616823-22.85215645 25.84928371a103.82154011 103.82154011 0 0 0 11.3800697 27.4605213c10.22891743-8.01675207 25.01925223-7.28061554 34.41813817 2.12014831 9.44583342 9.44583342 10.18196995 24.23616823 2.16521787 34.41813815a102.39245875 102.39245875 0 0 0 27.46052131 11.42701719c1.56616801-12.90116811 12.53122195-22.89910393 25.84928371-22.89910394 13.31618385 0 24.28123781 9.99793582 25.84740581 22.89910394a102.36804605 102.36804605 0 0 0 27.4605213-11.42701719c-7.97168248-10.18196995-7.23366806-24.97230474 2.16521789-34.41813815 9.35381636-9.35381636 24.18922075-10.13690036 34.41813816-2.16521788 5.06845018-8.43176781 8.89185313-17.64661962 11.3800697-27.41545173-12.89929021-1.61499338-22.80520897-12.53309986-22.80520896-25.85116162z m-78.4661439 36.30918276c-20.04281911 0-36.35425235-16.26448574-36.35425233-36.30730485 0-20.08788869 16.31143322-36.35237444 36.35425233-36.35237445 20.08788869 0 36.35425235 16.26448574 36.35425234 36.35237445-0.0018779 20.04281911-16.26636364 36.30730485-36.35425234 36.30730485z" fill="#71CCE0" /><path d="M554.60814522 383.26812583a6.91066939 6.91066939 0 0 1-6.861844-6.07875999 19.14142746 19.14142746 0 0 0-18.98556182-16.82222183c-9.65991394 0-17.82314215 7.22991226-18.98556181 16.82222183a6.91818098 6.91818098 0 0 1-8.56697655 5.86655738 109.08153601 109.08153601 0 0 1-29.31776371-12.20071169 6.91630308 6.91630308 0 0 1-1.87038769-10.19887104c5.93416176-7.53976565 5.23746112-18.39590143-1.62250498-25.25586754-6.83179762-6.83555341-17.6973229-7.50596346-25.26901283-1.56804591a6.90503569 6.90503569 0 0 1-10.20074895-1.90418988 110.55756485 110.55756485 0 0 1-12.1406189-29.2914731 6.91066939 6.91066939 0 0 1 5.84026679-8.56322076c9.57728637-1.19997765 16.79968704-9.36132795 16.79968704-18.99119552 0-9.66366975-7.21113327-17.82502005-16.77339644-18.9855618a6.91818098 6.91818098 0 0 1-5.86655739-8.56697657 111.4908808 111.4908808 0 0 1 12.13122941-29.3252753 6.91630308 6.91630308 0 0 1 10.21013844-1.91733517c7.61112582 5.96420814 18.46350581 5.30694338 25.24460013-1.54363322 6.8637219-6.8637219 7.57356784-17.73300299 1.67133037-25.30844871a6.91066939 6.91066939 0 0 1 1.89292249-10.17070255 107.37076976 107.37076976 0 0 1 29.2989847-12.15939789 6.91066939 6.91066939 0 0 1 8.53505227 5.87031316c1.16241966 9.53597259 9.32564786 16.73020476 18.98743972 16.73020478s17.82502005-7.19235428 18.98743971-16.73020478a6.91066939 6.91066939 0 0 1 8.53505226-5.87031316 107.48907741 107.48907741 0 0 1 29.29898471 12.15939789 6.91630308 6.91630308 0 0 1 1.8929225 10.17070255c-5.90035957 7.57544574-5.19239154 18.44284892 1.64691766 25.28591391 6.81301862 6.84306501 17.67478811 7.53037615 25.28215814 1.6018481a6.91442518 6.91442518 0 0 1 10.18009204 1.90418989 109.96978237 109.96978237 0 0 1 12.1462526 29.3027405 6.91066939 6.91066939 0 0 1-5.86655738 8.56697657c-9.53597259 1.15678596-16.73020476 9.31813628-16.73020476 18.9855618 0 9.63174545 7.20362168 17.79497366 16.75461745 18.99119552a6.91254728 6.91254728 0 0 1 5.8402668 8.56322076c-2.65534959 10.42046315-6.74541425 20.26816702-12.15564211 29.27269412a6.91254728 6.91254728 0 0 1-10.17070254 1.89104458c-7.58859102-5.91538277-18.45411632-5.22807162-25.28215814 1.60184809-6.82053022 6.85433241-7.51910876 17.72361349-1.61123759 25.26901283a6.91442518 6.91442518 0 0 1-1.88165508 10.18572575 109.0965592 109.0965592 0 0 1-29.31776371 12.20071168 6.95198317 6.95198317 0 0 1-1.69949885 0.21032472z m-69.57241286-20.93482128a95.48366725 95.48366725 0 0 0 12.9499935 5.38393726c4.78113158-12.48615238 16.87855881-21.17331448 30.77501355-21.17331448 13.89645474 0 25.99388196 8.68716211 30.77501356 21.17331448a95.44047558 95.44047558 0 0 0 12.96501668-5.39332675c-5.39896046-12.15939789-2.96708087-26.83518084 6.83743132-36.68664051 9.82516909-9.82892488 24.50846363-12.26080446 36.70354161-6.85433241a94.88837318 94.88837318 0 0 0 5.36328036-12.9481156c-12.4354491-4.80930008-21.08880902-16.9010936-21.08880902-30.75247876a32.98342311 32.98342311 0 0 1 21.08505322-30.76937985 96.31933244 96.31933244 0 0 0-5.36703617-12.96501669c-12.21573488 5.41773945-26.90090732 2.98398197-36.69603-6.8637219-9.81577958-9.81765748-12.26643815-24.50095203-6.8712335-36.68476262a93.74473251 93.74473251 0 0 0-12.92933661-5.37266987 32.9946905 32.9946905 0 0 1-61.5500271 0 93.65083755 93.65083755 0 0 0-12.92933661 5.37266987 33.06417279 33.06417279 0 0 1-6.88437879 36.69603001c-9.7688321 9.86272707-24.45212665 12.29460664-36.67537311 6.83179762a97.65451883 97.65451883 0 0 0-5.37079198 12.98379568c12.45986179 4.78300948 21.12448911 16.87855881 21.12448911 30.77313566 0 13.85326306-8.67026101 25.94505658-21.1320007 30.75435665a96.63669742 96.63669742 0 0 0 5.37079198 12.96501669c12.18568849-5.42149525 26.86710513-3.00088307 36.68288469 6.82428602 9.85709337 9.85521547 12.29460664 24.53851001 6.86184401 36.7054195z m43.72500705-44.03110462c-23.85683257 0-43.26492172-19.38931015-43.26492172-43.21797424 0-23.85683257 19.40808915-43.26492172 43.26492172-43.26492172s43.26492172 19.40808915 43.2649217 43.26492172c0 23.82866408-19.40808915 43.21797424-43.2649217 43.21797424z m0-72.66155719c-16.23443935 0-29.44358295 13.2091436-29.44358296 29.44358295 0 16.21002666 13.2091436 29.39475758 29.44358296 29.39475756s29.44358295-13.18660881 29.44358295-29.39475756c-0.0018779-16.23631726-13.2091436-29.44358295-29.44358295-29.44358295z" fill="#4A555F" /></svg>