<?xml version="1.0" standalone="no"?><!DOCTYPE svg PUBLIC "-//W3C//DTD SVG 1.1//EN" "http://www.w3.org/Graphics/SVG/1.1/DTD/svg11.dtd"><svg t="1723774279095" class="icon" viewBox="0 0 1024 1024" version="1.1" xmlns="http://www.w3.org/2000/svg" p-id="7373" xmlns:xlink="http://www.w3.org/1999/xlink" width="200" height="200"><path d="M233.92 230.250667l61.76 61.76A255.872 255.872 0 0 0 170.666667 512c0 139.2 111.125333 252.458667 249.493333 255.914667L426.666667 768h96.469333l-65.536-65.536 60.330667-60.330667 25.365333 25.365334-0.064 0.085333 166.741333 166.72c-31.893333 11.157333-65.92 17.706667-101.333333 18.837333l-0.192 0.170667-0.170667-0.149333-5.461333 0.128L597.333333 853.333333h-170.666666c-188.522667 0-341.333333-152.810667-341.333334-341.333333 0-116.992 58.88-220.245333 148.586667-281.749333zM597.333333 170.666667c188.522667 0 341.333333 152.810667 341.333334 341.333333 0 116.992-58.88 220.245333-148.586667 281.749333l-61.76-61.76A255.872 255.872 0 0 0 853.333333 512c0-141.376-114.624-256-256-256h-96.469333l65.514667 65.514667-60.330667 60.330666-118.016-118.037333 0.064-0.042667-74.069333-74.069333a340.288 340.288 0 0 1 101.333333-18.837333L415.509333 170.666667l0.213334 0.170666 5.44-0.128L426.666667 170.666667h170.666666z" fill="#ffffff" p-id="7374"></path></svg>