<?xml version="1.0" standalone="no"?><!DOCTYPE svg PUBLIC "-//W3C//DTD SVG 1.1//EN" "http://www.w3.org/Graphics/SVG/1.1/DTD/svg11.dtd"><svg class="icon" width="200px" height="200.00px" viewBox="0 0 1024 1024" version="1.1" xmlns="http://www.w3.org/2000/svg"><path d="M792.93888335 817.3307298H236.74696013c-91.31509189 0-166.02743978-74.7123479-166.02743976-166.02743978v117.87948223c0 91.31509189 74.7123479 166.02743978 166.02743976 166.02743978h556.19192322c91.31509189 0 166.02743978-74.7123479 166.02743976-166.02743978v-117.87948223c0 91.31509189-73.0520735 166.02743978-166.02743976 166.02743978z" fill="#B3FFFD" /><path d="M796.25943214 968.4157H238.40723452c-107.91783585 0-197.57265333-87.99454307-197.57265332-197.57265335V445.42926471c0-92.97536627 58.10960392-175.98908615 146.10414698-209.19457411l21.58356716 58.10960393c-63.09042712 23.24384156-104.59728705 84.67399429-104.59728705 151.08497018v325.41378194c0 74.7123479 61.43015273 134.48222622 134.48222623 134.48222622h556.19192322c74.7123479 0 134.48222622-61.43015273 134.48222621-134.48222622V445.42926471c0-66.41097592-41.50685994-127.8411286-104.59728706-151.08497018l21.58356719-58.10960393c86.33426869 31.54521355 146.10414701 116.21920783 146.10414697 209.19457411v325.41378194c0 109.57811024-87.99454307 197.57265333-195.91237891 197.57265335z" fill="#28E1DF" /><path d="M517.33333333 770.84304665c-16.60274397 0-33.20548795-4.98082319-48.14795754-13.28219517l-381.86311145-230.77814127c-28.22466476-16.60274397-44.82740872-48.14795754-44.82740873-79.6931711 0-92.97536627 58.10960392-175.98908615 146.10414697-209.19457412l21.58356719 58.10960394c-63.09042712 23.24384156-104.59728705 84.67399429-104.59728706 151.08497018 0 11.62192078 6.6410976 21.58356716 14.94246959 28.22466476l381.86311146 230.7781413c9.96164639 6.6410976 23.24384156 6.6410976 33.20548794 0l381.86311147-230.7781413c9.96164639-6.6410976 14.94246957-16.60274397 14.94246959-28.22466476 0-66.41097592-41.50685994-127.8411286-104.59728706-151.08497018l21.58356718-58.10960394c86.33426869 31.54521355 146.10414701 116.21920783 146.10414698 209.19457412 0 33.20548795-16.60274397 63.09042712-44.82740873 79.6931711l-381.86311146 230.77814127c-18.26301837 8.30137199-34.86576235 13.28219517-51.46850634 13.28219517z" fill="#28E1DF" /><path d="M867.65123123 558.32792375h-61.43015271V219.63194664c0-58.10960392-48.14795754-106.25756145-106.25756146-106.25756146H334.7031496c-58.10960392 0-106.25756145 48.14795754-106.25756146 106.25756146v337.03570272h-61.43015271V219.63194664c0-91.31509189 74.7123479-167.68771417 167.68771417-167.68771418h365.26036746c91.31509189 0 167.68771417 74.7123479 167.68771417 167.68771418v338.69597711z" fill="#28E1DF" /><path d="M517.33333333 563.30874695c-14.94246957 0-28.22466476-11.62192078-28.22466476-28.22466476v-44.82740874h-81.35344548c-14.94246957 0-28.22466476-11.62192078-28.22466477-28.22466476 0-14.94246957 11.62192078-28.22466476 28.22466477-28.22466475h81.35344548v-16.602744h-81.35344548c-14.94246957 0-28.22466476-11.62192078-28.22466477-28.22466475s11.62192078-28.22466476 28.22466477-28.22466476h63.09042708l-56.44932949-102.93701267c-3.32054879-6.6410976-4.98082319-14.94246957-1.6602744-21.58356716 1.66027441-6.6410976 6.6410976-13.28219517 13.28219516-16.60274396 3.32054879-1.66027441 8.30137199-3.32054879 13.28219519-3.3205488 9.96164639 0 19.92329276 4.98082319 24.90411596 14.94246956l54.78905515 99.61646388 56.44932951-99.61646388c4.98082319-8.30137199 14.94246957-14.94246957 24.90411595-14.94246956 4.98082319 0 9.96164639 1.66027441 13.2821952 3.3205488 13.28219517 6.6410976 18.26301837 24.90411596 11.62192078 38.18631112L563.82101649 362.41554483h61.43015269c14.94246957 0 28.22466476 11.62192078 28.22466478 28.22466477s-11.62192078 28.22466476-28.22466478 28.22466473h-81.3534455v16.60274402h81.3534455c14.94246957 0 28.22466476 11.62192078 28.22466478 28.22466475 0 14.94246957-11.62192078 28.22466476-28.22466478 28.22466473h-81.3534455v44.82740876c1.66027441 13.28219517-11.62192078 26.56439035-26.56439035 26.56439036z m0 0" fill="#28E1DF" /></svg>