<?xml version="1.0" standalone="no"?><!DOCTYPE svg PUBLIC "-//W3C//DTD SVG 1.1//EN" "http://www.w3.org/Graphics/SVG/1.1/DTD/svg11.dtd"><svg t="1581929591719" class="icon" viewBox="0 0 1024 1024" version="1.1" xmlns="http://www.w3.org/2000/svg" p-id="1209" xmlns:xlink="http://www.w3.org/1999/xlink" width="200" height="200"><defs><style type="text/css"></style></defs><path d="M934.96117333 997.66896H94.39109333c-21.747712 0-43.496656-10.873856-57.633072-27.18464001l-1.08714705-1.08714704c-14.136528-19.57457599-18.486272-42.410704-13.049344-63.07 44.58496-226.18288001 231.61936-397.99312 454.53856-416.47983999 5.43692801-1.08714704 9.7867056-2.1742896 14.136528-2.1742896h41.322288l-5.4381264 54.370512H505.43333333c-8.69956639 0-13.04934401 0-19.573456 2.1742896h-3.26144C281.42549333 558.35568 112.87781333 712.76895999 73.72933332 918.28896c-1.08714704 5.43692801-1.08714704 13.04934401 4.34859041 18.48627199l1.08714704 2.17428961c3.26382559 4.3497776 8.7007536 6.52526561 15.224832 6.52526559h841.65647999c6.5240784 0 11.96104-2.1742896 15.22360001-6.52526559 5.43692801-6.5240784 6.5240784-13.048112 5.43692799-20.660528-25.010384-134.84016-106.566656-249.01632-221.83167999-314.26192001l-1.08714705-1.08714704c-8.69956639-5.4381264-19.573456-10.8750544-29.36012799-16.312016-3.2626384-2.1742896-6.52526561-3.26144-9.78670561-5.4357296l-15.22359999-6.5252656 21.747712-48.933584 15.22359999 6.5240784c10.873856 4.3497776 21.748944 10.873856 31.535616 15.22360001l13.048112 6.52526559c130.49008 73.943856 220.74415999 202.25743999 250.10496 352.32176001 5.43692801 21.747712 0 44.583728-16.31078399 64.157184-15.22360001 17.397968-38.059728 27.18464-59.80744001 27.18463999Z"  p-id="1210"></path><path d="M520.65749333 525.73232c-137.01408 0-250.10496-113.09088-250.10496-250.10496S383.64341332 25.523408 520.65749333 25.523408s250.10496 113.09088 250.10496 250.10383999-114.17839999 250.10608-250.10384001 250.10608001Zm0-461.06256001c-117.44096 0-210.9576 94.604496-210.9576 210.95760001s94.60561601 210.9576 210.9576 210.95759999 210.9576-94.60561601 210.95759999-210.95759999-94.60561601-210.9576-210.95759999-210.95760001Z"  p-id="1211"></path><path d="M520.65749333 531.16992c-141.36415999 0-255.54144-114.17839999-255.54144-255.54144S379.29333332 20.08536 520.65749333 20.08536s255.54144 114.17952 255.54143999 255.54255999-115.2648 255.54144-255.54143999 255.54144Zm0-500.20880001c-134.83792001 0-244.66736 109.828096-244.66736001 244.66736001s109.829328 244.66736 244.66736001 244.66735999 244.66736-109.829328 244.66736-244.66735999-109.828096-244.66736-244.66736-244.66736001Zm0 461.06256c-119.61488 0-216.39520001-96.779984-216.39520001-216.39519999s96.779984-216.39632 216.39520001-216.39632001c119.616 0 216.39520001 96.779984 216.39519999 216.39632001s-97.867056 216.39520001-216.39519999 216.39519999Zm0-421.9152c-113.09088 0-205.52112 92.430128-205.52112 205.52112 0 113.09088 92.430128 205.52112 205.52112 205.52112s205.52112-92.43136001 205.52112-205.52112c0-113.09088-92.430128-205.52112-205.52112-205.52112ZM186.82133332 817.15855999c-2.1742896 0-5.43692801-1.08714704-7.612416-2.17428959-7.6112176-4.3497776-10.873856-14.136528-6.5240784-21.74894401 95.6928-185.94799999 303.38784-220.74415999 312.088-221.83168 8.69956639-1.08714704 17.397968 4.3497776 18.48627201 13.049344 1.08714704 8.69956639-4.3497776 17.397968-13.04934401 18.486272-2.1742896 0-200.08352 33.70875199-288.1648 204.43248-3.26144 6.52526561-8.69956639 9.7867056-15.22359999 9.7867056Zm-36.972544 94.60561601c-8.698368 0-16.310784-7.612416-16.310784-16.31201601 0-31.534384 20.660528-65.244368 23.9232-68.506928 4.34859041-7.6112176 15.22360001-9.7867056 22.83601601-5.43572959 7.6112176 4.34859041 9.7867056 15.22248 5.43572959 22.834896-5.4357296 7.6112176-18.48504 32.6228-18.48503999 51.10783999-1.08714704 8.69956639-7.612416 16.312016-17.399088 16.312016Z"  p-id="1212"></path></svg>