<?xml version="1.0" standalone="no"?><!DOCTYPE svg PUBLIC "-//W3C//DTD SVG 1.1//EN" "http://www.w3.org/Graphics/SVG/1.1/DTD/svg11.dtd"><svg t="1587884377806" class="icon" viewBox="0 0 1126 1024" version="1.1" xmlns="http://www.w3.org/2000/svg" p-id="1895" xmlns:xlink="http://www.w3.org/1999/xlink" width="219.921875" height="200"><defs><style type="text/css"></style></defs><path d="M783.8765 383.503625a24.80625 24.80625 0 0 0 24.508575 25.0047h274.45635A24.80625 24.80625 0 0 0 1107.35 383.503625a24.80625 24.80625 0 0 0-24.508575-25.0047h-274.45635a24.80625 24.80625 0 0 0-24.5581875 25.0047z m294.4998 78.2389125H754.109c-16.0248375 0-28.9737 11.2620375-28.9737 24.9550875 0 13.7426625 12.89925 24.9550875 28.9737 24.9550875h324.2673c15.975225 0 28.9737-11.212425 28.9737-24.9550875 0-13.69305-12.998475-24.9550875-28.9737-24.9550875z m4.465125 103.194h-274.45635a24.80625 24.80625 0 0 0-24.5581875 24.9550875 24.80625 24.80625 0 0 0 24.5581875 24.9550875h274.45635A24.80625 24.80625 0 0 0 1107.35 589.891625a24.80625 24.80625 0 0 0-24.508575-25.0047zM542.065175 1008.125H346.9392125C162.033425 1008.125 15.875 1008.125 15.875 910.8845v-19.4977125c0-182.3259375 148.539825-330.6177 331.113825-330.6177h195.0267375c182.574 0 331.1634375 148.2917625 331.1634375 330.6177v19.4481C873.1293875 1008.125 719.677925 1008.125 542.0155625 1008.125z m-196.8624-392.5837125c-153.5506875 0-278.524575 124.42815-278.524575 277.333875v19.845c0 39.6403875 160.94295 39.6403875 278.524575 39.6403875h198.5988375c97.339725 0 278.524575 0 278.524575-39.69v-19.745775c0-152.9553375-124.9738875-277.333875-278.524575-277.333875H345.202775z m89.5505625-74.3691375a262.9958625 262.9958625 0 0 1-262.7974125-262.648575A262.94625 262.94625 0 0 1 434.7533375 15.875a262.94625 262.94625 0 0 1 262.7974125 262.648575 263.045475 263.045475 0 0 1-262.7974125 262.648575z m-208.670175-263.442375c0 114.50565 93.6187875 207.677925 208.670175 207.677925 115.101 0 208.7197875-93.172275 208.7197875-207.677925 0-114.5552625-93.6187875-207.677925-208.7197875-207.677925S226.0831625 163.1745125 226.0831625 277.729775z" p-id="1896"></path></svg>