<?xml version="1.0" standalone="no"?><!DOCTYPE svg PUBLIC "-//W3C//DTD SVG 1.1//EN" "http://www.w3.org/Graphics/SVG/1.1/DTD/svg11.dtd"><svg class="icon" width="200px" height="200.00px" viewBox="0 0 1024 1024" version="1.1" xmlns="http://www.w3.org/2000/svg"><path fill="#15E49E" d="M1008.125 616.18625c0-138.915-133.95375-248.0625-297.675-248.0625s-297.675 109.1475-297.675 248.0625 133.95375 248.0625 297.675 248.0625c29.7675 0 59.535-4.96125 89.3025-9.9225l94.26375 49.6125-24.80625-74.41875c84.34125-49.6125 138.915-124.03125 138.915-213.33375z m-401.86125-39.69c-29.7675 0-49.6125-19.845-49.6125-49.6125s19.845-49.6125 49.6125-49.6125 49.6125 19.845 49.6125 49.6125c0 24.80625-24.80625 49.6125-49.6125 49.6125z m203.41125 0c-29.7675 0-49.6125-19.845-49.6125-49.6125s19.845-49.6125 49.6125-49.6125 49.6125 19.845 49.6125 49.6125c0 24.80625-24.80625 49.6125-49.6125 49.6125z"  /><path fill="#15E49E" d="M363.1625 606.26375c0-153.79875 148.8375-277.83 337.365-277.83h14.88375c-39.69-128.9925-173.64375-228.2175-342.32625-228.2175-198.45 0-357.21 133.95375-357.21 297.675 0 104.18625 64.49625 198.45 163.72125 248.0625l-29.7675 89.3025L263.9375 680.6825c34.72875 9.9225 69.4575 14.88375 109.1475 14.88375h9.9225c-14.88375-29.7675-19.845-59.535-19.845-89.3025z m133.95375-401.86125c34.72875 0 64.49625 29.7675 64.49625 64.49625s-29.7675 64.49625-64.49625 64.49625C462.3875 328.43375 432.62 298.66625 432.62 263.9375S462.3875 204.4025 497.11625 204.4025zM254.015 328.43375c-34.72875 0-59.535-29.7675-59.535-64.49625s29.7675-64.49625 64.49625-64.49625 59.535 29.7675 59.535 64.49625-29.7675 64.49625-64.49625 64.49625z"  /></svg>