<?xml version="1.0" standalone="no"?><!DOCTYPE svg PUBLIC "-//W3C//DTD SVG 1.1//EN" "http://www.w3.org/Graphics/SVG/1.1/DTD/svg11.dtd"><svg class="icon" width="200px" height="198.64px" viewBox="0 0 1031 1024" version="1.1" xmlns="http://www.w3.org/2000/svg"><path d="M446.88359375 1008.125c-24.80625 0-49.6125-6.2015625-68.2171875-24.80625l-334.884375-334.884375c-37.209375-37.209375-37.209375-99.225 0-136.434375L515.10078125 46.8828125c37.209375-37.209375 99.225-37.209375 136.434375 0l334.884375 334.884375c37.209375 37.209375 37.209375 99.225 0 136.434375l-37.209375 37.209375c-12.403125 12.403125-31.0078125 12.403125-43.4109375 0s-12.403125-31.0078125 0-43.4109375l37.209375-37.209375c12.403125-12.403125 12.403125-37.209375 0-49.6125L601.92265625 90.29375c-12.403125-12.403125-31.0078125-12.403125-49.6125 0L93.39453125 555.4109375c-12.403125 12.403125-12.403125 37.209375 0 49.6125l334.884375 334.884375c12.403125 12.403125 31.0078125 12.403125 49.6125 0l31.0078125-31.0078125c12.403125-12.403125 31.0078125-12.403125 43.4109375 0s12.403125 31.0078125 0 43.4109375L515.10078125 977.1171875C496.49609375 995.721875 471.68984375 1008.125 446.88359375 1008.125z"  /><path d="M149.20859375 735.25625c-6.2015625 0-18.6046875 0-24.80625-6.2015625-12.403125-12.403125-12.403125-31.0078125 0-43.4109375l558.140625-558.140625c12.403125-12.403125 31.0078125-12.403125 43.4109375 0s12.403125 31.0078125 0 43.4109375l-558.140625 558.140625C167.81328125 735.25625 161.61171875 735.25625 149.20859375 735.25625z"  /><path d="M409.67421875 778.6671875c-6.2015625 0-18.6046875 0-24.80625-6.2015625-12.403125-12.403125-12.403125-31.0078125 0-43.4109375l62.015625-62.015625c12.403125-12.403125 31.0078125-12.403125 43.4109375 0 12.403125 12.403125 12.403125 31.0078125 0 43.4109375l-62.015625 62.015625C428.27890625 772.465625 415.87578125 778.6671875 409.67421875 778.6671875z"  /><path d="M980.21796875 853.0859375l-310.078125 0c-18.6046875 0-31.0078125-12.403125-31.0078125-31.0078125s12.403125-31.0078125 31.0078125-31.0078125l310.078125 0c18.6046875 0 31.0078125 12.403125 31.0078125 31.0078125S998.82265625 853.0859375 980.21796875 853.0859375z"  /><path d="M825.17890625 1008.125c-18.6046875 0-31.0078125-12.403125-31.0078125-31.0078125l0-310.078125c0-18.6046875 12.403125-31.0078125 31.0078125-31.0078125 18.6046875 0 31.0078125 12.403125 31.0078125 31.0078125l0 310.078125C856.18671875 995.721875 843.78359375 1008.125 825.17890625 1008.125z"  /></svg>