<?xml version="1.0" standalone="no"?><!DOCTYPE svg PUBLIC "-//W3C//DTD SVG 1.1//EN" "http://www.w3.org/Graphics/SVG/1.1/DTD/svg11.dtd"><svg class="icon" width="200px" height="200.00px" viewBox="0 0 1024 1024" version="1.1" xmlns="http://www.w3.org/2000/svg"><path d="M963.537543 318.63713571c-24.80141765-58.56860615-60.19874703-111.08240611-105.26047801-156.1441371-45.06173098-45.06173098-97.69197-80.57549824-156.1441371-105.26047801C641.46842697 31.61603306 577.19433062 18.57491179 510.82433951 18.57491179s-130.64408861 13.04112129-191.3085895 38.65760881c-58.56860615 24.80141765-111.08240611 60.19874703-156.14413711 105.26047801s-80.57549824 97.69197-105.26047801 156.1441371C32.49464735 379.30163661 19.45352607 443.57573296 19.45352607 509.94572407s13.04112129 130.64408861 38.65760882 191.30858952c24.80141765 58.56860615 60.19874703 111.08240611 105.26047801 156.14413711 45.06173098 45.06173098 97.69197 80.57549824 156.14413711 105.26047802 60.54806186 25.61648754 124.93859726 38.65760883 191.3085895 38.65760881s130.64408861-13.04112129 191.30858952-38.65760881c58.56860615-24.80141765 111.08240611-60.19874703 156.1441371-105.26047802 45.06173098-45.06173098 80.57549824-97.69197 105.26047801-156.14413711 25.61648754-60.54806186 38.65760883-124.93859726 38.65760882-191.30858952S989.15403053 379.30163661 963.537543 318.63713571zM510.82433951 950.08356244c-242.65800361 0-440.13783723-197.47983361-440.13783725-440.13783723s197.47983361-440.13783723 440.13783725-440.13783723 440.13783723 197.47983361 440.13783721 440.13783723S753.482342 950.08356244 510.82433951 950.08356244z"  /><path d="M827.07152628 541.03482602c0-41.56857342-18.86305052-80.45905919-53.21243193-109.45226639-30.62334692-25.96580352-70.32890254-41.10281956-112.94542393-43.43159125-9.3150868-42.84939834-35.86308324-81.7398841-74.75356898-109.68514332-39.23980174-28.29457524-89.19195307-43.78090609-140.65780623-43.78090608-57.98641322 0-112.47967004 19.21236536-153.81536541 54.02750178-42.15076638 35.7466442-65.4384822 83.37002383-65.43848219 134.37012308 0 26.31511949 6.17124523 51.81516914 18.39729549 75.68507792 10.59591054 20.84250623 25.38361061 39.70555679 43.89734512 56.00695748l-15.02057697 83.71933981c-1.28082489 7.21919204 1.39726279 14.671261 6.9863151 19.44524348 3.7260345 3.14384156 8.50001693 4.7739813 13.27399821 4.77398126 2.32877169 0 4.6575434-0.34931597 6.9863151-1.28082487l137.51396464-49.95215131c16.65071673-0.34931597 32.60280264-1.51370184 47.7398187-3.6095966 7.33563107 15.60276992 17.46578772 29.34252203 30.15759302 40.98638051 31.67129373 28.87676814 78.36316558 44.01378418 138.91122743 45.29460794 0.34931597 0 0.58219291 0 0.93150892 0.11643902l100.60293461 23.52059393c1.51370184 0.34931597 3.02740365 0.58219291 4.6575434 0.58219292 4.89042035 0 9.66440278-1.74657877 13.50687515-5.12329728 5.00685938-4.30822741 7.56850802-10.82878864 6.98631511-17.34934868l-4.54110436-48.55488854C809.02354564 619.16511353 827.07152628 580.85682068 827.07152628 541.03482602zM434.44062964 571.77461083l-3.37671851 0.11643905-112.24679196 40.75350355 10.36303361-57.17134336c1.86301781-10.01371762-1.97945571-20.26031332-9.78084068-26.78087337-34.23294236-28.06169828-53.09599289-65.55492123-53.0959929-105.37691591 0-81.85632312 80.45905919-148.57563022 179.31541504-148.57563022 84.41797177 0 156.37701517 48.08913351 174.77431069 115.39063352-35.7466442 5.12329728-68.69876282 19.44524345-95.13032135 41.6850125-34.23294236 28.99320718-53.21243192 67.88369295-53.21243193 109.45226637 0 9.66440278 0.69863197 19.09592746 2.21233266 28.06169826C461.68725805 570.61022499 448.29682079 571.54173388 434.44062964 571.77461083zM745.09876526 622.54183316c-5.93836714 4.6575434-9.08220986 12.10961236-8.38357788 19.56168135l2.91096463 30.97266289-74.40425305-17.34934868 0 0c-3.02740365-0.93150891-6.05480619-1.28082489-9.19864773-1.28082488-94.19881244-1.86301781-144.03452473-41.21925746-144.03452474-113.29473991 0-62.52751871 61.71244772-113.29473992 137.63040257-113.29473992s137.51396466 50.88366022 137.51396467 113.29473992C787.24953163 572.00748892 772.22895462 600.88425706 745.09876526 622.54183316z"  /><path d="M371.44735703 391.52768689m-27.24662838 0a26.62400001 26.62400001 0 1 0 54.49325566 0 26.62400001 26.62400001 0 1 0-54.49325566 0Z"  /><path d="M515.5983208 394.20577457m-27.24662841 0a26.62400001 26.62400001 0 1 0 54.4932557 0 26.62400001 26.62400001 0 1 0-54.4932557 0Z"  /><path d="M589.07106606 522.05533759m-22.70552292 0a22.18666668 22.18666668 0 1 0 45.41104697 0 22.18666668 22.18666668 0 1 0-45.41104697 0Z"  /><path d="M690.60550844 522.05533759m-22.70552293 0a22.18666668 22.18666668 0 1 0 45.41104697 0 22.18666668 22.18666668 0 1 0-45.41104697 0Z"  /></svg>