<?xml version="1.0" standalone="no"?><!DOCTYPE svg PUBLIC "-//W3C//DTD SVG 1.1//EN" "http://www.w3.org/Graphics/SVG/1.1/DTD/svg11.dtd"><svg class="icon" width="200px" height="200.00px" viewBox="0 0 1024 1024" version="1.1" xmlns="http://www.w3.org/2000/svg"><path d="M954.35745313 363.96870312l-13.89150001-15.81398437c-68.34121875-77.82960938-186.97710937-196.58953125-264.49664062-264.62067188l-15.81398438-13.8915C620.71339062 34.91379688 568.062125 15.875 511.93798438 15.875 455.99989062 15.875 403.348625 34.9758125 363.78265625 69.64254687l-15.81398438 13.89150001C270.44914063 151.62720312 151.75123438 270.32510938 83.47203125 348.15471875l-13.8915 15.81398438C-2.10953125 445.58126563-2.10953125 578.35671875 69.58053125 660.03129688l13.8915 15.81398437c68.2171875 77.76759375 186.85307812 196.4655 264.49664062 264.62067188l15.81398438 13.8915c39.50395313 34.72875 92.09320313 53.76754688 148.21734375 53.76754687 56.062125 0 108.71339062-19.1008125 148.21734375-53.76754687l15.75196875-13.8915 9.1783125-8.06203125c24.5581875-21.45740625 35.721-31.255875 70.2016875-65.11640625l8.12404687-8.06203125-1.2403125-1.36434375a31.06982812 31.06982812 0 0 0-10.35660937-39.4419375 32.06207812 32.06207812 0 0 0-41.05434375 3.90698437c-3.28682812 3.10078125-48.8683125 45.8915625-76.96139063 70.63579688l-15.81398437 13.8915c-27.90703125 24.43415625-65.55051562 37.82953125-106.04671875 37.82953125s-78.20170312-13.45739062-106.04671875-37.82953125l-15.876-13.95351563c-75.96914062-66.66679687-192.000375-182.76004688-258.66717188-258.79120312l-13.8915-15.81398438C93.20848437 590.57379687 79.75109375 552.80628125 79.75109375 512c0-40.80628125 13.45739062-78.57379687 37.76751562-106.29478125l13.8915-15.81398438C198.07690625 313.86007813 314.17015625 197.82884375 390.13929687 131.10003125l15.75196876-13.8915c27.90703125-24.43415625 65.55051562-37.9535625 106.04671875-37.9535625 40.55821875 0 78.20170312 13.51940625 106.04671875 37.9535625l15.81398437 13.8915c76.03115625 66.7288125 192.06239062 182.8220625 258.7291875 258.7291875l13.82948438 15.876c50.66676562 57.67453125 50.8528125 158.88403125 0.31007812 212.27948438l-8.00001562 8.49614062c-22.75973437 24.18609375-36.58921875 38.88379687-51.100875 43.22489063-13.76746875 4.09303125-31.19385937-0.2480625-64.43423438-16.1240625-55.44196875-26.41865625-133.95375-70.6978125-161.240625-86.20171875 11.03878125-21.64345312 36.34115625-74.6668125 48.24815625-127.7521875l3.2248125-14.26359375H537.17834375v-16.6201875h173.33367188V345.36401563H537.17834375v-80.00015625H473.5503125v80.00015624H300.154625v63.37996876h173.33367188v16.68220312h-133.33359375v63.37996875H580.2171875c-5.14729688 16.06204688-14.69770312 35.9690625-21.45740625 48.99234375-24.80625-9.61242188-90.41878125-32.37215625-157.89178125-32.37215625-42.54271875 0-78.32573437 11.34885937-103.56609375 32.86828125-25.11632812 21.27135938-38.32565625 50.79079687-38.32565625 85.51954687s12.6511875 64.43423437 36.65123438 85.89164063c24.5581875 22.01554687 59.34895312 33.61246875 100.83740625 33.61246875 47.8760625 0 97.4885625-20.96128125 143.50415625-60.52725 17.98453125-15.50390625 34.29464062-32.62021875 48.8683125-51.22490625 25.61245312 14.07754687 100.77539063 55.25592188 170.9150625 92.27925 45.70551562 24.12407813 77.82960938 28.89928125 107.34904687 15.93801562 28.09307813-12.27909375 52.71328125-40.31015625 86.821875-79.19395312l0.496125-0.62015625c71.56603125-81.55054687 71.56603125-214.38801563-0.12403125-296.00057813z m-559.00884376 313.7990625c-67.41098437 0-72.62029687-41.30240625-72.62029687-53.95359374a52.89932812 52.89932812 0 0 1 13.6434375-34.66673438c12.34110938-13.45739062 31.81401563-20.27910937 57.86057812-20.27910937 56.00010938 0 106.35679688 18.97678125 129.2405625 29.14734375-20.77523438 24.18609375-74.1706875 79.75209375-128.12428125 79.75209375z" /></svg>