<?xml version="1.0" standalone="no"?><!DOCTYPE svg PUBLIC "-//W3C//DTD SVG 1.1//EN" "http://www.w3.org/Graphics/SVG/1.1/DTD/svg11.dtd"><svg t="1603874168591" class="icon" viewBox="0 0 1024 1024" version="1.1" xmlns="http://www.w3.org/2000/svg" p-id="4465" xmlns:xlink="http://www.w3.org/1999/xlink" width="200" height="200"><defs><style type="text/css"></style></defs><path d="M508.94221428 784.99748656a179.66862112 179.66862112 0 0 1 179.66862211 179.66862113h-359.33724323a179.66862112 179.66862112 0 0 1 179.66862112-179.66862113z" fill="#00e1eb" p-id="4466"></path><path d="M995.07417003 897.4187097a489.90499622 489.90499622 0 0 0-342.91039683-379.10079112 270.40127527 270.40127527 0 0 0 131.92810116-231.51585221 275.30366161 275.30366161 0 1 0-275.14966008 271.81295761 429.74167556 429.74167556 0 0 1 424.78795505 349.84047263 37.73041059 37.73041059 0 0 1-8.4700921 31.82701331 39.6554317 39.6554317 0 0 1-30.5436659 14.1168195H123.16801723a38.11541442 38.11541442 0 0 1-30.28699603-13.86015061 40.29710541 40.29710541 0 0 1-8.72676197-33.36702961 430.38334927 430.38334927 0 0 1 224.07243863-299.78992772 30.49233173 30.49233173 0 0 0 13.09014197-41.32378293 31.62167761 31.62167761 0 0 0-42.09379158-13.09014296A492.26635533 492.26635533 0 0 0 23.06692841 895.87869341a100.71709594 100.71709594 0 0 0 22.07357381 83.93091328A101.97477577 101.97477577 0 0 0 123.16801723 1016h771.5483941a103.28379075 103.28379075 0 0 0 78.28418489-36.19039331 99.79308577 99.79308577 0 0 0 22.07357381-82.39089699zM295.90656355 286.80206638a213.03565073 213.03565073 0 1 1 213.03565073 210.4689569 211.75230333 211.75230333 0 0 1-213.03565073-210.4689569z m0-1e-8" fill="#00e1eb" p-id="4467"></path></svg>