<?xml version="1.0" standalone="no"?><!DOCTYPE svg PUBLIC "-//W3C//DTD SVG 1.1//EN" "http://www.w3.org/Graphics/SVG/1.1/DTD/svg11.dtd"><svg class="icon" width="200px" height="200.00px" viewBox="0 0 1024 1024" version="1.1" xmlns="http://www.w3.org/2000/svg"><path d="M38.76937914 38.76937914m118.30765521 1e-8l709.8459313 0q118.30765522 0 118.3076552 118.3076552l0 709.8459313q0 118.30765522-118.3076552 118.30765521l-709.8459313 0q-118.30765522 0-118.30765521-118.30765521l0-709.8459313q0-118.30765522 118.30765521-118.3076552Z" fill="#009FE8" /><path d="M248.76546715 750.31105379c-27.60511985-6.19143427-48.50613863-14.90676456-62.70305727-26.77696627-60.88900625-50.9905994-35.21624506-129.58631865 22.08409534-163.225128 52.09480449-30.60224652 151.59154252-39.83024362 325.18830891 54.57926433 0 0-117.67668075 172.72917662-284.56934698 135.42282994m417.62602291-176.27840627c57.5763919-100.1277125 82.02664125-193.39358008 82.02664125-193.393581H565.632804V314.58395963h223.99582661V284.84930199h-223.99582661V175.88795154h-101.27135286V284.84930199h-223.99582752v29.73465764h223.99582752v66.05510689h-194.81327287v35.21624598h363.2439377c-6.82240781 59.942545-26.50091477 94.17289356-53.35675249 133.60877802-183.49517324-49.80752284-324.87282122-80.44920554-417.74433057-4.81117768-94.64612417 77.05771974-44.04988393 318.08984868 222.33952034 264.18099409 98.82632829-19.99399373 174.46435526-84.15617904 230.54218383-156.87595081l370.1057817 159.63646308 0.51266589 5.04779298V682.3630235c-68.46069618-23.66153104-215.95090697-74.37607894-318.83913081-108.36981217" fill="#FFFFFF" /></svg>