<?xml version="1.0" standalone="no"?><!DOCTYPE svg PUBLIC "-//W3C//DTD SVG 1.1//EN" "http://www.w3.org/Graphics/SVG/1.1/DTD/svg11.dtd"><svg t="1611556782571" class="icon" viewBox="0 0 1024 1024" version="1.1" xmlns="http://www.w3.org/2000/svg" p-id="3121" xmlns:xlink="http://www.w3.org/1999/xlink" width="200" height="200"><defs><style type="text/css"></style></defs><path d="M302.15029942 281.90711734h52.27177908v33.13781206h-52.27177908zM262.2185428 341.38879691c-4.71416595-2.91169053-6.93259614-7.2099005-6.93259615-12.75597838 0-6.51664138 2.49573457-10.67619859 7.3485521-12.47867404 1.52517105-0.55460755 4.29820998-0.97056352 8.4577684-1.10921509v-33.27646364h-7.48720489c-16.77688401 0-28.5622977 2.77303893-35.35624226 8.31911559-11.23080614 9.15102754-16.9155356 21.49104997-16.91553558 36.88141453 0 8.04181243 1.66382264 15.66766892 4.99146911 22.73891665 3.32764649 7.07124894 7.76450807 12.61732559 13.58788912 16.63823243 4.71416595 3.32764649 9.70563508 5.68472947 15.11306138 6.93259614 5.40742508 1.24786788 13.17193315 1.94112701 23.43217577 1.94112702h2.77303895v-31.88994419c-4.71416595-0.13865158-7.62585648-0.83191193-9.01237595-1.94112702zM346.10296288 354.14477412c-9.28967913-6.79394456-22.04565754-10.12159103-38.1292824-10.12159106h-5.82338106v31.75129261c5.13012192 0.2773044 8.59642 0.83191193 10.39889543 1.66382384 5.13012192 2.35708297 7.62585648 6.65529298 7.62585648 13.03328158 0 7.90315964-3.88225403 12.20136966-11.50811052 13.03328157-1.52517105 0.13865158-3.74360245 0.13865158-6.51664139 0.27730437v33.13781085c15.39036454 0 26.4825191-1.24786788 33.13781207-3.46629805 6.65529298-2.35708297 12.34002245-7.2099005 17.0541884-14.69710423 6.3779886-9.28967913 9.56698349-19.54992296 9.56698351-30.91938188-0.13865158-14.835757-5.40742508-26.06656314-15.80632052-33.6924196zM213.41306301 403.78216703h57.40189977v33.13781085h-57.40189977zM286.48263173 436.91997788v60.31359152-60.31359152H270.95361437v60.31359152h31.19668505v-60.31359152h-15.66766769z" p-id="3122"></path><path d="M286.48263173 221.73217863v60.17493871h15.66766769v-60.17493871H270.95361437v60.17493871h15.52901736zM286.48263173 375.49717249h7.48720366c3.05034211 0 5.82338104 0 8.18046403 0.1386516v-31.7512926h-15.52901612v31.612641zM270.95361437 403.78216703h15.52901736v33.13781085H270.95361437zM286.48263173 344.02318306h-3.60495089c-4.71416595 0-8.73507157-0.13865158-11.92406647-0.41595474v31.88994417h15.52901736v-31.47398943zM289.53297381 403.78216703h-3.05034208v33.13781085H302.01164785v-33.13781085h-12.47867404zM278.9954268 315.0449294h7.48720493v-33.13781206H270.95361437v33.27646364c2.21843139-0.13865158 4.99146912-0.13865158 8.04181243-0.13865158zM286.48263173 281.90711734h15.52901612v33.13781206h-15.52901612z" p-id="3123"></path><path d="M478.93151433 915.68510267c-94.00600992 0-185.79358964-32.9991605-258.16989922-92.75814325-71.40574484-59.06572362-120.90448497-141.28631985-139.20654002-231.54872852-1.24786788-5.82338104 0.13865158-11.92406647 3.88225402-16.7768828s9.15102754-7.76450807 15.11306016-8.18046403l420.2540087-29.11690646-141.14766827-396.82183171c-1.94112701-5.68472947-1.52517105-11.92406647 1.52517227-17.19283877s8.04181243-9.01237596 13.86519228-10.12159104c27.4530826-5.82338104 55.73807713-8.73507157 83.88442008-8.7350728 108.28715936 0 210.19633015 42.15018804 286.73219692 118.82470638 76.67451834 76.67451834 118.82470638 178.44503754 118.82470637 286.73219692 0 4.1595584-0.13865158 8.45776841-0.27730438 13.58789032-0.2773044 9.98293945-7.62585648 18.30205506-17.47014314 19.82722613l-286.8708485 45.61648609 112.03076059 244.58200889c4.43686158 9.70563508 0.83191193 21.2137456-8.45776718 26.62117067-61.83876256 36.18815416-132.55124828 55.46077277-204.51160068 55.46077398zM127.72616871 606.21398788C170.56961586 762.75202071 314.62897344 874.0895222 478.93151433 874.0895222c58.37246329 0 115.77436427-14.00384507 167.21423019-40.62501577L530.64868464 581.53394422c-0.41595595-0.97056352-0.83191193-2.0797786-1.10921509-3.0503421l-401.81330084 27.73038576z m299.48817409-456.44216165l141.70227583 399.04026189L842.89283713 505.27538184C840.258451 306.7258138 678.03568992 146.16687536 478.93151433 146.16687536c-17.33149157-0.13865158-34.66298312 1.10921508-51.71717153 3.60495087z m436.1989808 373.25100192z" p-id="3124"></path><path d="M698.97213113 919.56735671c-7.90315964 0-15.39036454-4.57551437-18.85666262-12.20137087L530.64868464 581.53394422c-2.77303893-5.96203263-2.49573457-12.7559784 0.55460754-18.44070665 3.05034211-5.68472947 8.59642-9.70563508 15.11306138-10.67619859l368.95279314-58.64976765c11.23080614-1.80247544 21.76835314 5.68472947 23.70948017 16.91553559 0.55460755 3.05034211 13.17193315 75.42665168-8.87372314 161.80680512-13.03328157 51.16256276-35.49489505 96.64039728-66.8302317 135.18563443-39.09984471 48.11222066-91.78757972 85.27093834-156.815336 110.50559075-2.49573457 0.97056352-4.99146912 1.38651947-7.4872049 1.38651949z m-119.10200953-330.40755601l129.63955653 282.84994289C803.93164401 830.27551152 864.38388712 760.25628494 889.34123514 663.75454045c13.58788912-52.27177907 12.89462998-99.69073939 10.95350298-125.47999935l-320.42461652 50.8852596z" p-id="3125"></path></svg>