<?xml version="1.0" standalone="no"?><!DOCTYPE svg PUBLIC "-//W3C//DTD SVG 1.1//EN" "http://www.w3.org/Graphics/SVG/1.1/DTD/svg11.dtd"><svg class="icon" width="200px" height="200.00px" viewBox="0 0 1024 1024" version="1.1" xmlns="http://www.w3.org/2000/svg"><path d="M196.82871088 407.1712888l630.34257824 0 0 477.55301836-630.34257825 0 0-477.55301836Z" fill="#FFCB57" /><path d="M799.76509016 1016.00000001H224.23490984a191.84339278 191.84339278 0 0 1-191.84339278-191.84339279v-356.28058758a191.84339278 191.84339278 0 0 1 191.84339278-191.84339278h575.53018032a191.84339278 191.84339278 0 0 1 191.84339278 191.84339278v356.28058758a191.84339278 191.84339278 0 0 1-191.84339278 191.84339279z m-575.53018032-685.15497521a137.03099484 137.03099484 0 0 0-137.03099484 137.03099484v356.28058758a137.03099484 137.03099484 0 0 0 137.03099484 137.03099484h575.53018032a137.03099484 137.03099484 0 0 0 137.03099484-137.03099484v-356.28058758a137.03099484 137.03099484 0 0 0-137.03099484-137.03099484z" fill="#472D22" /><path d="M860.469821 330.8450248a27.40619897 27.40619897 0 0 1-26.44698263-20.41761882L769.20717739 68.97879266 200.11745558 221.49429073 220.12398069 295.76509016a27.40619897 27.40619897 0 1 1-52.89396427 13.70309948l-27.40619897-101.26590567a27.40619897 27.40619897 0 0 1 19.32137058-33.57259369L781.53996781 8.95921733a27.40619897 27.40619897 0 0 1 33.57259369 19.32136959L886.91680264 295.76509016a27.40619897 27.40619897 0 0 1-19.45840148 33.57259368 30.69494269 30.69494269 0 0 1-6.98858016 1.50734096zM957.35073373 783.04730877h-137.03099484a130.17944559 130.17944559 0 0 1 0-260.35889119h137.03099484a27.40619897 27.40619897 0 0 1 0 54.81239794h-137.03099484a75.36704766 75.36704766 0 0 0 0 150.73409432h137.03099484a27.40619897 27.40619897 0 0 1 0 54.81239893z" fill="#472D22" /></svg>