<svg width="32" height="32" viewBox="0 0 32 32" fill="none" xmlns="http://www.w3.org/2000/svg">
<rect width="32" height="32" rx="6" fill="#FFF7E8"/>
<path d="M18.9167 14.3334V16H16.8334V16.8334H18.9167V18.5H16.8334V20.5834H15.1667V18.5H13.0834V16.8334H15.1667V16H13.0834V14.3334H14.4049L12.7382 12.6667L13.9167 11.4882L16.0001 13.5715L18.0834 11.4882L19.2619 12.6667L17.5953 14.3334H18.9167Z" fill="#FF7D00"/>
<path fill-rule="evenodd" clip-rule="evenodd" d="M7.66675 16C7.66675 11.3976 11.3977 7.66669 16.0001 7.66669C20.6025 7.66669 24.3334 11.3976 24.3334 16C24.3334 20.6024 20.6025 24.3334 16.0001 24.3334C11.3977 24.3334 7.66675 20.6024 7.66675 16ZM16.0001 9.33335C12.3182 9.33335 9.33341 12.3181 9.33341 16C9.33341 19.6819 12.3182 22.6667 16.0001 22.6667C19.682 22.6667 22.6667 19.6819 22.6667 16C22.6667 12.3181 19.682 9.33335 16.0001 9.33335Z" fill="#FF7D00"/>
</svg>
