<svg width="33" height="32" viewBox="0 0 33 32" fill="none" xmlns="http://www.w3.org/2000/svg">
<rect x="0.666748" width="32" height="32" rx="6" fill="#E8FFEA"/>
<path fill-rule="evenodd" clip-rule="evenodd" d="M11.6667 8.91665V8.08331H13.3333V8.91665H20V8.08331H21.6667V8.91665H23.3333C24.0237 8.91665 24.5833 9.47629 24.5833 10.1666V22.6666C24.5833 23.357 24.0237 23.9166 23.3333 23.9166H10C9.30965 23.9166 8.75 23.357 8.75 22.6666V10.1666C8.75 9.47629 9.30964 8.91665 10 8.91665H11.6667ZM11.6667 10.5833H10.4167V14.3333H22.9167V10.5833H21.6667V11.4166H20V10.5833H13.3333V11.4166H11.6667V10.5833ZM22.9167 16H10.4167V22.25H22.9167V16Z" fill="#00B42A"/>
</svg>
