<svg width="72" height="72" viewBox="0 0 72 72" fill="none" xmlns="http://www.w3.org/2000/svg">
<g clip-path="url(#clip0_1_15383)">
<g filter="url(#filter0_d_1_15383)">
<path d="M33.7053 43.1468C33.7403 42.9874 33.7791 42.8111 33.8481 42.6046C33.7597 42.4283 33.721 42.252 33.6761 42.0478C33.6411 41.8885 33.6023 41.7121 33.5333 41.5056C33.5333 41.1916 33.5333 41.0346 33.3759 40.8776L32.2743 39.7786C31.9595 39.4646 31.6448 38.9937 31.4874 38.5227C31.2332 38.1424 31.0817 37.6597 30.9499 37.24C30.9185 37.1399 30.8882 37.0434 30.8579 36.9527C30.753 36.6387 30.648 36.1851 30.5431 35.7316C30.4907 35.5048 30.4382 35.278 30.3857 35.0687C30.071 35.0687 29.9136 34.9117 29.5988 34.5977C29.4415 34.2837 29.2841 33.9697 28.9693 33.6557C28.915 33.4931 28.8419 33.3305 28.763 33.155C28.6134 32.8221 28.4429 32.4427 28.3398 31.9287C28.025 31.3007 28.025 30.6727 28.025 30.0447C28.025 29.4167 28.1824 28.9457 28.3398 28.4747C28.4972 28.0037 28.8119 27.5328 29.1267 27.2188C29.1267 25.7805 29.2588 24.4741 29.4019 23.058C29.415 22.9282 29.4282 22.7976 29.4415 22.6658C29.5988 21.4098 29.9136 19.9968 30.3857 18.5838C30.8579 17.0139 31.4874 15.7579 32.2743 14.5019C32.9038 13.5599 33.6907 12.6179 34.7924 11.6759C35.5793 10.8909 36.5235 10.1059 37.3104 9.63492C37.0563 9.0011 36.9047 8.36728 36.773 7.8161C36.7415 7.68464 36.7112 7.55788 36.6809 7.43694C36.5235 6.80895 36.2088 6.18095 35.5793 5.39596C34.7924 4.29697 33.5333 3.35498 31.8021 2.41299C30.071 1.471 28.1824 1 25.9791 1C25.507 1 25.0742 1.03925 24.6414 1.0785C24.2086 1.11775 23.7758 1.157 23.3037 1.157C22.5522 1.28194 21.9004 1.50632 21.1896 1.75101C21.0072 1.81378 20.821 1.87788 20.6282 1.94199C20.4187 2.06741 20.198 2.19282 19.9721 2.32121C19.3496 2.67495 18.6875 3.05121 18.1101 3.51198C17.3714 4.00328 16.8253 4.68675 16.2458 5.41206C16.0846 5.61387 15.9207 5.81891 15.7494 6.02395C14.9626 7.12294 14.4904 8.37893 14.0183 9.63492C13.9601 9.89622 13.9019 10.1521 13.8447 10.4037C13.5925 11.5124 13.3597 12.5362 13.2314 13.5599C13.074 14.9729 13.074 16.3859 13.074 17.7988C12.9166 17.9558 12.6019 18.4268 12.4445 18.8978C12.2871 19.3688 12.1297 19.8398 12.1297 20.3108C12.1297 20.7818 12.2871 21.4098 12.4445 22.0378C12.5665 22.5247 12.7831 22.9172 12.9476 23.2153C12.9953 23.3017 13.0386 23.3802 13.074 23.4508C13.2314 23.7648 13.5461 24.0788 13.7035 24.2358C13.8609 24.3143 13.9789 24.3535 14.097 24.3928C14.215 24.432 14.333 24.4713 14.4904 24.5498C14.6478 25.1778 14.8052 25.8058 14.9626 26.2768C15.0412 26.5123 15.1593 26.7478 15.2773 26.9833C15.3953 27.2188 15.5134 27.4543 15.5921 27.6898C15.7494 28.1608 16.0642 28.6317 16.379 28.7887C16.6992 29.2146 17.0917 29.5683 17.4585 29.8988C17.6326 30.0556 17.8008 30.2072 17.9528 30.3587C18.4249 30.8297 18.5823 31.4577 18.7397 32.3997V33.9697C18.7397 34.4407 18.5823 34.9117 18.4249 35.3827C18.2675 35.8537 18.1101 36.3247 17.638 36.7957C17.3232 37.2667 16.6937 37.7377 15.9068 38.2087C14.9626 38.8367 13.8609 39.3076 12.6019 39.6216C11.3428 39.9356 10.2412 40.2496 8.98214 40.7206C7.7231 41.1916 6.77882 41.6626 5.83455 42.4476C5.04765 43.2326 4.41813 44.1746 4.26075 45.5876C3.946 48.0996 3.946 49.9836 4.10338 51.5535C4.26075 52.9665 4.57551 53.9085 4.89027 54.2225C5.20503 54.3795 5.83455 54.6935 6.77882 54.8505C7.09359 54.9028 7.44332 54.9726 7.8222 55.0482C8.57995 55.1994 9.45428 55.3738 10.3986 55.4785C12.4185 55.9263 14.5582 56.0022 16.6825 56.0775C17.8123 56.1175 18.9378 56.1574 20.0385 56.2531C20.1131 56.2595 20.1867 56.233 20.2396 56.1802C20.2678 56.152 20.3041 56.1338 20.3404 56.1155C20.365 56.1031 20.3896 56.0908 20.4117 56.0753C20.4256 56.0656 20.4386 56.0528 20.4489 56.0361C20.4681 56.0048 20.4777 55.9689 20.4872 55.9329C20.4932 55.9105 20.4991 55.8881 20.5074 55.8669C20.6282 55.5561 20.6282 55.1248 20.6282 54.6935C20.6282 54.2225 20.6282 53.7515 20.7856 53.2805C20.943 51.7105 21.4151 50.4545 22.3594 49.6696C23.1463 48.8846 24.2479 48.0996 25.3496 47.6286C26.4511 47.1576 27.71 46.6867 28.969 46.2157C30.228 45.7447 31.4874 45.1166 32.589 44.4886C32.6727 44.433 32.7514 44.3823 32.8251 44.3348C33.1678 44.1141 33.4038 43.962 33.5333 43.7036C33.6217 43.5273 33.6604 43.351 33.7053 43.1468Z" fill="#FFD21D"/>
<path d="M67.0865 65.2388C64.1544 67.8596 57.5582 68.4374 50.418 68.8428C49.7117 68.8829 49 68.9213 48.286 68.9599L48.2846 68.9599C47.2951 69.0134 46.3146 69.0134 45.3251 68.9599C37.3933 68.5319 29.7456 68.1191 26.5233 65.2388C25.6053 64.4184 25.0052 63.2498 24.7655 62.0313C24.6098 61.2395 24.6098 60.4476 24.6098 59.4975C24.6098 58.5473 24.6098 57.7553 24.7656 56.8051C24.9213 56.0134 25.0771 55.2215 25.2328 54.5881C25.4591 53.8979 25.8499 53.2912 26.2258 52.7074C26.9297 51.6145 28.0668 50.8827 29.2829 50.4706C30.0529 50.2097 30.828 49.9888 31.5982 49.7693C33.7356 49.1603 35.8367 48.5615 37.6946 47.1449C38.3177 46.6698 38.6292 46.1947 38.9408 45.5613C39.2523 44.9278 39.4081 44.4527 39.4081 43.8193C39.4081 41.4203 38.4755 40.4808 37.0812 39.0762L37.0795 39.0744C36.9755 38.9697 36.8689 38.8623 36.76 38.7516C36.1055 38.0863 35.6467 37.0982 35.358 36.2177C35.2022 35.7426 35.0465 35.1092 34.8907 34.4757C34.5792 34.3173 34.2676 34.159 33.9561 33.8422C33.1491 33.0219 32.9273 31.9384 32.7099 30.8333C32.4961 29.9637 32.6325 29.0903 33.0214 28.2994C33.1772 27.9827 33.4888 27.666 33.6445 27.5076C33.6445 26.0823 33.8003 24.4987 33.9561 23.0734C34.1118 21.8065 34.4234 20.3812 34.8907 18.9559C35.358 17.5306 35.9811 16.1053 36.9157 14.9967C37.6946 13.8882 38.9408 12.938 40.6543 11.9878C42.3678 11.0376 44.237 10.5625 46.4178 10.5625H47.1919C47.2351 10.5625 47.2781 10.5626 47.321 10.563C49.4467 10.5815 51.2759 11.0564 52.9555 11.9878C54.669 12.9379 55.9152 13.8881 56.694 14.9967C57.6287 16.1053 58.2517 17.5305 58.719 18.9558C59.1864 20.3811 59.4979 21.8064 59.6537 23.0733C59.8095 24.4986 59.9652 26.0823 59.9652 27.5076C60.121 27.6659 60.4325 27.9827 60.5883 28.2994C60.9773 29.0903 61.1137 29.9636 60.8999 30.8333C60.6825 31.9383 60.4606 33.0218 59.6537 33.8422C59.3421 34.1589 59.0306 34.3173 58.719 34.4757C58.5633 35.1091 58.4075 35.7426 58.2517 36.2177C57.963 37.0982 57.5042 38.0862 56.8498 38.7515C56.7402 38.863 56.6329 38.971 56.5283 39.0764C55.134 40.4811 54.2017 41.4203 54.2017 43.8192C54.2017 44.4527 54.3574 44.9278 54.669 45.5612C54.9805 46.1947 55.2921 46.6698 55.9152 47.1449C57.773 48.5615 59.8743 49.1603 62.0117 49.7693C62.7819 49.9888 63.5569 50.2096 64.3268 50.4706C65.5429 50.8827 66.6801 51.6145 67.3839 52.7074C67.7599 53.2912 68.1506 53.8979 68.3769 54.5881C68.5327 55.2215 68.6885 56.0135 68.8442 56.8052C69 57.7554 69 58.5472 69 59.4974C69 60.4476 69 61.2394 68.8442 62.0313C68.6045 63.2497 68.0044 64.4183 67.0865 65.2388Z" fill="#FFD21D"/>
</g>
</g>
<defs>
<filter id="filter0_d_1_15383" x="-1" y="0" width="75" height="78" filterUnits="userSpaceOnUse" color-interpolation-filters="sRGB">
<feFlood flood-opacity="0" result="BackgroundImageFix"/>
<feColorMatrix in="SourceAlpha" type="matrix" values="0 0 0 0 0 0 0 0 0 0 0 0 0 0 0 0 0 0 127 0" result="hardAlpha"/>
<feOffset dy="4"/>
<feGaussianBlur stdDeviation="2.5"/>
<feComposite in2="hardAlpha" operator="out"/>
<feColorMatrix type="matrix" values="0 0 0 0 0 0 0 0 0 0 0 0 0 0 0 0 0 0 0.2 0"/>
<feBlend mode="normal" in2="BackgroundImageFix" result="effect1_dropShadow_1_15383"/>
<feBlend mode="normal" in="SourceGraphic" in2="effect1_dropShadow_1_15383" result="shape"/>
</filter>
<clipPath id="clip0_1_15383">
<rect width="72" height="72" fill="white"/>
</clipPath>
</defs>
</svg>
