<svg width="58" height="64" viewBox="0 0 58 64" fill="none" xmlns="http://www.w3.org/2000/svg">
<path fill-rule="evenodd" clip-rule="evenodd" d="M54.8036 2.34315C53.2947 0.84285 51.2482 0 49.1144 0H8.88579C6.75199 0 4.70549 0.84285 3.19659 2.34315C1.68776 3.84344 0.840088 5.87827 0.840088 8V56C0.840088 58.1217 1.68776 60.1566 3.19659 61.6569C4.70549 63.1571 6.75199 64 8.88579 64H49.1144C51.2482 64 53.2947 63.1571 54.8036 61.6569C56.3124 60.1566 57.1601 58.1217 57.1601 56V8C57.1601 5.87827 56.3124 3.84344 54.8036 2.34315ZM16.5949 27.0747L34.675 10.44V10.4387C34.758 10.3619 34.8633 10.3132 34.9758 10.2996C35.0883 10.286 35.2022 10.3082 35.3012 10.363C35.4003 10.4178 35.4793 10.5024 35.527 10.6046C35.5747 10.7068 35.5886 10.8214 35.5667 10.932L33.1396 23.416L33.1369 23.4667C33.1369 23.6081 33.1934 23.7438 33.294 23.8438C33.3946 23.9438 33.5311 24 33.6733 24H41.0901C41.197 23.9996 41.3016 24.031 41.3905 24.0902C41.4793 24.1494 41.5483 24.2336 41.5887 24.332C41.629 24.4305 41.6389 24.5387 41.617 24.6427C41.595 24.7468 41.5423 24.8419 41.4656 24.916L23.0007 42.8C22.9187 42.8798 22.8132 42.9315 22.6995 42.9472C22.5859 42.963 22.4701 42.9422 22.3693 42.8877C22.2685 42.8332 22.1878 42.7481 22.1393 42.6447C22.0907 42.5413 22.0768 42.4252 22.0996 42.3133L24.8485 28.6373C24.864 28.56 24.862 28.4803 24.8427 28.4038C24.8235 28.3274 24.7874 28.2561 24.7372 28.1951C24.6869 28.1342 24.6237 28.0851 24.552 28.0513C24.4804 28.0176 24.4021 28.0001 24.3229 28H16.9597C16.8517 28.0002 16.7461 27.968 16.6568 27.9075C16.5675 27.8471 16.4987 27.7613 16.4593 27.6613C16.4198 27.5613 16.4117 27.4518 16.4359 27.3471C16.4601 27.2425 16.5156 27.1475 16.5949 27.0747ZM10.7701 52C9.70419 52 8.84009 52.8641 8.84009 53.93C8.84009 54.9959 9.70419 55.86 10.7701 55.86H46.9101C47.976 55.86 48.8401 54.9959 48.8401 53.93C48.8401 52.8641 47.976 52 46.9101 52H10.7701Z" fill="black"/>
</svg>
