<svg width="60" height="63" viewBox="0 0 60 63" fill="none" xmlns="http://www.w3.org/2000/svg">
<path d="M37.7827 18.8854C51.4523 18.8854 57.146 39.6649 59.0229 49.0729C59.6235 52.0831 60.097 55.3146 58.6548 58.0241C57.2192 60.7211 54.5703 62.7457 51.5396 62.7458H8.06592C5.03485 62.7457 2.38513 60.7208 0.949707 58.0231C-0.491682 55.3142 -0.0177058 52.0831 0.58252 49.0739C2.459 39.6665 8.15156 18.8857 21.8237 18.8854H37.7827ZM31.9565 29.3464C29.2067 29.3464 27.1058 29.9733 25.6538 31.2272C24.2018 32.4812 23.2447 34.2966 22.7827 36.6725H21.1001C20.5941 36.6725 20.1864 36.8153 19.8784 37.1013C19.5706 37.3653 19.4165 37.8273 19.4165 38.487C19.4165 39.1689 19.5705 39.6531 19.8784 39.9391C20.1864 40.2031 20.5941 40.3347 21.1001 40.3347H22.3872V41.82H21.1001C20.5941 41.82 20.1864 41.9627 19.8784 42.2487C19.5704 42.5127 19.4165 42.9754 19.4165 43.6354C19.4165 44.3173 19.5705 44.8016 19.8784 45.0876C20.1864 45.3516 20.5941 45.4831 21.1001 45.4831H22.6841C23.1021 47.991 24.0368 49.8829 25.4888 51.1589C26.9407 52.4128 29.0967 53.0397 31.9565 53.0397C32.8144 53.0397 33.6505 52.9632 34.4644 52.8093C35.3004 52.6553 35.9832 52.3801 36.5112 51.9841C37.061 51.5881 37.3354 51.016 37.3354 50.2682C37.3354 49.6963 37.1376 49.2345 36.7417 48.8825C36.3457 48.5085 35.7076 48.321 34.8276 48.321C34.3437 48.321 33.8044 48.3872 33.2104 48.5192C32.6165 48.6292 31.9232 48.6843 31.1313 48.6843C30.2736 48.6842 29.5587 48.4313 28.9868 47.9255C28.4368 47.4195 28.0189 46.6051 27.7329 45.4831H31.0991C31.6049 45.483 32.0119 45.3514 32.3198 45.0876C32.6278 44.8016 32.7817 44.3173 32.7817 43.6354C32.7817 42.9754 32.6278 42.5127 32.3198 42.2487C32.0119 41.9629 31.6049 41.8201 31.0991 41.82H27.3364V40.3347H31.0991C31.605 40.3346 32.0119 40.2031 32.3198 39.9391C32.6278 39.6531 32.7817 39.169 32.7817 38.487C32.7817 37.8271 32.6277 37.3653 32.3198 37.1013C32.0119 36.8153 31.605 36.6726 31.0991 36.6725H27.6997C27.9417 35.6606 28.327 34.9124 28.855 34.4284C29.4049 33.9445 30.1635 33.7019 31.1313 33.7018C31.9232 33.7018 32.6165 33.7681 33.2104 33.9001C33.8044 34.0101 34.3437 34.0651 34.8276 34.0651C35.7074 34.0651 36.3457 33.8784 36.7417 33.5046C37.1377 33.1306 37.3354 32.6679 37.3354 32.1179C37.3354 31.3701 37.061 30.798 36.5112 30.402C35.9832 30.006 35.3004 29.7308 34.4644 29.5768C33.6505 29.4229 32.8144 29.3464 31.9565 29.3464ZM13.8813 2.88739C14.4214 0.99618 15.8041 -0.364494 19.0718 0.0875854C23.7835 0.736213 25.6989 3.72215 29.5278 3.72235C33.2636 3.72235 34.5094 -0.0760938 39.7075 0.0875854C43.197 0.196385 44.4819 1.26803 44.9497 2.88055C45.4534 4.61721 44.9248 6.46992 44.1655 8.11102C42.7739 11.1184 40.1179 15.7468 36.9565 15.7468H21.8237C18.6612 15.7465 16.0059 11.1174 14.6147 8.11005C13.8561 6.46971 13.3853 4.62522 13.8813 2.88739Z" fill="black"/>
</svg>
