<svg width="58" height="62" viewBox="0 0 58 62" fill="none" xmlns="http://www.w3.org/2000/svg">
<path fill-rule="evenodd" clip-rule="evenodd" d="M37.77 24.8919C34.9962 24.8919 32.7278 22.6522 32.7278 19.9155V0H6.6518C2.99359 0 0 2.95456 0 6.56506V55.4349C0 59.0454 2.99359 62 6.6518 62H51.2967C54.9549 62 57.9484 59.0454 57.9484 55.4349V24.8919H37.77ZM8.93 46.2869C7.8641 46.2869 7 47.151 7 48.2169C7 49.2828 7.8641 50.1469 8.93 50.1469H45.6581C46.724 50.1469 47.5881 49.2828 47.5881 48.2169C47.5881 47.151 46.724 46.2869 45.6581 46.2869H8.93ZM7 33.3568C7 32.2908 7.8641 31.4268 8.93 31.4268H45.6581C46.724 31.4268 47.5881 32.2908 47.5881 33.3568C47.5881 34.4227 46.724 35.2868 45.6581 35.2868H8.93C7.8641 35.2868 7 34.4227 7 33.3568ZM8.93 16.5667C7.8641 16.5667 7 17.4307 7 18.4967C7 19.5626 7.8641 20.4267 8.93 20.4267H26.0507C27.1166 20.4267 27.9807 19.5626 27.9807 18.4967C27.9807 17.4307 27.1166 16.5667 26.0507 16.5667H8.93Z" fill="black"/>
<path d="M41.464 21.1176H58.0001L37.2981 0V17.0068C37.2981 19.2677 39.1724 21.1176 41.464 21.1176Z" fill="black"/>
</svg>
