<svg width="154" height="188" viewBox="0 0 154 188" fill="none" xmlns="http://www.w3.org/2000/svg">
<g filter="url(#filter0_di_26_48777)">
<ellipse cx="77" cy="144" rx="62" ry="23" fill="white" fill-opacity="0.01" shape-rendering="crispEdges"/>
<path d="M137 144C137 146.39 135.701 148.912 132.809 151.449C129.92 153.983 125.625 156.355 120.145 158.388C109.2 162.448 93.9466 165 77 165C60.0534 165 44.7998 162.448 33.855 158.388C28.3749 156.355 24.0797 153.983 21.191 151.449C18.2986 148.912 17 146.39 17 144C17 141.61 18.2986 139.088 21.191 136.551C24.0797 134.017 28.3749 131.645 33.855 129.612C44.7998 125.552 60.0534 123 77 123C93.9466 123 109.2 125.552 120.145 129.612C125.625 131.645 129.92 134.017 132.809 136.551C135.701 139.088 137 141.61 137 144Z" stroke="#6D5737" stroke-width="4" shape-rendering="crispEdges"/>
</g>
<g filter="url(#filter1_i_26_48777)">
<ellipse cx="77" cy="137" rx="44" ry="16" fill="#FFCC00" fill-opacity="0.01"/>
</g>
<path d="M119 137C119 138.407 118.222 140.006 116.238 141.711C114.261 143.411 111.283 145.033 107.429 146.434C99.7378 149.231 88.9798 151 77 151C65.0202 151 54.2622 149.231 46.5708 146.434C42.7169 145.033 39.7388 143.411 37.7616 141.711C35.7779 140.006 35 138.407 35 137C35 135.593 35.7779 133.994 37.7616 132.289C39.7388 130.589 42.7169 128.967 46.5708 127.566C54.2622 124.769 65.0202 123 77 123C88.9798 123 99.7378 124.769 107.429 127.566C111.283 128.967 114.261 130.589 116.238 132.289C118.222 133.994 119 135.593 119 137Z" stroke="#A58F43" stroke-width="4"/>
<path d="M16 34H138L119.695 134.726C118.554 141.002 113.974 146.1 107.856 147.904C87.7137 153.842 66.2863 153.842 46.1444 147.904C40.0257 146.1 35.4457 141.002 34.3051 134.726L16 34Z" fill="url(#paint0_linear_26_48777)" fill-opacity="0.5"/>
<defs>
<filter id="filter0_di_26_48777" x="5" y="117" width="144" height="66" filterUnits="userSpaceOnUse" color-interpolation-filters="sRGB">
<feFlood flood-opacity="0" result="BackgroundImageFix"/>
<feColorMatrix in="SourceAlpha" type="matrix" values="0 0 0 0 0 0 0 0 0 0 0 0 0 0 0 0 0 0 127 0" result="hardAlpha"/>
<feOffset dy="6"/>
<feGaussianBlur stdDeviation="5"/>
<feComposite in2="hardAlpha" operator="out"/>
<feColorMatrix type="matrix" values="0 0 0 0 0 0 0 0 0 0 0 0 0 0 0 0 0 0 0.4 0"/>
<feBlend mode="normal" in2="BackgroundImageFix" result="effect1_dropShadow_26_48777"/>
<feBlend mode="normal" in="SourceGraphic" in2="effect1_dropShadow_26_48777" result="shape"/>
<feColorMatrix in="SourceAlpha" type="matrix" values="0 0 0 0 0 0 0 0 0 0 0 0 0 0 0 0 0 0 127 0" result="hardAlpha"/>
<feOffset/>
<feGaussianBlur stdDeviation="8"/>
<feComposite in2="hardAlpha" operator="arithmetic" k2="-1" k3="1"/>
<feColorMatrix type="matrix" values="0 0 0 0 1 0 0 0 0 1 0 0 0 0 1 0 0 0 0.3 0"/>
<feBlend mode="normal" in2="shape" result="effect2_innerShadow_26_48777"/>
</filter>
<filter id="filter1_i_26_48777" x="33" y="121" width="88" height="32" filterUnits="userSpaceOnUse" color-interpolation-filters="sRGB">
<feFlood flood-opacity="0" result="BackgroundImageFix"/>
<feBlend mode="normal" in="SourceGraphic" in2="BackgroundImageFix" result="shape"/>
<feColorMatrix in="SourceAlpha" type="matrix" values="0 0 0 0 0 0 0 0 0 0 0 0 0 0 0 0 0 0 127 0" result="hardAlpha"/>
<feOffset/>
<feGaussianBlur stdDeviation="12.5"/>
<feComposite in2="hardAlpha" operator="arithmetic" k2="-1" k3="1"/>
<feColorMatrix type="matrix" values="0 0 0 0 1 0 0 0 0 0.823529 0 0 0 0 0.113725 0 0 0 1 0"/>
<feBlend mode="normal" in2="shape" result="effect1_innerShadow_26_48777"/>
</filter>
<linearGradient id="paint0_linear_26_48777" x1="77" y1="34" x2="77" y2="144.962" gradientUnits="userSpaceOnUse">
<stop stop-color="#FFD21D" stop-opacity="0"/>
<stop offset="1" stop-color="#FFD21D" stop-opacity="0.4"/>
</linearGradient>
</defs>
</svg>
