<svg width="72" height="72" viewBox="0 0 72 72" fill="none" xmlns="http://www.w3.org/2000/svg">
<g clip-path="url(#clip0_1_15376)">
<g filter="url(#filter0_d_1_15376)">
<path d="M27.824 17.7466H42.957C46.1184 17.7466 48.7736 13.1183 50.1652 10.1109C50.9245 8.4698 51.4535 6.61723 50.9498 4.88057C50.482 3.26802 49.1971 2.19603 45.7076 2.08723C40.5094 1.9235 39.264 5.72214 35.5282 5.72214C31.699 5.72214 29.7837 2.73588 25.0718 2.08723C21.8041 1.63515 20.4219 2.99573 19.8818 4.88694C19.3855 6.62497 19.8563 8.46947 20.6151 10.11C22.0063 13.1174 24.6613 17.7466 27.824 17.7466ZM43.7831 20.8858H27.824C14.1514 20.8858 8.45898 41.6671 6.58258 51.0744C5.98235 54.0836 5.50828 57.3143 6.94971 60.0232C8.38518 62.721 11.035 64.746 14.0662 64.746H57.5393C60.5701 64.746 63.2195 62.7216 64.6551 60.0245C66.0974 57.315 65.6231 54.0832 65.0225 51.073C63.1456 41.665 57.4527 20.8858 43.7831 20.8858ZM45.5945 47.569C46.6592 47.569 47.5221 48.4333 47.5221 49.4982C47.5221 50.5628 46.6593 51.4272 45.5945 51.4272H37.7694V56.4879C37.7694 57.5526 36.9066 58.4171 35.8433 58.4171C34.7786 58.4171 33.9158 57.5526 33.9158 56.4879V51.4272H26.0402C24.9755 51.4272 24.1127 50.5628 24.1127 49.4982C24.1127 48.4333 24.9755 47.569 26.0402 47.569H33.9158V45.1213H26.0402C24.9755 45.1213 24.1127 44.2584 24.1127 43.1937C24.1127 42.1289 24.9755 41.263 26.0402 41.263H31.364L25.9132 31.5762C25.3809 30.6521 25.6975 29.4742 26.6185 28.9419C27.5409 28.4094 28.719 28.7246 29.2513 29.6455L35.8143 41.263H36.1462L42.7092 29.6455C43.2415 28.7246 44.4195 28.4093 45.3405 28.9419C46.263 29.4742 46.5797 30.6521 46.0473 31.5762L40.5965 41.263H45.5945C46.6592 41.263 47.5221 42.1289 47.5221 43.1937C47.5221 44.2584 46.6593 45.1213 45.5945 45.1213H37.7694V47.569H45.5945Z" fill="#08EFF0"/>
</g>
</g>
<defs>
<filter id="filter0_d_1_15376" x="1" y="1" width="69.6054" height="72.7461" filterUnits="userSpaceOnUse" color-interpolation-filters="sRGB">
<feFlood flood-opacity="0" result="BackgroundImageFix"/>
<feColorMatrix in="SourceAlpha" type="matrix" values="0 0 0 0 0 0 0 0 0 0 0 0 0 0 0 0 0 0 127 0" result="hardAlpha"/>
<feOffset dy="4"/>
<feGaussianBlur stdDeviation="2.5"/>
<feComposite in2="hardAlpha" operator="out"/>
<feColorMatrix type="matrix" values="0 0 0 0 0 0 0 0 0 0 0 0 0 0 0 0 0 0 0.2 0"/>
<feBlend mode="normal" in2="BackgroundImageFix" result="effect1_dropShadow_1_15376"/>
<feBlend mode="normal" in="SourceGraphic" in2="effect1_dropShadow_1_15376" result="shape"/>
</filter>
<clipPath id="clip0_1_15376">
<rect width="72" height="72" fill="white"/>
</clipPath>
</defs>
</svg>
