<svg width="72" height="72" viewBox="0 0 72 72" fill="none" xmlns="http://www.w3.org/2000/svg">
<g clip-path="url(#clip0_1_15381)">
<g filter="url(#filter0_d_1_15381)">
<path fill-rule="evenodd" clip-rule="evenodd" d="M61.8035 4.34315C60.2946 2.84285 58.2481 2 56.1143 2H15.8857C13.7519 2 11.7054 2.84285 10.1965 4.34315C8.68767 5.84344 7.84 7.87827 7.84 10V58C7.84 60.1217 8.68767 62.1566 10.1965 63.6569C11.7054 65.1571 13.7519 66 15.8857 66H56.1143C58.2481 66 60.2946 65.1571 61.8035 63.6569C63.3123 62.1566 64.16 60.1217 64.16 58V10C64.16 7.87827 63.3123 5.84344 61.8035 4.34315ZM23.5948 29.0747L41.6749 12.44V12.4387C41.7579 12.3619 41.8632 12.3132 41.9757 12.2996C42.0882 12.286 42.2021 12.3082 42.3011 12.363C42.4002 12.4178 42.4792 12.5024 42.5269 12.6046C42.5746 12.7068 42.5885 12.8214 42.5666 12.932L40.1395 25.416L40.1368 25.4667C40.1368 25.6081 40.1933 25.7438 40.2939 25.8438C40.3945 25.9438 40.531 26 40.6732 26H48.09C48.1969 25.9996 48.3015 26.031 48.3904 26.0902C48.4792 26.1494 48.5482 26.2336 48.5886 26.332C48.6289 26.4305 48.6388 26.5387 48.6169 26.6427C48.5949 26.7468 48.5422 26.8419 48.4655 26.916L30.0006 44.8C29.9186 44.8798 29.8131 44.9315 29.6994 44.9472C29.5858 44.963 29.47 44.9422 29.3692 44.8877C29.2684 44.8332 29.1877 44.7481 29.1392 44.6447C29.0906 44.5413 29.0767 44.4252 29.0995 44.3133L31.8484 30.6373C31.8639 30.56 31.8619 30.4803 31.8426 30.4038C31.8234 30.3274 31.7873 30.2561 31.7371 30.1951C31.6868 30.1342 31.6236 30.0851 31.5519 30.0513C31.4803 30.0176 31.402 30.0001 31.3228 30H23.9596C23.8516 30.0002 23.746 29.968 23.6567 29.9075C23.5674 29.8471 23.4986 29.7613 23.4592 29.6613C23.4197 29.5613 23.4116 29.4518 23.4358 29.3471C23.46 29.2425 23.5155 29.1475 23.5948 29.0747ZM17.77 54C16.7041 54 15.84 54.8641 15.84 55.93C15.84 56.9959 16.7041 57.86 17.77 57.86H53.91C54.9759 57.86 55.84 56.9959 55.84 55.93C55.84 54.8641 54.9759 54 53.91 54H17.77Z" fill="#08EFF0"/>
</g>
</g>
<defs>
<filter id="filter0_d_1_15381" x="2.84" y="1" width="66.32" height="74" filterUnits="userSpaceOnUse" color-interpolation-filters="sRGB">
<feFlood flood-opacity="0" result="BackgroundImageFix"/>
<feColorMatrix in="SourceAlpha" type="matrix" values="0 0 0 0 0 0 0 0 0 0 0 0 0 0 0 0 0 0 127 0" result="hardAlpha"/>
<feOffset dy="4"/>
<feGaussianBlur stdDeviation="2.5"/>
<feComposite in2="hardAlpha" operator="out"/>
<feColorMatrix type="matrix" values="0 0 0 0 0 0 0 0 0 0 0 0 0 0 0 0 0 0 0.2 0"/>
<feBlend mode="normal" in2="BackgroundImageFix" result="effect1_dropShadow_1_15381"/>
<feBlend mode="normal" in="SourceGraphic" in2="effect1_dropShadow_1_15381" result="shape"/>
</filter>
<clipPath id="clip0_1_15381">
<rect width="72" height="72" fill="white"/>
</clipPath>
</defs>
</svg>
