<svg width="77" height="66" viewBox="0 0 77 66" fill="none" xmlns="http://www.w3.org/2000/svg">
<path d="M60.64 29.34H31.09V40.09H46.62C46.47 41.85 46.01 43.46 45.26 44.92C44.5 46.38 43.47 47.65 42.16 48.72C40.85 49.79 39.3 50.61 37.52 51.17C35.73 51.74 33.74 52.02 31.56 52.02C29.06 52.02 26.78 51.53 24.7 50.54C22.62 49.55 20.82 48.17 19.32 46.41C17.81 44.65 16.65 42.62 15.83 40.33C15.01 38.03 14.6 35.58 14.6 32.97C14.6 30.36 15.01 27.95 15.83 25.64C16.64 23.33 17.81 21.3 19.32 19.56C20.83 17.82 22.63 16.44 24.7 15.43C26.78 14.42 29.06 13.92 31.56 13.92C35.13 13.92 38.01 14.66 40.18 16.13C42.35 17.61 44.07 19.34 45.33 21.32L58.45 15C57.46 13.4 56.23 11.75 54.75 10.07C53.27 8.39 51.47 6.84 49.34 5.42C47.21 4.01 44.68 2.87 41.74 2.03C38.8 1.18 35.4 0.759998 31.55 0.759998C26.84 0.759998 22.56 1.58 18.73 3.23C14.89 4.88 11.59 7.18 8.81997 10.11C6.04997 13.05 3.91997 16.48 2.43997 20.39C0.959968 24.31 0.219971 28.5 0.219971 32.96C0.219971 37.42 0.959968 41.66 2.43997 45.58C3.91997 49.49 6.04997 52.93 8.81997 55.88C11.59 58.84 14.9 61.14 18.73 62.79C22.57 64.44 26.84 65.27 31.55 65.27C36.26 65.27 40.27 64.45 44.03 62.82C47.79 61.18 51.02 58.91 53.73 55.98C56.44 53.06 58.53 49.66 59.99 45.79C60.24 45.14 60.43 44.47 60.63 43.81V29.34H60.64Z" fill="#010101"/>
<path d="M76.0499 50.54H61.9399V65.27H76.0499V50.54Z" fill="#CA0414"/>
</svg>
