<svg width="12" height="12" viewBox="0 0 12 12" fill="none" xmlns="http://www.w3.org/2000/svg">
<g id="general/gongchang-fill">
<path id="Union" d="M8.49935 1C8.36674 1 8.23957 1.05268 8.1458 1.14645L6.79224 2.5H3.09972C2.90956 2.08214 2.48838 1.79163 1.99935 1.79163C1.332 1.79163 0.791016 2.33262 0.791016 2.99996C0.791016 3.6673 1.332 4.20829 1.99935 4.20829C2.01442 4.20829 2.02944 4.20802 2.04438 4.20747L3.84869 8.04163H1.74935C1.35815 8.04163 1.04102 8.35875 1.04102 8.74996V10.5C1.04102 10.615 1.13429 10.7083 1.24935 10.7083H10.7493C10.8644 10.7083 10.9577 10.615 10.9577 10.5V8.74996C10.9577 8.35875 10.6406 8.04163 10.2493 8.04163H4.95388L2.93891 3.75982C3.00288 3.68083 3.05708 3.59361 3.09969 3.5H6.79224L8.1458 4.85355C8.23957 4.94732 8.36674 5 8.49935 5H10.4994V4H8.70646L7.70646 3L8.70646 2H10.4994V1H8.49935Z" fill="#86909C"/>
</g>
</svg>
