<svg width="33" height="32" viewBox="0 0 33 32" fill="none" xmlns="http://www.w3.org/2000/svg">
<rect x="0.333252" width="32" height="32" rx="6" fill="#E8F3FF"/>
<path fill-rule="evenodd" clip-rule="evenodd" d="M8.07845 14.8511H7.07617L8.83323 17.5125L10.5903 14.8511H9.76519C10.3097 11.7167 13.0431 9.33335 16.3332 9.33335C20.0151 9.33335 22.9999 12.3181 22.9999 16C22.9999 19.6819 20.0151 22.6667 16.3332 22.6667C14.0152 22.6667 11.9729 21.4843 10.7772 19.6859L9.38929 20.6087C10.8808 22.852 13.4339 24.3334 16.3332 24.3334C20.9356 24.3334 24.6666 20.6024 24.6666 16C24.6666 11.3976 20.9356 7.66669 16.3332 7.66669C12.1207 7.66669 8.63813 10.7924 8.07845 14.8511ZM16.7499 16V13.0834H15.0832V17.6667H19.6666V16H16.7499Z" fill="#165DFF"/>
</svg>
