<svg width="54" height="54" viewBox="0 0 54 54" fill="none" xmlns="http://www.w3.org/2000/svg">
<g clip-path="url(#clip0_1599_23589)">
<rect width="54" height="54" rx="27" fill="#F7F8FA"/>
<g filter="url(#filter0_d_1599_23589)">
<path fill-rule="evenodd" clip-rule="evenodd" d="M35.9996 15.1258C35.9996 14.2843 35.3174 13.6021 34.4759 13.6021H19.5241C18.6826 13.6021 18.0004 14.2843 18.0004 15.1258V27.3157H15.1257C14.4469 27.3157 14.107 28.1363 14.587 28.6163L25.9226 39.9519C26.5176 40.5469 27.4824 40.5469 28.0775 39.9519L39.413 28.6163C39.893 28.1363 39.5531 27.3157 38.8743 27.3157H35.9996V15.1258ZM32 25.6981H28.25V24.4481H32V21.9481H28.7678L31.4194 19.2964L29.6516 17.5287L27 20.1803L24.3484 17.5287L22.5806 19.2964L25.2323 21.9481H22V24.4481H25.75V25.6981H22V28.1981H25.75V30.6981H28.25V28.1981H32V25.6981Z" fill="url(#paint0_linear_1599_23589)"/>
</g>
<g filter="url(#filter1_d_1599_23589)">
<path d="M28.25 25.6982H32V28.1982H28.25V30.6982H25.75V28.1982H22V25.6982H25.75V24.4482H22V21.9482H25.2323L22.5806 19.2966L24.3484 17.5288L27 20.1805L29.6516 17.5288L31.4194 19.2966L28.7678 21.9482H32V24.4482H28.25V25.6982Z" fill="white"/>
</g>
</g>
<defs>
<filter id="filter0_d_1599_23589" x="8.3623" y="10.6021" width="37.2754" height="38.7961" filterUnits="userSpaceOnUse" color-interpolation-filters="sRGB">
<feFlood flood-opacity="0" result="BackgroundImageFix"/>
<feColorMatrix in="SourceAlpha" type="matrix" values="0 0 0 0 0 0 0 0 0 0 0 0 0 0 0 0 0 0 127 0" result="hardAlpha"/>
<feOffset dy="3"/>
<feGaussianBlur stdDeviation="3"/>
<feComposite in2="hardAlpha" operator="out"/>
<feColorMatrix type="matrix" values="0 0 0 0 0.992157 0 0 0 0 0.662745 0 0 0 0 0.47451 0 0 0 0.3 0"/>
<feBlend mode="normal" in2="BackgroundImageFix" result="effect1_dropShadow_1599_23589"/>
<feBlend mode="normal" in="SourceGraphic" in2="effect1_dropShadow_1599_23589" result="shape"/>
</filter>
<filter id="filter1_d_1599_23589" x="20" y="16.5288" width="14" height="17.1694" filterUnits="userSpaceOnUse" color-interpolation-filters="sRGB">
<feFlood flood-opacity="0" result="BackgroundImageFix"/>
<feColorMatrix in="SourceAlpha" type="matrix" values="0 0 0 0 0 0 0 0 0 0 0 0 0 0 0 0 0 0 127 0" result="hardAlpha"/>
<feOffset dy="1"/>
<feGaussianBlur stdDeviation="1"/>
<feComposite in2="hardAlpha" operator="out"/>
<feColorMatrix type="matrix" values="0 0 0 0 0.918056 0 0 0 0 0.492044 0 0 0 0 0.256291 0 0 0 0.4 0"/>
<feBlend mode="normal" in2="BackgroundImageFix" result="effect1_dropShadow_1599_23589"/>
<feBlend mode="normal" in="SourceGraphic" in2="effect1_dropShadow_1599_23589" result="shape"/>
</filter>
<linearGradient id="paint0_linear_1599_23589" x1="14.6431" y1="13.0661" x2="39.3569" y2="39.8622" gradientUnits="userSpaceOnUse">
<stop stop-color="#FDC879"/>
<stop offset="1" stop-color="#FF985F"/>
</linearGradient>
<clipPath id="clip0_1599_23589">
<rect width="54" height="54" rx="27" fill="white"/>
</clipPath>
</defs>
</svg>
