<svg width="72" height="72" viewBox="0 0 72 72" fill="none" xmlns="http://www.w3.org/2000/svg">
<g clip-path="url(#clip0_1_15379)">
<g filter="url(#filter0_d_1_15379)">
<path fill-rule="evenodd" clip-rule="evenodd" d="M44.77 26.8919C41.9962 26.8919 39.7278 24.6522 39.7278 21.9155V2H13.6518C9.99359 2 7 4.95456 7 8.56506V57.4349C7 61.0454 9.99359 64 13.6518 64H58.2967C61.9549 64 64.9484 61.0454 64.9484 57.4349V26.8919H44.77ZM15.93 48.2869C14.8641 48.2869 14 49.151 14 50.2169C14 51.2828 14.8641 52.1469 15.93 52.1469H52.6581C53.724 52.1469 54.5881 51.2828 54.5881 50.2169C54.5881 49.151 53.724 48.2869 52.6581 48.2869H15.93ZM14 35.3568C14 34.2908 14.8641 33.4268 15.93 33.4268H52.6581C53.724 33.4268 54.5881 34.2908 54.5881 35.3568C54.5881 36.4227 53.724 37.2868 52.6581 37.2868H15.93C14.8641 37.2868 14 36.4227 14 35.3568ZM15.93 18.5667C14.8641 18.5667 14 19.4307 14 20.4967C14 21.5626 14.8641 22.4267 15.93 22.4267H33.0507C34.1166 22.4267 34.9807 21.5626 34.9807 20.4967C34.9807 19.4307 34.1166 18.5667 33.0507 18.5667H15.93Z" fill="#FFD21D"/>
<path d="M48.4639 23.1176H65L44.298 2V19.0068C44.298 21.2677 46.1723 23.1176 48.4639 23.1176Z" fill="#FFD21D"/>
</g>
</g>
<defs>
<filter id="filter0_d_1_15379" x="2" y="1" width="68" height="72" filterUnits="userSpaceOnUse" color-interpolation-filters="sRGB">
<feFlood flood-opacity="0" result="BackgroundImageFix"/>
<feColorMatrix in="SourceAlpha" type="matrix" values="0 0 0 0 0 0 0 0 0 0 0 0 0 0 0 0 0 0 127 0" result="hardAlpha"/>
<feOffset dy="4"/>
<feGaussianBlur stdDeviation="2.5"/>
<feComposite in2="hardAlpha" operator="out"/>
<feColorMatrix type="matrix" values="0 0 0 0 0 0 0 0 0 0 0 0 0 0 0 0 0 0 0.2 0"/>
<feBlend mode="normal" in2="BackgroundImageFix" result="effect1_dropShadow_1_15379"/>
<feBlend mode="normal" in="SourceGraphic" in2="effect1_dropShadow_1_15379" result="shape"/>
</filter>
<clipPath id="clip0_1_15379">
<rect width="72" height="72" fill="white"/>
</clipPath>
</defs>
</svg>
