<svg width="70" height="64" viewBox="0 0 70 64" fill="none" xmlns="http://www.w3.org/2000/svg">
<path d="M61.2559 40.406C57.4034 40.4139 53.9261 38.041 52.4648 34.3976C50.5269 39.3113 45.0648 41.6923 40.2512 39.7108C37.8835 38.7361 36.008 36.8185 35.0547 34.3976C33.5856 38.041 30.1083 40.4139 26.2559 40.406C22.4269 40.406 18.9886 38.025 17.5586 34.3976C15.7144 39.0157 10.729 41.4446 6.05604 39.9905V59.8932C6.05604 61.7389 8.05649 64 9.8538 64H60.1619C61.9591 64 63.9518 61.7469 63.9518 59.8932V39.9985C63.0766 40.2621 62.1701 40.398 61.2481 40.398H61.2559V40.406ZM6.00134 8.902L0 25.0495C0 29.8753 3.89149 34.5734 8.68944 34.5734C13.4874 34.5734 15.7379 28.2134 17.5899 27.6621C19.9107 27.0229 21.3563 34.1339 25.5682 34.1898C29.7801 34.2458 32.0228 32.1045 34.4921 27.8219C36.0237 26.224 36.7504 29.0923 37.399 30.3148C38.0476 31.5292 40.0871 34.7811 44.0567 34.6213C48.8234 34.4295 49.386 31.8488 52.1601 27.5583C55.1529 25.8325 54.2152 35.1566 61.2402 34.9249C66.046 34.9249 70 29.9872 70 25.0574L63.7955 8.9259L5.98571 8.9179V8.902H6.00134ZM10.0022 6.16943H60.0056C60.8026 6.1934 61.5684 5.8738 62.1467 5.29054C62.7093 4.70728 63.0219 3.9083 63.0063 3.08534C63.0219 2.26239 62.7093 1.47139 62.1467 0.880138C61.5841 0.296878 60.8105 -0.0227123 60.0056 0.00125769H10.0022C9.2052 -0.0147223 8.43157 0.304868 7.86113 0.880138C7.2985 1.4634 6.98593 2.26239 7.00156 3.08534C7.00938 4.83512 8.30654 6.16943 10.0022 6.16943Z" fill="black"/>
</svg>
