<svg width="72" height="72" viewBox="0 0 72 72" fill="none" xmlns="http://www.w3.org/2000/svg">
<g clip-path="url(#clip0_1_15385)">
<g filter="url(#filter0_d_1_15385)">
<path d="M62.2559 42.406C58.4034 42.4139 54.9261 40.041 53.4648 36.3976C51.5269 41.3113 46.0648 43.6923 41.2512 41.7108C38.8835 40.7361 37.008 38.8185 36.0547 36.3976C34.5856 40.041 31.1083 42.4139 27.2559 42.406C23.4269 42.406 19.9886 40.025 18.5586 36.3976C16.7144 41.0157 11.729 43.4446 7.05604 41.9905V61.8932C7.05604 63.7389 9.05649 66 10.8538 66H61.1619C62.9591 66 64.9518 63.7469 64.9518 61.8932V41.9985C64.0766 42.2621 63.1701 42.398 62.2481 42.398H62.2559V42.406ZM7.00134 10.902L1 27.0495C1 31.8753 4.89149 36.5734 9.68944 36.5734C14.4874 36.5734 16.7379 30.2134 18.5899 29.6621C20.9107 29.0229 22.3563 36.1339 26.5682 36.1898C30.7801 36.2458 33.0228 34.1045 35.4921 29.8219C37.0237 28.224 37.7504 31.0923 38.399 32.3148C39.0476 33.5292 41.0871 36.7811 45.0567 36.6213C49.8234 36.4295 50.386 33.8488 53.1601 29.5583C56.1529 27.8325 55.2152 37.1566 62.2402 36.9249C67.046 36.9249 71 31.9872 71 27.0574L64.7955 10.9259L6.98571 10.9179V10.902H7.00134ZM11.0022 8.16943H61.0056C61.8026 8.1934 62.5684 7.8738 63.1467 7.29054C63.7093 6.70728 64.0219 5.9083 64.0063 5.08534C64.0219 4.26239 63.7093 3.47139 63.1467 2.88014C62.5841 2.29688 61.8105 1.97729 61.0056 2.00126H11.0022C10.2052 1.98528 9.43157 2.30487 8.86113 2.88014C8.2985 3.4634 7.98593 4.26239 8.00156 5.08534C8.00938 6.83512 9.30654 8.16943 11.0022 8.16943Z" fill="#08EFF0"/>
</g>
</g>
<defs>
<filter id="filter0_d_1_15385" x="-4" y="1" width="80" height="74" filterUnits="userSpaceOnUse" color-interpolation-filters="sRGB">
<feFlood flood-opacity="0" result="BackgroundImageFix"/>
<feColorMatrix in="SourceAlpha" type="matrix" values="0 0 0 0 0 0 0 0 0 0 0 0 0 0 0 0 0 0 127 0" result="hardAlpha"/>
<feOffset dy="4"/>
<feGaussianBlur stdDeviation="2.5"/>
<feComposite in2="hardAlpha" operator="out"/>
<feColorMatrix type="matrix" values="0 0 0 0 0 0 0 0 0 0 0 0 0 0 0 0 0 0 0.2 0"/>
<feBlend mode="normal" in2="BackgroundImageFix" result="effect1_dropShadow_1_15385"/>
<feBlend mode="normal" in="SourceGraphic" in2="effect1_dropShadow_1_15385" result="shape"/>
</filter>
<clipPath id="clip0_1_15385">
<rect width="72" height="72" fill="white"/>
</clipPath>
</defs>
</svg>
