<svg width="16" height="16" viewBox="0 0 16 16" fill="none" xmlns="http://www.w3.org/2000/svg">
<g clip-path="url(#clip0_425_77710)">
<path fill-rule="evenodd" clip-rule="evenodd" d="M3.41421 3.82849L5.29983 1.94287L6.24264 2.88568L3.41421 5.71411L1.5286 3.82849L2.4714 2.88568L3.41421 3.82849ZM14.3333 4.33339H7V3.00006H14.3333V4.33339ZM3.41421 8.16182L5.29983 6.2762L6.24264 7.21901L3.41421 10.0474L1.5286 8.16182L2.4714 7.21901L3.41421 8.16182ZM14.3333 9.00006H7V7.66673H14.3333V9.00006ZM3.41421 12.4952L5.29983 10.6095L6.24264 11.5523L3.41421 14.3808L1.52859 12.4952L2.4714 11.5523L3.41421 12.4952ZM14.3333 13.6667H7V12.3334H14.3333V13.6667Z" fill="#165DFF"/>
</g>
<defs>
<clipPath id="clip0_425_77710">
<rect width="16" height="16" fill="white"/>
</clipPath>
</defs>
</svg>
