<svg width="16" height="16" viewBox="0 0 16 16" fill="none" xmlns="http://www.w3.org/2000/svg">
<g clip-path="url(#clip0_425_77710)">
<path fill-rule="evenodd" clip-rule="evenodd" d="M1.66666 2.66663C1.66666 2.11434 2.11437 1.66663 2.66666 1.66663H13.3333C13.8856 1.66663 14.3333 2.11434 14.3333 2.66663V4.81698C14.3333 5.15888 14.1586 5.47708 13.8702 5.66064L10.6667 7.69926V14H9.33332V7.51627C9.33332 7.17437 9.508 6.85617 9.79645 6.67261L13 4.63399V2.99996H2.99999V4.634L6.20353 6.67261C6.49198 6.85617 6.66666 7.17437 6.66666 7.51627V12.3333H5.33332V7.69926L2.12978 5.66064C1.84133 5.47708 1.66666 5.15888 1.66666 4.81698V2.66663Z" fill="#165DFF"/>
</g>
<defs>
<clipPath id="clip0_425_77710">
<rect width="16" height="16" fill="white"/>
</clipPath>
</defs>
</svg>
