<?xml version="1.0" encoding="UTF-8"?>
<svg id="a" data-name="Layer 1" xmlns="http://www.w3.org/2000/svg" width="618.26" height="138.26" viewBox="0 0 618.26 138.26">
  <defs>
    <style>
      .b {
        fill: #ca0414;
      }
    </style>
  </defs>
  <path d="M105.12,63.4v22.21c-.28.89-.54,1.79-.87,2.66-2.19,5.8-5.32,10.89-9.38,15.27-4.07,4.39-8.92,7.8-14.55,10.25s-11.87,3.68-18.7,3.68-13.48-1.24-19.22-3.72c-5.75-2.47-10.71-5.92-14.86-10.35-4.16-4.43-7.35-9.57-9.56-15.44-2.22-5.87-3.33-12.17-3.33-18.91s1.11-12.97,3.33-18.84c2.21-5.87,5.4-11,9.56-15.41,4.15-4.4,9.11-7.84,14.86-10.32,5.74-2.47,12.15-3.71,19.22-3.71,5.77,0,10.86.64,15.27,1.91,4.41,1.27,8.21,2.97,11.4,5.09,3.18,2.12,5.88,4.44,8.1,6.96,2.22,2.52,4.06,4.99,5.54,7.39l-19.67,9.47c-1.9-2.97-4.47-5.56-7.73-7.78-3.25-2.21-7.56-3.32-12.91-3.32-3.75,0-7.18.76-10.29,2.27-3.12,1.51-5.81,3.57-8.07,6.18-2.26,2.62-4.01,5.65-5.23,9.12-1.23,3.46-1.84,7.13-1.84,10.99s.61,7.58,1.84,11.03c1.22,3.44,2.97,6.48,5.23,9.11,2.26,2.64,4.95,4.7,8.07,6.19,3.11,1.48,6.54,2.22,10.29,2.22,3.27,0,6.25-.42,8.93-1.27,2.68-.84,5-2.07,6.96-3.67,1.97-1.61,3.51-3.5,4.64-5.69.86-1.66,1.46-3.43,1.79-5.33h-23.05v-18.24h44.23Z"/>
  <path d="M114.02,81.64v-18.24h36.4v18.24h-36.4Z"/>
  <polygon points="232.72 22.47 232.72 115.77 211.73 115.77 211.73 81.76 179.49 81.76 179.49 115.77 158.43 115.77 158.43 22.47 179.49 22.47 179.49 63.28 211.73 63.28 211.73 22.47 232.72 22.47"/>
  <path d="M243.23,67.66c0-6.59,1.2-12.73,3.6-18.43,2.4-5.7,5.77-10.67,10.11-14.93,4.34-4.25,9.43-7.57,15.27-9.95,5.84-2.38,12.16-3.57,18.95-3.57s13.23,1.19,19.05,3.57c5.82,2.38,10.89,5.7,15.2,9.95,4.31,4.26,7.66,9.23,10.04,14.93,2.38,5.7,3.57,11.84,3.57,18.43s-1.16,12.8-3.46,18.5c-2.31,5.7-5.61,10.68-9.89,14.96-4.29,4.28-9.36,7.61-15.2,9.99-5.84,2.38-12.28,3.57-19.3,3.57s-13.68-1.19-19.55-3.57c-5.87-2.38-10.92-5.71-15.16-9.99-4.24-4.28-7.51-9.27-9.79-14.96-2.29-5.7-3.42-11.87-3.42-18.5ZM265.21,69.05c0,5.32,1.1,10.15,3.29,14.45,2.19,4.31,5.23,7.74,9.12,10.29,3.89,2.55,8.4,3.82,13.54,3.82s9.65-1.27,13.53-3.82c3.89-2.54,6.93-5.97,9.12-10.29,2.19-4.31,3.29-9.13,3.29-14.45s-1.1-10.13-3.29-14.42c-2.2-4.29-5.23-7.72-9.12-10.29-3.88-2.56-8.4-3.85-13.53-3.85s-9.65,1.28-13.54,3.85c-3.89,2.57-6.93,6-9.12,10.29-2.19,4.29-3.29,9.1-3.29,14.42Z"/>
  <path d="M344.77,69.05c0-6.78,1.2-13.11,3.6-18.98,2.4-5.87,5.77-10.99,10.11-15.38,4.34-4.38,9.43-7.8,15.27-10.25,5.84-2.45,12.16-3.68,18.95-3.68s13.23,1.22,19.05,3.68c5.82,2.45,10.89,5.87,15.2,10.25,4.31,4.39,7.66,9.51,10.04,15.38,2.38,5.87,3.57,12.2,3.57,18.98s-1.16,13.18-3.46,19.05-5.61,11-9.89,15.41c-4.29,4.41-9.36,7.83-15.2,10.29-5.84,2.45-12.28,3.68-19.3,3.68s-13.68-1.23-19.55-3.68c-5.87-2.45-10.92-5.88-15.16-10.29-4.24-4.41-7.51-9.54-9.79-15.41-2.29-5.87-3.42-12.22-3.42-19.05ZM366.75,69.05c0,5.32,1.1,10.15,3.29,14.45,2.19,4.31,5.23,7.74,9.12,10.29,3.89,2.55,8.4,3.82,13.54,3.82s9.65-1.27,13.53-3.82c3.89-2.54,6.93-5.97,9.12-10.29,2.19-4.31,3.29-9.13,3.29-14.45s-1.1-10.13-3.29-14.42c-2.2-4.29-5.23-7.72-9.12-10.29-3.88-2.56-8.4-3.85-13.53-3.85s-9.65,1.28-13.54,3.85c-3.89,2.57-6.93,6-9.12,10.29-2.19,4.29-3.29,9.1-3.29,14.42Z"/>
  <path d="M480.52,20.77c5.79,0,10.86.64,15.2,1.91,4.34,1.27,7.82,2.61,10.46,4.03,2.64,1.41,4.24,2.36,4.81,2.83l-10.18,17.03c-.75-.56-2.04-1.39-3.85-2.47-1.82-1.08-3.96-2.05-6.43-2.9-2.47-.85-5.06-1.27-7.74-1.27-3.63,0-6.56.65-8.8,1.94-2.23,1.3-3.36,3.21-3.36,5.76,0,1.74.6,3.31,1.8,4.7,1.2,1.39,3.04,2.71,5.51,3.96,2.47,1.25,5.62,2.61,9.44,4.07,3.49,1.27,6.76,2.78,9.82,4.53,3.07,1.74,5.77,3.8,8.1,6.18,2.34,2.38,4.18,5.12,5.55,8.24,1.37,3.11,2.05,6.64,2.05,10.6,0,4.72-.97,8.8-2.9,12.27-1.93,3.46-4.56,6.32-7.88,8.59-3.32,2.26-7.1,3.94-11.31,5.05-4.21,1.11-8.59,1.66-13.11,1.66-6.41,0-12.15-.73-17.21-2.2-5.07-1.46-9.16-3.04-12.26-4.73-3.11-1.7-4.97-2.83-5.59-3.4l10.53-17.74c.57.42,1.66,1.11,3.29,2.05,1.63.94,3.61,1.92,5.97,2.93,2.35,1.01,4.87,1.87,7.53,2.58,2.66.7,5.29,1.06,7.88,1.06,4.34,0,7.59-.83,9.75-2.51,2.17-1.67,3.25-3.87,3.25-6.61,0-2.02-.69-3.84-2.05-5.44-1.37-1.6-3.42-3.12-6.15-4.56s-6.15-2.96-10.25-4.56c-4.1-1.65-7.93-3.65-11.49-6.01-3.56-2.36-6.45-5.3-8.66-8.84-2.22-3.53-3.32-7.92-3.32-13.15s1.47-9.77,4.42-13.61c2.94-3.84,6.83-6.79,11.67-8.87,4.83-2.07,10-3.11,15.51-3.11Z"/>
  <polygon points="539.32 117.49 560.45 117.49 560.45 40.98 582.65 40.98 582.65 22.47 517.05 22.47 517.05 40.98 539.32 40.98 539.32 117.49"/>
  <rect class="b" x="582.47" y="95.4" width="21.14" height="22.09"/>
</svg>