<svg width="40" height="36" viewBox="0 0 40 36" fill="none" xmlns="http://www.w3.org/2000/svg">
<g filter="url(#filter0_d_2515_137866)">
<path d="M14.1686 3.75H32.2496C32.94 3.75 33.4996 4.30965 33.4996 5V25C33.4996 25.6904 32.94 26.25 32.2496 26.25H14.1686C13.7507 26.25 13.3604 26.0411 13.1286 25.6934L6.46189 15.6934C6.18197 15.2735 6.18197 14.7265 6.46189 14.3066L13.1286 4.30663C13.3604 3.95888 13.7507 3.75 14.1686 3.75Z" fill="url(#paint0_linear_2515_137866)"/>
</g>
<g filter="url(#filter1_d_2515_137866)">
<path d="M23.25 16.5847H27V19.0847H23.25V21.5847H20.75V19.0847H17V16.5847H20.75V15.3347H17V12.8347H20.2323L17.5806 10.183L19.3484 8.41528L22 11.0669L24.6516 8.41528L26.4194 10.183L23.7678 12.8347H27V15.3347H23.25V16.5847Z" fill="white"/>
</g>
<defs>
<filter id="filter0_d_2515_137866" x="0.251953" y="0.75" width="39.248" height="34.5" filterUnits="userSpaceOnUse" color-interpolation-filters="sRGB">
<feFlood flood-opacity="0" result="BackgroundImageFix"/>
<feColorMatrix in="SourceAlpha" type="matrix" values="0 0 0 0 0 0 0 0 0 0 0 0 0 0 0 0 0 0 127 0" result="hardAlpha"/>
<feOffset dy="3"/>
<feGaussianBlur stdDeviation="3"/>
<feComposite in2="hardAlpha" operator="out"/>
<feColorMatrix type="matrix" values="0 0 0 0 0.992157 0 0 0 0 0.662745 0 0 0 0 0.47451 0 0 0 0.3 0"/>
<feBlend mode="normal" in2="BackgroundImageFix" result="effect1_dropShadow_2515_137866"/>
<feBlend mode="normal" in="SourceGraphic" in2="effect1_dropShadow_2515_137866" result="shape"/>
</filter>
<filter id="filter1_d_2515_137866" x="15" y="7.41528" width="14" height="17.1694" filterUnits="userSpaceOnUse" color-interpolation-filters="sRGB">
<feFlood flood-opacity="0" result="BackgroundImageFix"/>
<feColorMatrix in="SourceAlpha" type="matrix" values="0 0 0 0 0 0 0 0 0 0 0 0 0 0 0 0 0 0 127 0" result="hardAlpha"/>
<feOffset dy="1"/>
<feGaussianBlur stdDeviation="1"/>
<feComposite in2="hardAlpha" operator="out"/>
<feColorMatrix type="matrix" values="0 0 0 0 0.918056 0 0 0 0 0.492044 0 0 0 0 0.256291 0 0 0 0.4 0"/>
<feBlend mode="normal" in2="BackgroundImageFix" result="effect1_dropShadow_2515_137866"/>
<feBlend mode="normal" in="SourceGraphic" in2="effect1_dropShadow_2515_137866" result="shape"/>
</filter>
<linearGradient id="paint0_linear_2515_137866" x1="6.55471" y1="3.3" x2="33.1969" y2="25.8" gradientUnits="userSpaceOnUse">
<stop stop-color="#FDC879"/>
<stop offset="1" stop-color="#FF985F"/>
</linearGradient>
</defs>
</svg>
