<?xml version="1.0" standalone="no"?><!DOCTYPE svg PUBLIC "-//W3C//DTD SVG 1.1//EN" "http://www.w3.org/Graphics/SVG/1.1/DTD/svg11.dtd"><svg t="1594716873571" class="icon" viewBox="0 0 1024 1024" version="1.1" xmlns="http://www.w3.org/2000/svg" p-id="5399" xmlns:xlink="http://www.w3.org/1999/xlink" width="20" height="20"><defs><style type="text/css"></style></defs><path d="M512.036571 950.857143c-70.546286 0-365.714286-276.589714-365.714285-548.571429a365.714286 365.714286 0 0 1 731.428571 0c0 271.981714-295.168 548.571429-365.714286 548.571429z" fill="#660099" p-id="5400"></path><path d="M512.036571 1024c-77.604571 0-402.285714-309.796571-402.285714-614.4a402.285714 402.285714 0 1 1 804.571429 0c0 304.603429-324.681143 614.4-402.285715 614.4z m0-950.857143a329.142857 329.142857 0 0 0-329.142857 329.142857c0 229.778286 243.382857 512 329.142857 512 81.225143 0 329.142857-279.954286 329.142858-512a329.142857 329.142857 0 0 0-329.142858-329.142857z m0 438.857143a109.714286 109.714286 0 1 1 109.714286-109.714286 109.714286 109.714286 0 0 1-109.714286 109.714286z" fill="#FFFFFF" p-id="5401"></path></svg>